STARTFONT 2.1
FONT -FontForge-mononoki-Bold-R-Normal--64-610-75-75-M-360-ISO10646-1
SIZE 61 75 75
FONTBOUNDINGBOX 84 91 -24 -17
COMMENT "Generated by fontforge, http://fontforge.sourceforge.net"
STARTPROPERTIES 39
FOUNDRY "FontForge"
FAMILY_NAME "mononoki"
WEIGHT_NAME "Bold"
SLANT "R"
SETWIDTH_NAME "Normal"
ADD_STYLE_NAME ""
PIXEL_SIZE 64
POINT_SIZE 610
RESOLUTION_X 75
RESOLUTION_Y 75
SPACING "M"
AVERAGE_WIDTH 360
CHARSET_REGISTRY "ISO10646"
CHARSET_ENCODING "1"
FONTNAME_REGISTRY ""
CHARSET_COLLECTIONS "ASCII ISOLatin1Encoding ISO8859-2 ISO8859-5 ISO8859-7 ISO8859-9 ISO10646-1"
FONT_NAME "mononoki-Bold"
FACE_NAME "mononoki Bold"
FONT_VERSION "1.006"
FONT_ASCENT 51
FONT_DESCENT 13
UNDERLINE_POSITION -8
UNDERLINE_THICKNESS 4
X_HEIGHT 31
CAP_HEIGHT 44
RAW_ASCENT 799
RAW_DESCENT 200
NORM_SPACE 36
RELATIVE_WEIGHT 70
RELATIVE_SETWIDTH 50
SUPERSCRIPT_X 0
SUPERSCRIPT_Y 22
SUPERSCRIPT_SIZE 38
SUBSCRIPT_X 0
SUBSCRIPT_Y 4
SUBSCRIPT_SIZE 38
FIGURE_WIDTH 36
AVG_LOWERCASE_WIDTH 360
AVG_UPPERCASE_WIDTH 360
ENDPROPERTIES
CHARS 932
STARTCHAR space
ENCODING 32
SWIDTH 561 0
DWIDTH 36 0
BBX 1 1 0 0
BITMAP
00
ENDCHAR
STARTCHAR exclam
ENCODING 33
SWIDTH 561 0
DWIDTH 36 0
BBX 8 46 14 -1
BITMAP
7E
FF
FF
FF
FF
FF
FF
FF
FF
FF
FF
FF
FF
FF
FF
FF
FF
FF
FF
FE
7E
7E
7E
7E
7E
7E
7E
7E
7E
7E
7E
3C
00
00
00
00
00
00
18
7E
7E
7E
7E
7E
7E
18
ENDCHAR
STARTCHAR quotedbl
ENCODING 34
SWIDTH 561 0
DWIDTH 36 0
BBX 22 22 7 26
BITMAP
7E01F8
FF03FC
FF03FC
FF03FC
FF03FC
FF03FC
FF03FC
FE03FC
FE01FC
FE01FC
FE01FC
FE01FC
FE01FC
FE01F8
7E01F8
7E01F8
7E01F8
7E01F8
7E01F8
7E01F8
7E01F8
7C00F0
ENDCHAR
STARTCHAR numbersign
ENCODING 35
SWIDTH 561 0
DWIDTH 36 0
BBX 30 45 3 0
BITMAP
03E01F00
07F03F80
07F03F80
07F03F80
07F03F80
07F03F80
07F03F80
07F03F80
07F03F80
07F03F80
07F03F80
07F03F80
07F03F80
FFFFFFFC
FFFFFFFC
FFFFFFFC
FFFFFFFC
FFFFFFFC
FFFFFFFC
07F03F80
07F03F80
07F03F80
07F03F80
07F03F80
07F03F80
07F03F80
07F03F80
FFFFFFFC
FFFFFFFC
FFFFFFFC
FFFFFFFC
FFFFFFFC
FFFFFFFC
07F03F80
07F03F80
07F03F80
07F03F80
07F03F80
07F03F80
07F03F80
07F03F80
07F03F80
07F03F80
07F03F80
03E01F00
ENDCHAR
STARTCHAR dollar
ENCODING 36
SWIDTH 561 0
DWIDTH 36 0
BBX 30 63 3 -12
BITMAP
000FC000
000FC000
000FC000
000FC000
000FC000
000FC000
000FC000
000FC000
000FC000
000FC000
000FC000
000FC000
007FFF80
03FFFFE0
07FFFFE0
1FFFFFE0
3FFFFFE0
3FFFFFE0
7FE001C0
7F800000
FF000000
FE000000
FE000000
FE000000
FE000000
FE000000
7F000000
7FC00000
7FFE0000
3FFFF000
1FFFFE00
07FFFF80
01FFFFC0
003FFFF0
0000FFF0
00000FF8
000003F8
000001FC
000001FC
000001FC
000001FC
000001FC
000003FC
000007F8
00000FF8
7FFFFFF8
7FFFFFF0
FFFFFFE0
FFFFFFC0
FFFFFF00
7FFFF800
003FC000
000FC000
000FC000
000FC000
000FC000
000FC000
000FC000
000FC000
000FC000
000FC000
000FC000
000FC000
ENDCHAR
STARTCHAR percent
ENCODING 37
SWIDTH 561 0
DWIDTH 36 0
BBX 32 39 2 0
BITMAP
3FE00000
7FF00000
7FF00000
7FF00000
7FF0003C
7FF0007E
7FF000FF
7FF001FF
7FF003FE
3FE007FC
00000FF8
00001FF0
00003FE0
00007FC0
0000FF80
0001FF00
0003FE00
0007FC00
000FF800
001FF000
001FE000
003FC000
007F8000
00FF0000
01FE0000
03FE0000
07FC0000
0FF80000
1FF00000
3FE007FC
7FC00FFE
FF800FFE
FF000FFE
7E000FFE
3C000FFE
00000FFE
00000FFE
00000FFE
000007FC
ENDCHAR
STARTCHAR ampersand
ENCODING 38
SWIDTH 561 0
DWIDTH 36 0
BBX 31 46 3 -1
BITMAP
007F0000
01FFC000
07FFF000
0FFFF800
1FFFFC00
1FFFFC00
3FE1FE00
3F80FE00
3F007E00
3F007F00
3F007F00
3F007F00
3F807E00
3F807E00
3FC0FE00
1FC1FE00
1FE1FC00
0FF0F800
07F87000
07FC0000
03FE0000
07FF0000
0FFF8000
1FFFC000
1FFFE000
3FDFF1F0
7F8FFBF8
7F07FBF8
FE03FFF8
FE01FFF0
FE00FFF0
FC007FF0
FC007FE0
FC003FE0
FC001FE0
FC003FE0
FE003FF0
FE007FF0
7F01FFF8
7FFFFFF8
3FFFFFFC
3FFFF9FC
1FFFF0FC
0FFFE0FE
03FF807C
00100000
ENDCHAR
STARTCHAR quotesingle
ENCODING 39
SWIDTH 561 0
DWIDTH 36 0
BBX 8 22 14 26
BITMAP
7E
FF
FF
FF
FF
FF
FF
FF
FF
FF
FF
7E
7E
7E
7E
7E
7E
7E
7E
7E
7E
3C
ENDCHAR
STARTCHAR parenleft
ENCODING 40
SWIDTH 561 0
DWIDTH 36 0
BBX 25 59 5 -12
BITMAP
00001F00
00007F80
0001FF80
0007FF80
001FFF80
003FFF00
007FF800
00FFE000
01FF8000
03FE0000
07FC0000
07F80000
0FF00000
0FE00000
1FE00000
1FC00000
3F800000
3F800000
7F000000
7F000000
7F000000
FE000000
FE000000
FE000000
FE000000
FE000000
FC000000
FC000000
FC000000
FC000000
FC000000
FC000000
FC000000
FE000000
FE000000
FE000000
FE000000
7F000000
7F000000
7F000000
3F800000
3F800000
3FC00000
1FC00000
1FE00000
0FF00000
0FF80000
07FC0000
03FE0000
01FF0000
00FFC000
007FF000
003FFE00
001FFF80
000FFF80
0003FF80
0000FF80
00003F00
00000200
ENDCHAR
STARTCHAR parenright
ENCODING 41
SWIDTH 561 0
DWIDTH 36 0
BBX 26 59 5 -12
BITMAP
7C000000
7F800000
7FE00000
FFF80000
7FFC0000
7FFF0000
07FF8000
01FFC000
007FE000
003FE000
001FF000
0007F800
0007FC00
0003FC00
0001FE00
0000FE00
0000FF00
00007F00
00007F00
00003F80
00003F80
00003F80
00001F80
00001F80
00001FC0
00001FC0
00001FC0
00001FC0
00001FC0
00001FC0
00001FC0
00001FC0
00001FC0
00001FC0
00001FC0
00001F80
00003F80
00003F80
00003F80
00007F00
00007F00
0000FF00
0000FE00
0001FE00
0001FC00
0003FC00
0007F800
000FF000
001FF000
007FE000
00FFC000
03FF8000
3FFF0000
7FFE0000
FFF80000
7FF00000
7FC00000
7F000000
30000000
ENDCHAR
STARTCHAR asterisk
ENCODING 42
SWIDTH 561 0
DWIDTH 36 0
BBX 32 30 2 2
BITMAP
0007E000
0007E000
0007E000
0007E000
0007E000
0007E000
0007E000
0007E000
0007E000
7C07E03E
7F87E1FE
FFF7EFFE
FFFFFFFF
FFFFFFFF
7FFFFFFE
1FFFFFF8
03FFFFC0
007FFE00
007FFE00
00FFFF00
00FFFF00
01FE7F80
03FC3FC0
07FC3FE0
07F81FE0
0FF00FF0
1FE007F0
1FE007F8
0FC003F0
078001E0
ENDCHAR
STARTCHAR plus
ENCODING 43
SWIDTH 561 0
DWIDTH 36 0
BBX 30 32 3 0
BITMAP
000FC000
000FC000
000FC000
000FC000
000FC000
000FC000
000FC000
000FC000
000FC000
000FC000
000FC000
000FC000
000FC000
FFFFFFFC
FFFFFFFC
FFFFFFFC
FFFFFFFC
FFFFFFFC
FFFFFFFC
000FC000
000FC000
000FC000
000FC000
000FC000
000FC000
000FC000
000FC000
000FC000
000FC000
000FC000
000FC000
000FC000
ENDCHAR
STARTCHAR comma
ENCODING 44
SWIDTH 561 0
DWIDTH 36 0
BBX 18 26 5 -16
BITMAP
00FFC0
00FFC0
00FFC0
00FFC0
00FFC0
00FFC0
00FFC0
00FFC0
00FFC0
00FFC0
000FC0
000FC0
000FC0
001FC0
001FC0
001FC0
003FC0
003F80
007F80
03FF80
7FFF00
FFFE00
FFFC00
FFF800
FFE000
7F0000
ENDCHAR
STARTCHAR hyphen
ENCODING 45
SWIDTH 561 0
DWIDTH 36 0
BBX 30 6 3 13
BITMAP
FFFFFFFC
FFFFFFFC
FFFFFFFC
FFFFFFFC
FFFFFFFC
FFFFFFFC
ENDCHAR
STARTCHAR period
ENCODING 46
SWIDTH 561 0
DWIDTH 36 0
BBX 10 10 13 0
BITMAP
FFC0
FFC0
FFC0
FFC0
FFC0
FFC0
FFC0
FFC0
FFC0
FFC0
ENDCHAR
STARTCHAR slash
ENCODING 47
SWIDTH 561 0
DWIDTH 36 0
BBX 32 57 2 -13
BITMAP
00000038
0000003E
0000007F
0000007F
000000FF
000000FE
000001FE
000001FC
000003FC
000003F8
000007F8
000007F0
00000FF0
00000FE0
00001FE0
00001FC0
00003FC0
00003F80
00007F80
00007F00
0000FF00
0000FE00
0001FE00
0001FC00
0003FC00
0003F800
0007F800
0007F000
000FF000
000FE000
001FE000
001FC000
003FC000
003F8000
007F8000
007F0000
00FF0000
00FE0000
01FE0000
01FC0000
03FC0000
03F80000
07F80000
07F00000
0FF00000
0FE00000
1FE00000
1FC00000
3FC00000
3F800000
7F800000
7F000000
FF000000
FE000000
FE000000
7C000000
18000000
ENDCHAR
STARTCHAR zero
ENCODING 48
SWIDTH 561 0
DWIDTH 36 0
BBX 30 47 3 -1
BITMAP
00020000
003FF000
00FFFC00
01FFFE00
03FFFF00
07FFFF80
0FFFFFC0
1FF03FE0
1FE01FE0
3FC00FF0
3F8007F0
3F8007F0
7F0003F8
7F0003F8
7E0007F8
FE000FF8
FE001FFC
FE003FFC
FE007FFC
FE00FFFC
FC01FDFC
FC03F9FC
FC07F0FC
FC0FE0FC
FC1FC0FC
FC3F80FC
FC7F01FC
FEFE01FC
FFFC01FC
FFF801FC
FFF001FC
FFE001F8
7F8001F8
7F0003F8
7F0003F8
3F0007F0
3F8007F0
3FC00FF0
1FE01FE0
1FF03FE0
0FFFFFC0
07FFFF80
03FFFF00
01FFFE00
00FFFC00
003FF000
00030000
ENDCHAR
STARTCHAR one
ENCODING 49
SWIDTH 561 0
DWIDTH 36 0
BBX 26 45 5 0
BITMAP
00078000
0007C000
000FC000
000FC000
001FC000
007FC000
01FFC000
FFFFC000
FFFFC000
FFFFC000
FFFFC000
FFFFC000
FFFFC000
000FC000
000FC000
000FC000
000FC000
000FC000
000FC000
000FC000
000FC000
000FC000
000FC000
000FC000
000FC000
000FC000
000FC000
000FC000
000FC000
000FC000
000FC000
000FC000
000FC000
000FC000
000FC000
000FC000
000FC000
000FC000
000FC000
FFFFFFC0
FFFFFFC0
FFFFFFC0
FFFFFFC0
FFFFFFC0
FFFFFFC0
ENDCHAR
STARTCHAR two
ENCODING 50
SWIDTH 561 0
DWIDTH 36 0
BBX 28 46 5 0
BITMAP
00100000
0FFFC000
7FFFF000
7FFFFC00
FFFFFE00
7FFFFF00
7FFFFF80
3C007F80
00003FC0
00001FC0
00000FC0
00000FE0
00000FE0
00000FE0
00000FE0
00000FC0
00001FC0
00001FC0
00003FC0
00003F80
00007F80
0000FF00
0001FE00
0007FE00
000FFC00
001FF800
003FF000
00FFE000
01FF8000
03FF0000
07FE0000
0FF80000
1FF00000
3FE00000
3FC00000
7F800000
7F000000
FE000000
FE000000
FE000000
FFFFFFE0
FFFFFFF0
FFFFFFF0
FFFFFFF0
FFFFFFF0
FFFFFFE0
ENDCHAR
STARTCHAR three
ENCODING 51
SWIDTH 561 0
DWIDTH 36 0
BBX 25 47 6 -1
BITMAP
00400000
3FFF0000
7FFFE000
FFFFF000
7FFFFC00
7FFFFC00
7FFFFE00
0001FF00
0000FF00
00007F00
00003F00
00003F80
00003F80
00003F80
00003F00
00003F00
00007F00
0000FE00
0001FE00
0007FC00
07FFF800
0FFFF000
0FFFE000
0FFFE000
0FFFF800
07FFFC00
0007FE00
0001FE00
0000FF00
00007F00
00003F80
00003F80
00001F80
00001F80
00001F80
00003F80
00003F80
00003F80
00007F80
0001FF00
7FFFFE00
FFFFFE00
FFFFFC00
FFFFF000
FFFFE000
7FFF0000
00C00000
ENDCHAR
STARTCHAR four
ENCODING 52
SWIDTH 561 0
DWIDTH 36 0
BBX 29 45 4 0
BITMAP
0001F800
0003F800
0003F800
0007F800
0007F000
000FF000
000FE000
001FE000
001FC000
003FC000
003F8000
007F8000
007F0000
00FF0000
00FE0000
01FE0000
01FC0000
03FC0000
03F83E00
07F87E00
07F07F00
0FF07F00
0FE07F00
1FE07F00
1FC07F00
3FC07F00
3F807F00
7F807F00
7F007F00
FF007F00
FFFFFFF0
FFFFFFF0
FFFFFFF8
FFFFFFF8
FFFFFFF0
7FFFFFF0
00007F00
00007F00
00007F00
00007F00
00007F00
00007F00
00007F00
00007E00
00003E00
ENDCHAR
STARTCHAR five
ENCODING 53
SWIDTH 561 0
DWIDTH 36 0
BBX 25 46 6 -1
BITMAP
1FFFFC00
1FFFFE00
1FFFFE00
1FFFFE00
3FFFFE00
3FFFFC00
3F800000
3F800000
3F000000
3F000000
3F000000
3F000000
3F000000
3F000000
3F000000
3F000000
3F000000
7FFF0000
7FFFE000
7FFFF000
7FFFF800
3FFFFC00
1FFFFE00
0003FF00
0000FF00
00007F80
00003F80
00003F80
00003F80
00001F80
00001F80
00001F80
00001F80
00001F80
00003F80
00003F80
00007F80
0000FF00
0001FF00
7FFFFE00
7FFFFE00
FFFFFC00
FFFFF800
FFFFE000
7FFF8000
00E00000
ENDCHAR
STARTCHAR six
ENCODING 54
SWIDTH 561 0
DWIDTH 36 0
BBX 29 47 3 -1
BITMAP
00004000
000FFF00
007FFF80
00FFFF80
01FFFF80
03FFFF00
07FFFF00
0FF80000
1FF00000
1FE00000
3FC00000
3F800000
3F800000
7F000000
7F000000
7F000000
FE000000
FE000000
FE1FE000
FE7FFC00
FFFFFE00
FFFFFF00
FFFFFF80
FFFFFFC0
FFC03FE0
FE001FE0
FC000FF0
FC0007F0
FC0003F0
FE0003F0
FE0003F8
FE0003F8
FE0003F8
FE0003F8
7F0003F0
7F0007F0
7F8007F0
3F800FF0
3FC00FE0
1FE03FE0
1FFFFFC0
0FFFFFC0
07FFFF80
03FFFF00
01FFFC00
007FF000
00030000
ENDCHAR
STARTCHAR seven
ENCODING 55
SWIDTH 561 0
DWIDTH 36 0
BBX 28 45 5 0
BITMAP
FFFFFFE0
FFFFFFF0
FFFFFFF0
FFFFFFF0
FFFFFFF0
FFFFFFF0
FC0007F0
FC0007F0
FC0007F0
FC000FE0
FC000FE0
FC000FE0
FC001FC0
FC001FC0
00003F80
00003F80
00007F00
00007F00
0000FE00
0000FE00
0001FC00
0001FC00
0003F800
0003F800
0007F000
0007F000
000FE000
000FE000
001FC000
001FC000
001F8000
003F8000
003F0000
003F0000
007F0000
007F0000
007E0000
00FE0000
00FE0000
00FE0000
00FE0000
00FE0000
00FE0000
00FC0000
007C0000
ENDCHAR
STARTCHAR eight
ENCODING 56
SWIDTH 561 0
DWIDTH 36 0
BBX 30 47 3 -1
BITMAP
00020000
007FF800
01FFFE00
07FFFF80
0FFFFFC0
1FFFFFE0
1FFFFFE0
3FE01FF0
3F8007F0
3F8007F0
7F0003F8
7F0003F8
7F0003F8
7F0003F0
3F8007F0
3F8007F0
3FC00FE0
1FE01FE0
1FF83FC0
0FFC7F80
07FFFF80
03FFFE00
00FFFC00
007FFC00
01FFFF00
03FFFF80
07F8FFC0
1FF03FE0
1FC01FF0
3F8007F8
7F0003F8
7E0003FC
FE0001FC
FE0001FC
FE0001FC
FE0001FC
FE0001FC
FE0001FC
FF0003FC
7FC00FF8
3FFFFFF8
3FFFFFF0
1FFFFFE0
0FFFFFC0
03FFFF00
00FFFC00
00030000
ENDCHAR
STARTCHAR nine
ENCODING 57
SWIDTH 561 0
DWIDTH 36 0
BBX 29 46 4 -1
BITMAP
003FC000
01FFF800
03FFFE00
07FFFF00
0FFFFF80
1FFFFF80
3FE07FC0
3FC03FE0
7F801FE0
7F000FF0
7F0007F0
7E0007F0
FE0003F0
FE0003F8
FE0003F8
FE0003F8
FE0003F8
7E0003F8
7F0001F8
7F8001F8
3FC003F8
3FE01FF8
1FFFFFF8
1FFFFFF8
0FFFFFF8
03FFFFF8
01FFF3F8
003FC3F8
000003F8
000007F0
000007F0
000007F0
000007F0
00000FE0
00000FE0
00001FE0
00003FC0
00007F80
0000FF80
07FFFF00
07FFFE00
0FFFFC00
0FFFF800
0FFFE000
07FF8000
00100000
ENDCHAR
STARTCHAR colon
ENCODING 58
SWIDTH 561 0
DWIDTH 36 0
BBX 10 32 13 0
BITMAP
FFC0
FFC0
FFC0
FFC0
FFC0
FFC0
FFC0
FFC0
FFC0
FFC0
0000
0000
0000
0000
0000
0000
0000
0000
0000
0000
0000
0000
FFC0
FFC0
FFC0
FFC0
FFC0
FFC0
FFC0
FFC0
FFC0
FFC0
ENDCHAR
STARTCHAR semicolon
ENCODING 59
SWIDTH 561 0
DWIDTH 36 0
BBX 18 48 5 -16
BITMAP
00FFC0
00FFC0
00FFC0
00FFC0
00FFC0
00FFC0
00FFC0
00FFC0
00FFC0
00FFC0
000000
000000
000000
000000
000000
000000
000000
000000
000000
000000
000000
000000
00FFC0
00FFC0
00FFC0
00FFC0
00FFC0
00FFC0
00FFC0
00FFC0
00FFC0
00FFC0
000FC0
000FC0
000FC0
001FC0
001FC0
001FC0
003FC0
003F80
007F80
03FF80
7FFF00
FFFE00
FFFC00
FFF800
FFE000
7F0000
ENDCHAR
STARTCHAR less
ENCODING 60
SWIDTH 561 0
DWIDTH 36 0
BBX 28 41 4 -5
BITMAP
000001C0
000003E0
000007F0
00001FF0
00003FF0
00007FE0
0001FFC0
0003FF00
0007FE00
001FFC00
003FF000
007FE000
01FFC000
03FF0000
07FE0000
1FFC0000
3FF00000
7FE00000
7FC00000
FF000000
FE000000
FF000000
7FC00000
7FE00000
3FF00000
1FFC0000
07FE0000
03FF0000
01FFC000
00FFE000
003FF000
001FFC00
000FFE00
0003FF00
0001FFC0
0000FFE0
00003FF0
00001FF0
00000FF0
000003E0
000001C0
ENDCHAR
STARTCHAR equal
ENCODING 61
SWIDTH 561 0
DWIDTH 36 0
BBX 30 20 3 6
BITMAP
FFFFFFFC
FFFFFFFC
FFFFFFFC
FFFFFFFC
FFFFFFFC
FFFFFFFC
00000000
00000000
00000000
00000000
00000000
00000000
00000000
00000000
FFFFFFFC
FFFFFFFC
FFFFFFFC
FFFFFFFC
FFFFFFFC
FFFFFFFC
ENDCHAR
STARTCHAR greater
ENCODING 62
SWIDTH 561 0
DWIDTH 36 0
BBX 28 41 4 -5
BITMAP
38000000
7C000000
FE000000
FF800000
FFC00000
7FE00000
3FF80000
0FFC0000
07FE0000
03FF8000
00FFC000
007FE000
003FF800
000FFC00
0007FE00
0003FF80
0000FFC0
00007FE0
00003FE0
00001FF0
000007F0
00000FF0
00003FE0
00007FE0
0000FFC0
0003FF80
0007FE00
000FFC00
003FF800
007FE000
00FFC000
03FF8000
07FE0000
0FFC0000
3FF80000
7FE00000
FFC00000
FF800000
FE000000
7C000000
38000000
ENDCHAR
STARTCHAR question
ENCODING 63
SWIDTH 561 0
DWIDTH 36 0
BBX 29 45 3 0
BITMAP
7FE00000
7FFF0000
FFFFE000
FFFFF800
7FFFFE00
7FFFFF00
003FFF80
0001FFC0
00003FE0
00001FF0
000007F0
000003F8
000003F8
000003F8
000003F8
000003F8
000007F8
00000FF0
00007FF0
01FFFFE0
03FFFFC0
03FFFF80
03FFFE00
03FFF800
03FFC000
03F80000
03F80000
03F80000
03F80000
03F80000
03F80000
01F80000
00E00000
00000000
00000000
00000000
00000000
00000000
01F00000
03F80000
03F80000
03F80000
03F80000
03F80000
01F00000
ENDCHAR
STARTCHAR at
ENCODING 64
SWIDTH 561 0
DWIDTH 36 0
BBX 30 56 3 -10
BITMAP
00020000
00FFFC00
03FFFF00
07FFFF80
0FFFFFC0
1FFFFFE0
3FFFFFF0
7FC00FF0
7F8007F8
7F0003F8
FE0001FC
FE0001FC
FE0001FC
FC0000FC
FC0000FC
FC0000FC
FC000FFC
FC003FFC
FC007FFC
FC00FFFC
FC01FFFC
FC01FFFC
FC03FFFC
FC03FFFC
FC03FFFC
FC03FFFC
FC03FFFC
FC03FFFC
FC03FFFC
FC03FFFC
FC03FFFC
FC03FFFC
FC03FFFC
FC03FFFC
FC01FFFC
FC01FFFC
FC01FFFC
FC00FFFC
FC007FFC
FC003FFC
FC0007FC
FC000000
FC000000
FC000000
FE000000
FE000000
FF000000
7F000000
7FC00000
3FF01E00
3FFFFF00
1FFFFF00
0FFFFF00
07FFFF00
01FFFE00
003FF000
ENDCHAR
STARTCHAR A
ENCODING 65
SWIDTH 561 0
DWIDTH 36 0
BBX 36 46 0 0
BITMAP
0000400000
0003FC0000
000FFF0000
001FFF8000
001FFF8000
003FFFC000
003FFFC000
007F0FC000
007F0FE000
007F0FE000
007E07E000
00FE07E000
00FE07F000
00FE07F000
00FC03F000
01FC03F800
01FC03F800
01FC03F800
01F801F800
03F801FC00
03F801FC00
03F801FC00
03F000FC00
07F000FE00
07F000FE00
07F000FE00
07FFFFFE00
0FFFFFFF00
0FFFFFFF00
0FFFFFFF00
0FFFFFFF00
1FFFFFFF80
1FC0003F80
1FC0003F80
1F80001F80
3F80001FC0
3F80001FC0
3F80001FC0
3F00000FC0
7F00000FE0
7F00000FE0
7F00000FE0
7E000007E0
FE000007F0
FE000007F0
7C000003E0
ENDCHAR
STARTCHAR B
ENCODING 66
SWIDTH 561 0
DWIDTH 36 0
BBX 31 45 2 0
BITMAP
FFFFC000
FFFFF800
FFFFFE00
FFFFFF00
FFFFFF80
FFFFFFC0
0FC07FE0
0FC01FE0
0FC00FF0
0FC007F0
0FC003F0
0FC003F0
0FC003F0
0FC003F0
0FC003F0
0FC007F0
0FC007E0
0FC01FE0
0FC07FC0
0FFFFF80
0FFFFF00
0FFFFE00
0FFFFF80
0FFFFFC0
0FFFFFE0
0FC01FF0
0FC007F8
0FC003FC
0FC001FC
0FC000FC
0FC000FE
0FC0007E
0FC0007E
0FC000FE
0FC000FC
0FC001FC
0FC003FC
0FC007F8
0FC03FF8
0FFFFFF0
0FFFFFE0
0FFFFFC0
0FFFFF80
0FFFFE00
0FFFE000
ENDCHAR
STARTCHAR C
ENCODING 67
SWIDTH 561 0
DWIDTH 36 0
BBX 26 47 5 -1
BITMAP
00008000
003FFE00
00FFFF80
03FFFFC0
07FFFFC0
0FFFFFC0
0FFFFFC0
1FF00380
3FC00000
3F800000
7F800000
7F000000
7F000000
FE000000
FE000000
FE000000
FE000000
FC000000
FC000000
FC000000
FC000000
FC000000
FC000000
FC000000
FC000000
FC000000
FC000000
FC000000
FC000000
FC000000
FE000000
FE000000
FE000000
FE000000
7F000000
7F000000
7F800000
3F800000
3FC00000
1FF00380
0FFFFFC0
0FFFFFC0
07FFFFC0
03FFFFC0
00FFFF80
003FFE00
00008000
ENDCHAR
STARTCHAR D
ENCODING 68
SWIDTH 561 0
DWIDTH 36 0
BBX 31 45 2 0
BITMAP
7FFE0000
FFFFE000
FFFFFC00
FFFFFF00
FFFFFF80
FFFFFFC0
0FC1FFE0
0FC03FF0
0FC00FF0
0FC007F8
0FC003F8
0FC003FC
0FC001FC
0FC001FC
0FC000FC
0FC000FE
0FC000FE
0FC000FE
0FC000FE
0FC000FE
0FC000FE
0FC000FE
0FC000FE
0FC000FE
0FC000FE
0FC000FE
0FC000FE
0FC000FE
0FC000FE
0FC000FE
0FC000FC
0FC001FC
0FC001FC
0FC001FC
0FC003F8
0FC007F8
0FC00FF8
0FC03FF0
0FC1FFE0
0FFFFFE0
0FFFFFC0
0FFFFF00
0FFFFE00
0FFFF000
07FF0000
ENDCHAR
STARTCHAR E
ENCODING 69
SWIDTH 561 0
DWIDTH 36 0
BBX 28 45 5 0
BITMAP
FFFFFFC0
FFFFFFC0
FFFFFFE0
FFFFFFE0
FFFFFFC0
FFFFFFC0
FC000000
FC000000
FC000000
FC000000
FC000000
FC000000
FC000000
FC000000
FC000000
FC000000
FC000000
FC000000
FC000000
FFFFFF00
FFFFFF80
FFFFFF80
FFFFFF80
FFFFFF80
FFFFFF00
FC000000
FC000000
FC000000
FC000000
FC000000
FC000000
FC000000
FC000000
FC000000
FC000000
FC000000
FC000000
FC000000
FC000000
FFFFFFE0
FFFFFFF0
FFFFFFF0
FFFFFFF0
FFFFFFF0
FFFFFFE0
ENDCHAR
STARTCHAR F
ENCODING 70
SWIDTH 561 0
DWIDTH 36 0
BBX 28 45 5 0
BITMAP
FFFFFFE0
FFFFFFF0
FFFFFFF0
FFFFFFF0
FFFFFFF0
FFFFFFE0
FC000000
FC000000
FC000000
FC000000
FC000000
FC000000
FC000000
FC000000
FC000000
FC000000
FC000000
FC000000
FC000000
FC000000
FC000000
FFFFFFC0
FFFFFFC0
FFFFFFE0
FFFFFFE0
FFFFFFC0
FFFFFFC0
FC000000
FC000000
FC000000
FC000000
FC000000
FC000000
FC000000
FC000000
FC000000
FC000000
FC000000
FC000000
FC000000
FC000000
FC000000
FC000000
FC000000
FC000000
ENDCHAR
STARTCHAR G
ENCODING 71
SWIDTH 561 0
DWIDTH 36 0
BBX 27 47 5 -1
BITMAP
00008000
003FFE00
00FFFF80
03FFFFC0
07FFFFC0
0FFFFFC0
0FFFFFC0
1FF00380
3FC00000
3F800000
7F800000
7F000000
7F000000
FE000000
FE000000
FE000000
FE000000
FC000000
FC000000
FC000000
FC01FFC0
FC03FFE0
FC03FFE0
FC03FFE0
FC03FFE0
FC01FFE0
FC000FE0
FC000FE0
FC000FE0
FC000FE0
FE000FE0
FE000FE0
FE000FE0
FE000FE0
7F000FE0
7F000FE0
7F800FE0
3F800FE0
3FC00FE0
1FF00FE0
0FFFFFE0
0FFFFFE0
07FFFFE0
03FFFFE0
00FFFF80
003FFE00
00008000
ENDCHAR
STARTCHAR H
ENCODING 72
SWIDTH 561 0
DWIDTH 36 0
BBX 28 45 4 0
BITMAP
F80003F0
FC0003F0
FC0003F0
FC0003F0
FC0003F0
FC0003F0
FC0003F0
FC0003F0
FC0003F0
FC0003F0
FC0003F0
FC0003F0
FC0003F0
FC0003F0
FC0003F0
FC0003F0
FC0003F0
FC0003F0
FFFFFFF0
FFFFFFF0
FFFFFFF0
FFFFFFF0
FFFFFFF0
FFFFFFF0
FC0003F0
FC0003F0
FC0003F0
FC0003F0
FC0003F0
FC0003F0
FC0003F0
FC0003F0
FC0003F0
FC0003F0
FC0003F0
FC0003F0
FC0003F0
FC0003F0
FC0003F0
FC0003F0
FC0003F0
FC0003F0
FC0003F0
FC0003F0
F80001F0
ENDCHAR
STARTCHAR I
ENCODING 73
SWIDTH 561 0
DWIDTH 36 0
BBX 26 45 5 0
BITMAP
7FFFFF80
FFFFFFC0
FFFFFFC0
FFFFFFC0
FFFFFFC0
7FFFFF80
003F0000
003F0000
003F0000
003F0000
003F0000
003F0000
003F0000
003F0000
003F0000
003F0000
003F0000
003F0000
003F0000
003F0000
003F0000
003F0000
003F0000
003F0000
003F0000
003F0000
003F0000
003F0000
003F0000
003F0000
003F0000
003F0000
003F0000
003F0000
003F0000
003F0000
003F0000
003F0000
003F0000
FFFFFFC0
FFFFFFC0
FFFFFFC0
FFFFFFC0
FFFFFFC0
FFFFFFC0
ENDCHAR
STARTCHAR J
ENCODING 74
SWIDTH 561 0
DWIDTH 36 0
BBX 27 46 4 -1
BITMAP
03FFFFC0
07FFFFE0
07FFFFE0
07FFFFE0
07FFFFE0
03FFFFE0
000007E0
000007E0
000007E0
000007E0
000007E0
000007E0
000007E0
000007E0
000007E0
000007E0
000007E0
000007E0
000007E0
000007E0
000007E0
000007E0
000007E0
000007E0
000007E0
000007E0
000007E0
000007E0
000007E0
000007E0
00000FE0
00000FE0
00000FE0
00000FE0
00000FC0
00001FC0
00003FC0
00007F80
3800FF80
7FFFFF00
7FFFFE00
FFFFFC00
7FFFF800
3FFFF000
0FFFC000
00300000
ENDCHAR
STARTCHAR K
ENCODING 75
SWIDTH 561 0
DWIDTH 36 0
BBX 28 45 5 0
BITMAP
FC000FE0
FC001FE0
FC003FE0
FC003FC0
FC007F80
FC00FF80
FC00FF00
FC01FE00
FC03FC00
FC07FC00
FC07F800
FC0FF000
FC1FE000
FC3FE000
FC3FC000
FC7F8000
FCFF0000
FCFF0000
FDFE0000
FFFC0000
FFF80000
FFF00000
FFF00000
FFF80000
FFFC0000
FDFE0000
FCFF0000
FC7F0000
FC7F8000
FC3FC000
FC1FE000
FC1FE000
FC0FF000
FC07F800
FC03FC00
FC03FC00
FC01FE00
FC00FF00
FC00FF80
FC007F80
FC003FC0
FC001FE0
FC001FF0
FC000FF0
FC0007E0
ENDCHAR
STARTCHAR L
ENCODING 76
SWIDTH 561 0
DWIDTH 36 0
BBX 30 45 5 0
BITMAP
FC000000
FC000000
FC000000
FC000000
FC000000
FC000000
FC000000
FC000000
FC000000
FC000000
FC000000
FC000000
FC000000
FC000000
FC000000
FC000000
FC000000
FC000000
FC000000
FC000000
FC000000
FC000000
FC000000
FC000000
FC000000
FC000000
FC000000
FC000000
FC000000
FC000000
FC000000
FC000000
FC000000
FC000000
FC000000
FC000000
FC000000
FC000000
FC000000
FFFFFFFC
FFFFFFFC
FFFFFFFC
FFFFFFFC
FFFFFFFC
FFFFFFF8
ENDCHAR
STARTCHAR M
ENCODING 77
SWIDTH 561 0
DWIDTH 36 0
BBX 34 45 1 0
BITMAP
3E00001F00
3F00003F00
3F80007F00
3FC000FF00
7FC000FF80
7FE001FF80
7FE001FF80
7FF003FF80
7FF003FF80
7FF807FF80
7FF807FF80
7FFC0FFF80
7FFC0FFF80
7F7E1FBF80
7F7E1FBF80
7F3F3F3F80
7F3F3F3F80
7F1FFE3F80
7F1FFE3F80
7F0FFC3F80
7F0FFC3F80
7F07F83F80
7F07F83F80
7F03F03F80
7F00C01F80
7E00001F80
7E00001F80
7E00001F80
7E00001F80
7E00001F80
7E00001F80
7E00001F80
7E00001F80
7E00001F80
7E00001F80
7E00001F80
FE00001F80
FE00001FC0
FE00001FC0
FE00001FC0
FE00001FC0
FE00001FC0
FE00001FC0
FE00001FC0
7C00000F80
ENDCHAR
STARTCHAR N
ENCODING 78
SWIDTH 561 0
DWIDTH 36 0
BBX 28 45 4 0
BITMAP
F80003E0
FE0003F0
FE0003F0
FF0003F0
FF0003F0
FF8003F0
FF8003F0
FFC003F0
FFC003F0
FFE003F0
FFE003F0
FFF003F0
FFF003F0
FFF003F0
FDF803F0
FDF803F0
FCFC03F0
FCFC03F0
FC7E03F0
FC7E03F0
FC3F03F0
FC3F03F0
FC1F83F0
FC1F83F0
FC0FC3F0
FC0FC3F0
FC07E3F0
FC07E3F0
FC03F3F0
FC03F3F0
FC01FBF0
FC01FBF0
FC00FFF0
FC00FFF0
FC007FF0
FC007FF0
FC003FF0
FC003FF0
FC001FF0
FC001FF0
FC000FF0
FC000FF0
FC0007F0
FC0007F0
FC0001F0
ENDCHAR
STARTCHAR O
ENCODING 79
SWIDTH 561 0
DWIDTH 36 0
BBX 26 47 5 -1
BITMAP
00080000
01FFE000
03FFF000
0FFFFC00
1FFFFE00
1FFFFE00
3FFFFF00
3F80FF00
7F003F80
7F003F80
FE001FC0
FE001FC0
FE001FC0
FC001FC0
FC000FC0
FC000FC0
FC000FC0
FC000FC0
FC000FC0
FC000FC0
FC000FC0
FC000FC0
FC000FC0
FC000FC0
FC000FC0
FC000FC0
FC000FC0
FC000FC0
FC000FC0
FC000FC0
FC000FC0
FC000FC0
FC000FC0
FC001FC0
FE001FC0
FE001FC0
FE001F80
7F003F80
7F003F80
7FC0FF00
3FFFFF00
1FFFFE00
1FFFFE00
0FFFFC00
03FFF000
01FFC000
000C0000
ENDCHAR
STARTCHAR P
ENCODING 80
SWIDTH 561 0
DWIDTH 36 0
BBX 28 45 5 0
BITMAP
FFFF0000
FFFFE000
FFFFF800
FFFFFC00
FFFFFF00
FFFFFF80
FC03FF80
FC007FC0
FC001FE0
FC000FE0
FC000FE0
FC0007F0
FC0007F0
FC0007F0
FC0007F0
FC0007F0
FC0007F0
FC0007F0
FC000FE0
FC000FE0
FC001FE0
FC007FC0
FC03FFC0
FFFFFF80
FFFFFF00
FFFFFC00
FFFFF800
FFFFE000
FFFE0000
FC000000
FC000000
FC000000
FC000000
FC000000
FC000000
FC000000
FC000000
FC000000
FC000000
FC000000
FC000000
FC000000
FC000000
FC000000
FC000000
ENDCHAR
STARTCHAR Q
ENCODING 81
SWIDTH 561 0
DWIDTH 36 0
BBX 30 60 5 -14
BITMAP
00080000
00FFE000
03FFF000
0FFFFC00
1FFFFE00
1FFFFE00
3FFFFF00
3F80FF00
7F007F80
7F003F80
FE001F80
FE001FC0
FE001FC0
FC001FC0
FC000FC0
FC000FC0
FC000FC0
FC000FC0
FC000FC0
FC000FC0
FC000FC0
FC000FC0
FC000FC0
FC000FC0
FC000FC0
FC000FC0
FC000FC0
FC000FC0
FC000FC0
FC000FC0
FC000FC0
FC000FC0
FC000FC0
FC001FC0
FE001FC0
FE001FC0
FE001FC0
7F003F80
7F003F80
7F807F80
3FE1FF00
3FFFFF00
1FFFFE00
0FFFFC00
07FFF800
03FFE000
007F8000
003F0000
003F0000
003F8000
003F8000
003F8000
001FC000
001FE070
001FFFF8
000FFFFC
0007FFFC
0003FFFC
0001FFF8
00003FC0
ENDCHAR
STARTCHAR R
ENCODING 82
SWIDTH 561 0
DWIDTH 36 0
BBX 30 45 5 0
BITMAP
FFFF8000
FFFFF000
FFFFF800
FFFFFE00
FFFFFF00
FFFFFF80
FC01FF80
FC007FC0
FC003FC0
FC001FC0
FC000FE0
FC000FE0
FC000FE0
FC000FE0
FC000FE0
FC000FE0
FC001FC0
FC003FC0
FC007FC0
FC01FF80
FFFFFF80
FFFFFF00
FFFFFE00
FFFFFC00
FFFFF800
FFFFF800
FC01FC00
FC01FC00
FC00FE00
FC00FE00
FC007F00
FC007F00
FC003F80
FC003F80
FC001FC0
FC001FE0
FC000FE0
FC000FF0
FC0007F0
FC0007F8
FC0003F8
FC0003FC
FC0001FC
FC0001FC
FC0000FC
ENDCHAR
STARTCHAR S
ENCODING 83
SWIDTH 561 0
DWIDTH 36 0
BBX 29 47 4 -1
BITMAP
00010000
007FFE00
01FFFF80
07FFFFC0
0FFFFFC0
1FFFFFC0
3FFFFF80
3FE00780
7F800000
7F000000
7F000000
7E000000
FE000000
FE000000
7E000000
7F000000
7F800000
7FC00000
3FE00000
3FFC0000
1FFFC000
0FFFF000
07FFFC00
01FFFF00
00FFFF80
001FFFC0
0001FFE0
00003FE0
00001FF0
00000FF0
000007F0
000003F8
000003F8
000003F8
000003F8
000003F8
000007F0
000007F0
00001FE0
38007FE0
7FFFFFC0
7FFFFF80
7FFFFF00
7FFFFE00
3FFFF800
0FFFE000
00180000
ENDCHAR
STARTCHAR T
ENCODING 84
SWIDTH 561 0
DWIDTH 36 0
BBX 34 45 1 0
BITMAP
FFFFFFFFC0
FFFFFFFFC0
FFFFFFFFC0
FFFFFFFFC0
FFFFFFFFC0
FFFFFFFFC0
0003F00000
0003F00000
0003F00000
0003F00000
0003F00000
0003F00000
0003F00000
0003F00000
0003F00000
0003F00000
0003F00000
0003F00000
0003F00000
0003F00000
0003F00000
0003F00000
0003F00000
0003F00000
0003F00000
0003F00000
0003F00000
0003F00000
0003F00000
0003F00000
0003F00000
0003F00000
0003F00000
0003F00000
0003F00000
0003F00000
0003F00000
0003F00000
0003F00000
0003F00000
0003F00000
0003F00000
0003F00000
0003F00000
0003F00000
ENDCHAR
STARTCHAR U
ENCODING 85
SWIDTH 561 0
DWIDTH 36 0
BBX 26 46 5 -1
BITMAP
FC000FC0
FC000FC0
FC000FC0
FC000FC0
FC000FC0
FC000FC0
FC000FC0
FC000FC0
FC000FC0
FC000FC0
FC000FC0
FC000FC0
FC000FC0
FC000FC0
FC000FC0
FC000FC0
FC000FC0
FC000FC0
FC000FC0
FC000FC0
FC000FC0
FC000FC0
FC000FC0
FC000FC0
FC000FC0
FC000FC0
FC000FC0
FC000FC0
FC000FC0
FC000FC0
FC000FC0
FC000FC0
FC000FC0
FC000FC0
FE001FC0
FE001FC0
FE001FC0
7F003F80
7F807F80
7FFFFF80
3FFFFF00
1FFFFE00
0FFFFC00
07FFF800
01FFE000
000C0000
ENDCHAR
STARTCHAR V
ENCODING 86
SWIDTH 561 0
DWIDTH 36 0
BBX 36 46 0 -1
BITMAP
7C000003E0
FE000007E0
FE000007F0
7E00000FE0
7F00000FE0
7F00000FE0
7F00000FE0
3F00001FC0
3F80001FC0
3F80001FC0
3F80001FC0
1F80003F80
1FC0003F80
1FC0003F80
1FC0003F80
0FC0007F00
0FE0007F00
0FE0007F00
0FE0007F00
07E000FE00
07F000FE00
07F000FE00
07F000FE00
03F001FC00
03F801FC00
03F801FC00
03F801FC00
01F803F800
01FC03F800
01FC03F800
01FC03F800
00FC07F000
00FE07F000
00FE07F000
00FE07F000
007E0FE000
007F0FE000
007F0FE000
007F0FE000
003FFFC000
003FFFC000
003FFF8000
001FFF8000
000FFF0000
0003FC0000
0000600000
ENDCHAR
STARTCHAR W
ENCODING 87
SWIDTH 561 0
DWIDTH 36 0
BBX 34 45 1 0
BITMAP
7C00000F80
FE00001FC0
FE00001FC0
FE00001FC0
FE00001FC0
FE00001FC0
FE00001FC0
FE00001F80
FE00001F80
FE00001F80
7E00001F80
7E00001F80
7E00001F80
7E00001F80
7E00001F80
7E00001F80
7E00001F80
7E00001F80
7E00003F80
7E00003F80
7E00C03F80
7E03F03F80
7E07F03F80
7F07F83F80
7F0FF83F80
7F0FFC3F80
7F1FFC3F80
7F1FFE3F80
7F3F3E3F80
7F3F3F3F80
7F7E1F3F80
7F7E1FBF80
7FFC0FBF80
7FFC0FFF80
7FF807FF80
7FF807FF80
7FF003FF80
7FF003FF80
7FE001FF80
7FE001FF00
7FC000FF00
7FC000FF00
7F80007F00
3F00007F00
3E00001F00
ENDCHAR
STARTCHAR X
ENCODING 88
SWIDTH 561 0
DWIDTH 36 0
BBX 32 45 2 0
BITMAP
7C00003E
FC00003F
FE00007F
7E00007E
7F0000FE
3F0000FC
3F8001FC
1F8001F8
1FC003F8
0FC003F0
0FE007F0
07E007E0
07F00FE0
07F00FE0
03F81FC0
03F81FC0
01FC3F80
01FC3F80
00FE7F00
00FE7F00
007FFE00
007FFE00
003FFC00
007FFE00
007FFE00
00FE7F00
00FE7F00
01FC3F80
01FC3F80
03F81FC0
03F81FC0
07F00FE0
07F00FE0
0FE007F0
0FE007F0
1FC003F8
1FC003F8
3F8001FC
3F8001FC
7F0000FE
7F0000FE
FE00007F
FE00007F
FC00003F
F800001F
ENDCHAR
STARTCHAR Y
ENCODING 89
SWIDTH 561 0
DWIDTH 36 0
BBX 34 45 1 0
BITMAP
FC00000FC0
FC00000FC0
FE00001FC0
FE00001FC0
7F00003F80
7F00003F80
3F80007F00
3F80007F00
1FC000FE00
1FC000FE00
0FE001FC00
0FE001FC00
07F003F800
07F003F800
03F807F000
03F807F000
01FC0FE000
01FC0FE000
00FE1FC000
00FF3FC000
007FFF8000
007FFF8000
003FFF0000
001FFE0000
000FFC0000
0003F00000
0003F00000
0003F00000
0003F00000
0003F00000
0003F00000
0003F00000
0003F00000
0003F00000
0003F00000
0003F00000
0003F00000
0003F00000
0003F00000
0003F00000
0003F00000
0003F00000
0003F00000
0003F00000
0003E00000
ENDCHAR
STARTCHAR Z
ENCODING 90
SWIDTH 561 0
DWIDTH 36 0
BBX 30 45 3 0
BITMAP
1FFFFFF8
3FFFFFF8
3FFFFFFC
3FFFFFFC
3FFFFFF8
1FFFFFF8
000001F8
000001F8
000003F8
000003F8
000003F0
000007F0
00000FE0
00001FE0
00003FC0
00007F80
0000FF00
0001FE00
0003FC00
0007F800
000FF000
001FE000
003FC000
007F8000
00FF0000
01FE0000
03FC0000
07F80000
0FF00000
0FE00000
1FC00000
3F800000
3F800000
3F000000
7F000000
7F000000
7E000000
7E000000
7E000000
FFFFFFF8
FFFFFFF8
FFFFFFFC
FFFFFFFC
7FFFFFF8
7FFFFFF8
ENDCHAR
STARTCHAR bracketleft
ENCODING 91
SWIDTH 561 0
DWIDTH 36 0
BBX 23 59 9 -11
BITMAP
7FFFFC
FFFFFC
FFFFFE
FFFFFE
FFFFFC
FFFFFC
FC0000
FC0000
FC0000
FC0000
FC0000
FC0000
FC0000
FC0000
FC0000
FC0000
FC0000
FC0000
FC0000
FC0000
FC0000
FC0000
FC0000
FC0000
FC0000
FC0000
FC0000
FC0000
FC0000
FC0000
FC0000
FC0000
FC0000
FC0000
FC0000
FC0000
FC0000
FC0000
FC0000
FC0000
FC0000
FC0000
FC0000
FC0000
FC0000
FC0000
FC0000
FC0000
FC0000
FC0000
FC0000
FC0000
FC0000
FFFFFC
FFFFFC
FFFFFE
FFFFFE
FFFFFC
FFFFFC
ENDCHAR
STARTCHAR backslash
ENCODING 92
SWIDTH 561 0
DWIDTH 36 0
BBX 32 57 2 -12
BITMAP
1C000000
7C000000
FE000000
FE000000
FF000000
7F000000
7F800000
3F800000
3FC00000
1FC00000
1FE00000
0FE00000
0FF00000
07F00000
07F80000
03F80000
03FC0000
01FC0000
01FE0000
00FE0000
00FF0000
007F0000
007F8000
003F8000
003FC000
001FC000
001FE000
000FE000
000FF000
0007F000
0007F800
0003F800
0003FC00
0001FC00
0001FE00
0000FE00
0000FF00
00007F00
00007F80
00003F80
00003FC0
00001FC0
00001FE0
00000FE0
00000FF0
000007F0
000007F8
000003F8
000003FC
000001FC
000001FE
000000FE
000000FF
0000007F
0000007F
0000003E
00000018
ENDCHAR
STARTCHAR bracketright
ENCODING 93
SWIDTH 561 0
DWIDTH 36 0
BBX 23 59 4 -11
BITMAP
7FFFFC
FFFFFE
FFFFFE
FFFFFE
FFFFFE
7FFFFE
00007E
00007E
00007E
00007E
00007E
00007E
00007E
00007E
00007E
00007E
00007E
00007E
00007E
00007E
00007E
00007E
00007E
00007E
00007E
00007E
00007E
00007E
00007E
00007E
00007E
00007E
00007E
00007E
00007E
00007E
00007E
00007E
00007E
00007E
00007E
00007E
00007E
00007E
00007E
00007E
00007E
00007E
00007E
00007E
00007E
00007E
00007E
7FFFFE
FFFFFE
FFFFFE
FFFFFE
FFFFFE
7FFFFC
ENDCHAR
STARTCHAR asciicircum
ENCODING 94
SWIDTH 561 0
DWIDTH 36 0
BBX 34 19 1 27
BITMAP
0001E00000
0007F80000
000FFC0000
001FFE0000
003FFF0000
007FFF8000
00FF7FC000
01FE3FE000
03FE1FF000
07FC0FF800
0FF807FC00
1FF003FE00
3FE001FF00
7FC000FF80
FF80007FC0
FF00003FC0
FE00001FC0
7C00000F80
3800000700
ENDCHAR
STARTCHAR underscore
ENCODING 95
SWIDTH 561 0
DWIDTH 36 0
BBX 30 6 3 -6
BITMAP
FFFFFFFC
FFFFFFFC
FFFFFFFC
FFFFFFFC
FFFFFFFC
FFFFFFFC
ENDCHAR
STARTCHAR grave
ENCODING 96
SWIDTH 561 0
DWIDTH 36 0
BBX 18 11 7 35
BITMAP
100000
3C0000
7F0000
7FC000
FFF000
FFFC00
3FFF00
07FFC0
00FFC0
001FC0
000380
ENDCHAR
STARTCHAR a
ENCODING 97
SWIDTH 561 0
DWIDTH 36 0
BBX 26 34 4 -1
BITMAP
00040000
0FFFF000
0FFFFC00
1FFFFE00
0FFFFF00
0FFFFF00
0FFFFF80
00007F80
00003FC0
00001FC0
00001FC0
00001FC0
00001FC0
00001FC0
007FFFC0
07FFFFC0
0FFFFFC0
1FFFFFC0
3FFFFFC0
7FFFFFC0
7FC01FC0
FF001FC0
FE001FC0
FE001FC0
FE001FC0
FE001FC0
7F801FC0
7FFFFFC0
7FFFFFC0
3FFFFFC0
1FFFFFC0
0FFFFFC0
01FFFF80
00060000
ENDCHAR
STARTCHAR b
ENCODING 98
SWIDTH 561 0
DWIDTH 36 0
BBX 26 49 5 -1
BITMAP
F8000000
FC000000
FC000000
FC000000
FC000000
FC000000
FC000000
FC000000
FC000000
FC000000
FC000000
FC000000
FC000000
FC000000
FC000000
FC200000
FFFF8000
FFFFE000
FFFFF000
FFFFFC00
FFFFFE00
FFFFFE00
FC01FF00
FC00FF80
FC007F80
FC003F80
FC001FC0
FC001FC0
FC001FC0
FC001FC0
FC000FC0
FC000FC0
FC000FC0
FC000FC0
FC001FC0
FC001FC0
FC001FC0
FC001FC0
FC003F80
FC003F80
FC007F80
FC01FF00
FFFFFE00
FFFFFE00
FFFFFC00
FFFFF800
7FFFE000
1FFF8000
00700000
ENDCHAR
STARTCHAR c
ENCODING 99
SWIDTH 561 0
DWIDTH 36 0
BBX 26 34 5 -1
BITMAP
00010000
007FFE00
01FFFF80
07FFFFC0
0FFFFFC0
1FFFFFC0
1FFFFFC0
3FE00380
7F800000
7F000000
7F000000
FE000000
FE000000
FE000000
FC000000
FC000000
FC000000
FC000000
FC000000
FC000000
FE000000
FE000000
FE000000
7F000000
7F000000
7F800000
3FE00380
1FFFFFC0
1FFFFFC0
0FFFFFC0
07FFFFC0
01FFFF80
007FFE00
00018000
ENDCHAR
STARTCHAR d
ENCODING 100
SWIDTH 561 0
DWIDTH 36 0
BBX 26 49 5 -1
BITMAP
00000F80
00000FC0
00000FC0
00000FC0
00000FC0
00000FC0
00000FC0
00000FC0
00000FC0
00000FC0
00000FC0
00000FC0
00000FC0
00000FC0
00000FC0
00010FC0
007FFFC0
01FFFFC0
07FFFFC0
0FFFFFC0
1FFFFFC0
1FFFFFC0
3FE00FC0
7FC00FC0
7F000FC0
7F000FC0
FE000FC0
FE000FC0
FE000FC0
FC000FC0
FC000FC0
FC000FC0
FC000FC0
FC000FC0
FC000FC0
FE000FC0
FE000FC0
FE000FC0
7F000FC0
7F000FC0
7F800FC0
3FE00FC0
1FFFFFC0
1FFFFFC0
0FFFFFC0
07FFFFC0
01FFFF80
007FFE00
00018000
ENDCHAR
STARTCHAR e
ENCODING 101
SWIDTH 561 0
DWIDTH 36 0
BBX 27 34 5 -1
BITMAP
00040000
00FFC000
03FFF000
07FFFC00
0FFFFE00
1FFFFE00
3FFFFF00
3FC07F80
7F803F80
7F001F80
7E001FC0
FE000FC0
FFFFFFC0
FFFFFFC0
FFFFFFC0
FFFFFFC0
FFFFFFC0
FFFFFFC0
FC000000
FC000000
FE000000
FE000000
FE000000
7F000000
7F000000
7F800000
3FE00780
3FFFFFC0
1FFFFFC0
0FFFFFE0
07FFFFC0
01FFFF80
007FFC00
00018000
ENDCHAR
STARTCHAR f
ENCODING 102
SWIDTH 561 0
DWIDTH 36 0
BBX 28 49 4 0
BITMAP
0000FF00
0003FFE0
000FFFF0
001FFFF0
003FFFE0
003FFFE0
007F81C0
007F0000
00FE0000
00FE0000
00FE0000
00FC0000
00FC0000
00FC0000
00FC0000
00FC0000
00FC0000
7FFFFF80
FFFFFFC0
FFFFFFC0
FFFFFFC0
FFFFFFC0
7FFFFF80
00FC0000
00FC0000
00FC0000
00FC0000
00FC0000
00FC0000
00FC0000
00FC0000
00FC0000
00FC0000
00FC0000
00FC0000
00FC0000
00FC0000
00FC0000
00FC0000
00FC0000
00FC0000
00FC0000
00FC0000
00FC0000
00FC0000
00FC0000
00FC0000
00FC0000
00F80000
ENDCHAR
STARTCHAR g
ENCODING 103
SWIDTH 561 0
DWIDTH 36 0
BBX 34 49 3 -16
BITMAP
0002000000
007FFFFC00
01FFFFFE00
03FFFFFE00
07FFFFFE00
0FFFFFFE00
1FFFFFF800
1FE01FE000
3FC00FF000
3F8007F000
3F8007F000
3F0003F000
3F0003F000
3F8007F000
3F8007F000
3F8007F000
1FC00FE000
1FF03FE000
0FFFFFC000
0FFFFFC000
07FFFF8000
07FFFE0000
0FFFFC0000
1FDFE00000
3F80000000
3F00000000
3F80000000
3FFFE00000
3FFFFF8000
3FFFFFF000
1FFFFFFC00
0FFFFFFE00
3FFFFFFF00
3F81FFFF80
7E0000FF80
FC00003F80
FC00001F80
FC00001FC0
FC00001FC0
FC00003F80
FE00003F80
FF0000FF80
FFE007FF00
7FFFFFFF00
7FFFFFFE00
3FFFFFFC00
0FFFFFF000
03FFFFC000
003FFE0000
ENDCHAR
STARTCHAR h
ENCODING 104
SWIDTH 561 0
DWIDTH 36 0
BBX 26 48 5 0
BITMAP
F8000000
FC000000
FC000000
FC000000
FC000000
FC000000
FC000000
FC000000
FC000000
FC000000
FC000000
FC000000
FC000000
FC000000
FC000000
FC080000
FFFFE000
FFFFF800
FFFFFE00
FFFFFF00
FFFFFF00
FFFFFF80
FC007F80
FC003FC0
FC001FC0
FC001FC0
FC000FC0
FC000FC0
FC000FC0
FC000FC0
FC000FC0
FC000FC0
FC000FC0
FC000FC0
FC000FC0
FC000FC0
FC000FC0
FC000FC0
FC000FC0
FC000FC0
FC000FC0
FC000FC0
FC000FC0
FC000FC0
FC000FC0
FC000FC0
FC000FC0
FC000FC0
ENDCHAR
STARTCHAR i
ENCODING 105
SWIDTH 561 0
DWIDTH 36 0
BBX 26 48 5 0
BITMAP
007F0000
00FF0000
00FF0000
00FF0000
00FF0000
00FF0000
00FF0000
007F0000
00000000
00000000
00000000
00000000
00000000
00000000
00000000
00000000
3FFF0000
3FFF0000
3FFF0000
3FFF0000
3FFF0000
3FFF0000
003F0000
003F0000
003F0000
003F0000
003F0000
003F0000
003F0000
003F0000
003F0000
003F0000
003F0000
003F0000
003F0000
003F0000
003F0000
003F0000
003F0000
003F0000
003F0000
003F0000
FFFFFFC0
FFFFFFC0
FFFFFFC0
FFFFFFC0
FFFFFFC0
FFFFFF80
ENDCHAR
STARTCHAR j
ENCODING 106
SWIDTH 561 0
DWIDTH 36 0
BBX 27 58 4 -10
BITMAP
00000FE0
00001FE0
00001FE0
00001FE0
00001FE0
00001FE0
00001FE0
00000FE0
00000000
00000000
00000000
00000000
00000000
00000000
00000000
00000000
3FFFFFC0
3FFFFFE0
3FFFFFE0
3FFFFFE0
3FFFFFE0
3FFFFFE0
000007E0
000007E0
000007E0
000007E0
000007E0
000007E0
000007E0
000007E0
000007E0
000007E0
000007E0
000007E0
000007E0
000007E0
000007E0
000007E0
000007E0
000007E0
000007E0
000007E0
000007E0
00000FE0
00000FE0
00000FE0
00000FE0
00001FC0
00001FC0
00003FC0
10007F80
7E01FF80
7FFFFF00
7FFFFE00
FFFFFC00
7FFFF800
1FFFE000
03FF0000
ENDCHAR
STARTCHAR k
ENCODING 107
SWIDTH 561 0
DWIDTH 36 0
BBX 28 48 5 0
BITMAP
FC000000
FC000000
FC000000
FC000000
FC000000
FC000000
FC000000
FC000000
FC000000
FC000000
FC000000
FC000000
FC000000
FC000000
FC000000
FC000000
FC001FC0
FC003FE0
FC007FC0
FC00FF80
FC01FF00
FC03FE00
FC07FC00
FC0FF800
FC1FF000
FC3FE000
FC7FC000
FCFF8000
FDFF0000
FFFE0000
FFFC0000
FFF80000
FFFC0000
FFFE0000
FDFF0000
FCFF8000
FC7FC000
FC3FE000
FC1FF000
FC0FF800
FC07FC00
FC03FF00
FC01FF80
FC00FFC0
FC007FE0
FC003FF0
FC001FF0
FC000FE0
ENDCHAR
STARTCHAR l
ENCODING 108
SWIDTH 561 0
DWIDTH 36 0
BBX 27 49 5 -1
BITMAP
7FFC0000
FFFE0000
FFFE0000
FFFE0000
FFFE0000
7FFE0000
00FE0000
00FE0000
00FE0000
00FE0000
00FE0000
00FE0000
00FE0000
00FE0000
00FE0000
00FE0000
00FE0000
00FE0000
00FE0000
00FE0000
00FE0000
00FE0000
00FE0000
00FE0000
00FE0000
00FE0000
00FE0000
00FE0000
00FE0000
00FE0000
00FE0000
00FE0000
00FE0000
00FE0000
00FE0000
00FE0000
00FE0000
00FE0000
00FE0000
00FE0000
007E0000
007F0000
007FFF80
007FFFC0
003FFFC0
001FFFE0
000FFFE0
0003FFC0
00001000
ENDCHAR
STARTCHAR m
ENCODING 109
SWIDTH 561 0
DWIDTH 36 0
BBX 30 33 3 0
BITMAP
00800400
7FFCFFC0
FFFFFFF0
FFFFFFF8
FFFFFFF8
FFFFFFFC
FFFFFFFC
FC1FC1FC
FC1FC1FC
FC0FC0FC
FC0FC0FC
FC0FC0FC
FC0FC0FC
FC0FC0FC
FC0FC0FC
FC0FC0FC
FC0FC0FC
FC0FC0FC
FC0FC0FC
FC0FC0FC
FC0FC0FC
FC0FC0FC
FC0FC0FC
FC0FC0FC
FC0FC0FC
FC0FC0FC
FC0FC0FC
FC0FC0FC
FC0FC0FC
FC0FC0FC
FC0FC0FC
FC0FC0FC
F80FC0FC
ENDCHAR
STARTCHAR n
ENCODING 110
SWIDTH 561 0
DWIDTH 36 0
BBX 26 33 5 0
BITMAP
00080000
7FFFE000
FFFFF800
FFFFFE00
FFFFFF00
FFFFFF00
FFFFFF80
FC007F80
FC003FC0
FC001FC0
FC001FC0
FC000FC0
FC000FC0
FC000FC0
FC000FC0
FC000FC0
FC000FC0
FC000FC0
FC000FC0
FC000FC0
FC000FC0
FC000FC0
FC000FC0
FC000FC0
FC000FC0
FC000FC0
FC000FC0
FC000FC0
FC000FC0
FC000FC0
FC000FC0
FC000FC0
FC000FC0
ENDCHAR
STARTCHAR o
ENCODING 111
SWIDTH 561 0
DWIDTH 36 0
BBX 26 34 5 -1
BITMAP
00040000
00FFC000
03FFF000
07FFF800
0FFFFC00
1FFFFE00
3FFFFF00
3FC0FF00
7F807F80
7F003F80
7E003F80
FE001FC0
FE001FC0
FE001FC0
FC000FC0
FC000FC0
FC000FC0
FC000FC0
FC000FC0
FC000FC0
FE001FC0
FE001FC0
FE001FC0
7E001F80
7F003F80
7F807F80
3FC0FF00
3FFFFF00
1FFFFE00
0FFFFC00
07FFF800
03FFF000
00FFC000
00040000
ENDCHAR
STARTCHAR p
ENCODING 112
SWIDTH 561 0
DWIDTH 36 0
BBX 26 49 5 -16
BITMAP
00200000
1FFF8000
7FFFE000
FFFFF000
FFFFFC00
FFFFFE00
FFFFFE00
FC01FF00
FC007F80
FC003F80
FC003F80
FC001FC0
FC001FC0
FC001FC0
FC001FC0
FC000FC0
FC000FC0
FC000FC0
FC000FC0
FC001FC0
FC001FC0
FC001FC0
FC001FC0
FC003F80
FC007F80
FC00FF80
FC01FF00
FFFFFE00
FFFFFE00
FFFFFC00
FFFFF800
FFFFE000
FFFF8000
FC300000
FC000000
FC000000
FC000000
FC000000
FC000000
FC000000
FC000000
FC000000
FC000000
FC000000
FC000000
FC000000
FC000000
FC000000
F8000000
ENDCHAR
STARTCHAR q
ENCODING 113
SWIDTH 561 0
DWIDTH 36 0
BBX 26 49 5 -16
BITMAP
00010000
007FFE00
01FFFF80
07FFFFC0
0FFFFFC0
1FFFFFC0
1FFFFFC0
3FE00FC0
7F800FC0
7F000FC0
7F000FC0
FE000FC0
FE000FC0
FE000FC0
FC000FC0
FC000FC0
FC000FC0
FC000FC0
FC000FC0
FC000FC0
FE000FC0
FE000FC0
FE000FC0
7F000FC0
7F000FC0
7FC00FC0
3FE00FC0
1FFFFFC0
1FFFFFC0
0FFFFFC0
07FFFFC0
01FFFFC0
007FFFC0
00018FC0
00000FC0
00000FC0
00000FC0
00000FC0
00000FC0
00000FC0
00000FC0
00000FC0
00000FC0
00000FC0
00000FC0
00000FC0
00000FC0
00000FC0
00000F80
ENDCHAR
STARTCHAR r
ENCODING 114
SWIDTH 561 0
DWIDTH 36 0
BBX 26 33 5 0
BITMAP
00080000
7FFFF000
FFFFFC00
FFFFFF00
FFFFFF80
FFFFFF80
FFFFFFC0
FC003FC0
FC001FC0
FC001FC0
FC000FC0
FC000FC0
FC000FC0
FC000000
FC000000
FC000000
FC000000
FC000000
FC000000
FC000000
FC000000
FC000000
FC000000
FC000000
FC000000
FC000000
FC000000
FC000000
FC000000
FC000000
FC000000
FC000000
FC000000
ENDCHAR
STARTCHAR s
ENCODING 115
SWIDTH 561 0
DWIDTH 36 0
BBX 24 34 6 -1
BITMAP
000800
03FFF8
0FFFFC
1FFFFC
3FFFFC
7FFFF8
7FFFF8
FF0000
FE0000
FE0000
FE0000
FE0000
FF8000
7FF800
7FFF80
3FFFE0
1FFFF8
07FFFC
00FFFE
0007FE
0000FE
00007F
00007F
00007F
00007F
00007F
0001FE
7FFFFE
FFFFFE
FFFFFC
FFFFF8
FFFFE0
7FFF80
006000
ENDCHAR
STARTCHAR t
ENCODING 116
SWIDTH 561 0
DWIDTH 36 0
BBX 26 44 5 -1
BITMAP
00C00000
03F00000
03F80000
03F80000
03F80000
03F80000
03F80000
03F80000
03F80000
03F80000
03F80000
FFFFFF00
FFFFFF00
FFFFFF00
FFFFFF00
FFFFFF00
FFFFFF00
03F80000
03F80000
03F80000
03F80000
03F80000
03F80000
03F80000
03F80000
03F80000
03F80000
03F80000
03F80000
03F80000
03F80000
03F80000
03F80000
03F80000
03F80000
01FC0000
01FE0100
01FFFF80
00FFFFC0
007FFFC0
003FFFC0
001FFFC0
0007FF00
00006000
ENDCHAR
STARTCHAR u
ENCODING 117
SWIDTH 561 0
DWIDTH 36 0
BBX 26 33 5 -1
BITMAP
FC000FC0
FC000FC0
FC000FC0
FC000FC0
FC000FC0
FC000FC0
FC000FC0
FC000FC0
FC000FC0
FC000FC0
FC000FC0
FC000FC0
FC000FC0
FC000FC0
FC000FC0
FC000FC0
FC000FC0
FC000FC0
FC000FC0
FC000FC0
FC000FC0
FC000FC0
FE000FC0
FE000FC0
FF000FC0
7F800FC0
7FFFFFC0
7FFFFFC0
3FFFFFC0
1FFFFFC0
0FFFFFC0
01FFFF80
00070000
ENDCHAR
STARTCHAR v
ENCODING 118
SWIDTH 561 0
DWIDTH 36 0
BBX 29 33 3 -1
BITMAP
7C0000F8
7E0001F8
FE0001F8
7F0003F8
7F0003F8
7F0003F8
3F0003F0
3F8007F0
3F8007F0
3F8007F0
1F8007E0
1FC00FE0
1FC00FE0
1FC00FE0
0FC00FC0
0FE01FC0
0FE01FC0
0FE01FC0
07E01F80
07F03F80
07F03F80
07F03F80
03F03F00
03F87F00
03F87F00
03F87F00
01FFFE00
01FFFE00
01FFFC00
00FFFC00
007FF800
001FE000
00030000
ENDCHAR
STARTCHAR w
ENCODING 119
SWIDTH 561 0
DWIDTH 36 0
BBX 34 32 1 0
BITMAP
7C00000F80
FE00001FC0
FE00001FC0
FE00001FC0
FE00001FC0
FE00001FC0
7E00001FC0
7E00001F80
7E03F01F80
7E03F01F80
7E07F81F80
7E07F81F80
7E0FFC1F80
7E0FFC1F80
7F1FFE3F80
7F1F3E3F80
7F3F3F3F80
7F3E1F3F80
7F7E1FBF80
7F7C0FBF80
7FFC0FFF80
7FF807FF80
7FF807FF80
7FF003FF80
7FF003FF80
7FE001FF80
7FE001FF80
7FC000FF80
3FC000FF80
3F80007F00
3F00003F00
3E00001F00
ENDCHAR
STARTCHAR x
ENCODING 120
SWIDTH 561 0
DWIDTH 36 0
BBX 26 32 5 0
BITMAP
7C000F80
FE001FC0
FE001FC0
7F003F80
7F003F80
3F807F00
3F807F00
1FC0FE00
1FC0FE00
0FE1FC00
0FE1FC00
07F3F800
07F3F800
03FFF000
03FFF000
01FFE000
03FFF000
03FFF000
07F3F800
07F3F800
0FE1FC00
0FE1FC00
1FC0FE00
1FC0FE00
3F807F00
3F807F00
7F003F80
7F003F80
FE001FC0
FE001FC0
FC000FC0
F80007C0
ENDCHAR
STARTCHAR y
ENCODING 121
SWIDTH 561 0
DWIDTH 36 0
BBX 31 48 1 -16
BITMAP
1F00003E
3F80007E
1F80007E
1FC000FE
1FC000FE
1FC000FE
0FC000FC
0FE001FC
0FE001FC
0FE001FC
07E001F8
07F003F8
07F003F8
07F003F8
03F007F0
03F807F0
03F807F0
03F807F0
01F80FE0
01FC0FE0
01FC0FE0
01FC0FE0
00FE1FC0
00FE1FC0
00FE1FC0
00FE1FC0
007FFF80
007FFF80
007FFF80
003FFF80
001FFF00
0007FF00
00007F00
00007F00
0000FE00
0000FE00
0000FE00
0001FC00
0001FC00
0003F800
0007F800
7C0FF000
7FFFF000
FFFFE000
FFFFC000
FFFF8000
7FFF0000
07F80000
ENDCHAR
STARTCHAR z
ENCODING 122
SWIDTH 561 0
DWIDTH 36 0
BBX 26 32 5 0
BITMAP
3FFFFFC0
7FFFFFC0
7FFFFFC0
7FFFFFC0
7FFFFFC0
3FFFFFC0
00003FC0
00007FC0
0000FF80
0001FF00
0003FE00
0007FC00
000FF800
001FF000
003FE000
007FC000
00FF8000
01FF0000
03FE0000
07FC0000
0FF80000
1FF00000
3FE00000
7FC00000
FF800000
FF000000
FFFFFFC0
FFFFFFC0
FFFFFFC0
FFFFFFC0
FFFFFFC0
FFFFFFC0
ENDCHAR
STARTCHAR braceleft
ENCODING 123
SWIDTH 561 0
DWIDTH 36 0
BBX 30 59 3 -11
BITMAP
00003FF8
0000FFFC
0003FFFC
0003FFFC
0007FFFC
000FFFF8
000FF000
000FE000
000FE000
000FC000
000FC000
000FC000
000FC000
000FC000
000FC000
000FC000
000FC000
000FC000
000FC000
000FC000
000FC000
000FC000
000FC000
000FC000
001FC000
001FC000
003FC000
7FFF8000
FFFF8000
FFFF0000
FFFF0000
FFFF8000
7FFF8000
003FC000
001FC000
001FC000
000FC000
000FC000
000FC000
000FC000
000FC000
000FC000
000FC000
000FC000
000FC000
000FC000
000FC000
000FC000
000FC000
000FC000
000FE000
000FE000
000FF000
000FFFF8
0007FFFC
0007FFFC
0003FFFC
0000FFFC
00003FF8
ENDCHAR
STARTCHAR bar
ENCODING 124
SWIDTH 561 0
DWIDTH 36 0
BBX 6 59 15 -11
BITMAP
FC
FC
FC
FC
FC
FC
FC
FC
FC
FC
FC
FC
FC
FC
FC
FC
FC
FC
FC
FC
FC
FC
FC
FC
FC
FC
FC
FC
FC
FC
FC
FC
FC
FC
FC
FC
FC
FC
FC
FC
FC
FC
FC
FC
FC
FC
FC
FC
FC
FC
FC
FC
FC
FC
FC
FC
FC
FC
FC
ENDCHAR
STARTCHAR braceright
ENCODING 125
SWIDTH 561 0
DWIDTH 36 0
BBX 30 59 3 -11
BITMAP
7FF00000
FFFC0000
FFFF0000
FFFF0000
FFFF8000
7FFF8000
003FC000
001FC000
001FC000
000FC000
000FC000
000FC000
000FC000
000FC000
000FC000
000FC000
000FC000
000FC000
000FC000
000FC000
000FC000
000FC000
000FC000
000FC000
000FE000
000FE000
000FF000
0007FFF8
0007FFFC
0003FFFC
0003FFFC
0007FFFC
0007FFF8
000FF000
000FE000
000FC000
000FC000
000FC000
000FC000
000FC000
000FC000
000FC000
000FC000
000FC000
000FC000
000FC000
000FC000
000FC000
000FC000
000FC000
001FC000
001FC000
003FC000
7FFF8000
FFFF8000
FFFF0000
FFFF0000
FFFC0000
7FF00000
ENDCHAR
STARTCHAR asciitilde
ENCODING 126
SWIDTH 561 0
DWIDTH 36 0
BBX 32 15 2 9
BITMAP
07E00000
1FF80000
3FFE0000
7FFF001E
7FFF803F
FFFFC03F
FE3FE03F
FC1FF83F
FC07FC7F
FC03FFFF
FC01FFFE
7800FFFE
00007FFC
00001FF8
000007E0
ENDCHAR
STARTCHAR uni00A0
ENCODING 160
SWIDTH 561 0
DWIDTH 36 0
BBX 1 1 0 0
BITMAP
00
ENDCHAR
STARTCHAR exclamdown
ENCODING 161
SWIDTH 561 0
DWIDTH 36 0
BBX 8 46 14 -13
BITMAP
18
7E
7E
7E
7E
7E
7E
18
00
00
00
00
00
00
3C
7E
7E
7E
7E
7E
7E
7E
7E
7E
7E
7E
FE
FF
FF
FF
FF
FF
FF
FF
FF
FF
FF
FF
FF
FF
FF
FF
FF
FF
FF
7E
ENDCHAR
STARTCHAR cent
ENCODING 162
SWIDTH 561 0
DWIDTH 36 0
BBX 26 54 5 -11
BITMAP
001F0000
001F8000
003F8000
003F8000
003F8000
003F8000
003F8000
003F8000
003F8000
003F8000
003F8000
007FFE00
01FFFFC0
07FFFFC0
0FFFFFC0
1FFFFFC0
1FFFFFC0
3FE00380
7F800000
7F000000
7F000000
FE000000
FE000000
FE000000
FC000000
FC000000
FC000000
FC000000
FC000000
FC000000
FE000000
FE000000
FE000000
7F000000
7F000000
7F800000
3FE00380
3FFFFFC0
1FFFFFC0
0FFFFFC0
07FFFFC0
01FFFFC0
007FFE00
003FC000
003F8000
003F8000
003F8000
003F8000
003F8000
003F8000
003F8000
003F8000
003F8000
001F8000
ENDCHAR
STARTCHAR sterling
ENCODING 163
SWIDTH 561 0
DWIDTH 36 0
BBX 26 46 5 0
BITMAP
00010000
003FF800
007FFC00
01FFFE00
01FFFF00
03FFFF80
03FFFF80
07F83FC0
07F01FC0
07F01FC0
07E00FC0
07E00FC0
07E00FC0
07E00F80
07E00000
07E00000
07E00000
07E00000
07E00000
07E00000
07E00000
FFFFFE00
FFFFFF00
FFFFFF00
FFFFFF00
FFFFFF00
FFFFFE00
07E00000
07E00000
07E00000
07E00000
07E00000
07E00000
07E00000
07E00000
07E00000
07E00000
07E00000
07E00000
07E00000
FFFFFFC0
FFFFFFC0
FFFFFFC0
FFFFFFC0
FFFFFFC0
FFFFFFC0
ENDCHAR
STARTCHAR currency
ENCODING 164
SWIDTH 561 0
DWIDTH 36 0
BBX 34 33 1 -1
BITMAP
1800000600
7E00001F00
7F00003F80
FF87F87FC0
7FDFFEFF80
3FFFFFFF00
1FFFFFFE00
0FFFFFFC00
07FFFFF800
03FC1FF000
07F807F800
07F003F800
0FE001FC00
0FC000FC00
0FC000FC00
0FC000FC00
0FC000FC00
0FC000FC00
0FC000FC00
0FE001FC00
07F003F800
07F807F800
03FC0FF000
07FFFFF800
0FFFFFFC00
1FFFFFFE00
3FFFFFFF00
7FDFFEFF80
FF87F87FC0
FF00003FC0
7E00001F80
3C00000F00
0800000400
ENDCHAR
STARTCHAR yen
ENCODING 165
SWIDTH 561 0
DWIDTH 36 0
BBX 34 45 1 0
BITMAP
FC00000FC0
FC00000FC0
FE00001FC0
FE00001FC0
7F00003F80
7F00003F80
3F80007F00
3F80007F00
1FC000FE00
1FC000FE00
0FE001FC00
0FE001FC00
07F003F800
07F003F800
03F807F000
03F807F000
01FC0FE000
01FC0FE000
0FFE1FFC00
1FFE1FFE00
1FFFFFFE00
1FFFFFFE00
1FFFFFFE00
0FFFFFFC00
0000000000
0000000000
0FFFFFFC00
1FFFFFFE00
1FFFFFFE00
1FFFFFFE00
1FFFFFFE00
0FFFFFFC00
0003F00000
0003F00000
0003F00000
0003F00000
0003F00000
0003F00000
0003F00000
0003F00000
0003F00000
0003F00000
0003F00000
0003F00000
0003E00000
ENDCHAR
STARTCHAR brokenbar
ENCODING 166
SWIDTH 561 0
DWIDTH 36 0
BBX 6 59 15 -11
BITMAP
FC
FC
FC
FC
FC
FC
FC
FC
FC
FC
FC
FC
FC
FC
FC
FC
FC
FC
FC
FC
FC
FC
FC
FC
00
00
00
00
00
00
00
00
00
00
00
FC
FC
FC
FC
FC
FC
FC
FC
FC
FC
FC
FC
FC
FC
FC
FC
FC
FC
FC
FC
FC
FC
FC
FC
ENDCHAR
STARTCHAR section
ENCODING 167
SWIDTH 561 0
DWIDTH 36 0
BBX 24 50 6 -5
BITMAP
00FFE0
07FFFC
1FFFFC
3FFFFC
7FFFFC
7FFFF8
FF8030
FE0000
FE0000
FE0000
FE0000
FE0000
FF0000
7F8000
7FE000
3FFC00
1FFF80
0FFFE0
0FFFF0
1FFFFC
3FFFFE
7F0FFE
FE01FF
FE00FF
FE007F
FE007F
FF007F
FF807F
7FE0FE
7FFFFC
3FFFF8
1FFFF0
07FFF0
01FFF8
003FFC
0007FE
0001FE
0000FF
00007F
00007F
00007F
00007F
0000FF
3003FE
7FFFFE
7FFFFC
7FFFFC
FFFFF0
7FFFE0
1FFF00
ENDCHAR
STARTCHAR dieresis
ENCODING 168
SWIDTH 561 0
DWIDTH 36 0
BBX 18 6 9 38
BITMAP
F807C0
F807C0
F807C0
F807C0
F807C0
F807C0
ENDCHAR
STARTCHAR copyright
ENCODING 169
SWIDTH 561 0
DWIDTH 36 0
BBX 32 33 2 7
BITMAP
000FF000
007FFE00
01FFFF80
03FFFFC0
07F81FE0
0FC003F0
1F8001F8
3E07E07C
3C1FF83C
7C3FFC3E
787FFC1E
F8FC381F
F0F0000F
F1E0000F
F1E0000F
F1E0000F
F1E0000F
F1E0000F
F1E0000F
F1E0000F
F1F0000F
F8FC381F
787FFC1E
7C3FFC3E
3C1FF83C
3E07E07C
1F8001F8
0FC003F0
07F81FE0
03FFFFC0
01FFFF80
007FFE00
000FF000
ENDCHAR
STARTCHAR ordfeminine
ENCODING 170
SWIDTH 561 0
DWIDTH 36 0
BBX 18 24 8 23
BITMAP
1FF800
3FFE00
3FFF00
3FFF80
3FFFC0
001FC0
000FC0
0007C0
0007C0
0007C0
07FFC0
1FFFC0
3FFFC0
7FFFC0
FFFFC0
FE07C0
FC07C0
FC07C0
FE07C0
FFFFC0
7FFFC0
3FFFC0
1FFFC0
07FF00
ENDCHAR
STARTCHAR guillemotleft
ENCODING 171
SWIDTH 561 0
DWIDTH 36 0
BBX 34 32 1 0
BITMAP
0003800600
0007C00F80
000FE01F80
001FE03FC0
003FE07F80
007FC0FF00
00FF81FE00
01FF07FC00
03FE0FF800
07FC1FF000
0FF83FE000
1FF07FC000
3FE0FF8000
7FC0FF0000
FF81FE0000
FF01FC0000
FF01FC0000
FF81FE0000
7FC0FF0000
3FE0FF8000
1FF07FC000
0FF83FE000
07FC1FF000
03FE07F800
01FF03FC00
00FF81FE00
007FC0FF00
003FE07F80
001FE03FC0
000FE01F80
0007C00F00
0003800600
ENDCHAR
STARTCHAR logicalnot
ENCODING 172
SWIDTH 561 0
DWIDTH 36 0
BBX 26 19 5 8
BITMAP
FFFFFFC0
FFFFFFC0
FFFFFFC0
FFFFFFC0
FFFFFFC0
FFFFFFC0
00000FC0
00000FC0
00000FC0
00000FC0
00000FC0
00000FC0
00000FC0
00000FC0
00000FC0
00000FC0
00000FC0
00000FC0
00000F80
ENDCHAR
STARTCHAR registered
ENCODING 174
SWIDTH 561 0
DWIDTH 36 0
BBX 32 33 2 7
BITMAP
000FF000
007FFE00
01FFFF80
03FFFFC0
07F81FE0
0FC003F0
1F8001F8
3E00007C
3C00003C
7C3FF83E
787FFC1E
F87FFE1F
F07FFF0F
F0780F0F
F0780F0F
F07FFF0F
F07FFE0F
F07FFC0F
F07FF80F
F079F00F
F078F80F
F8787C1F
78783E1E
7C781E3E
3C300E3C
3E00007C
1F8001F8
0FC003F0
07F81FE0
03FFFFC0
01FFFF80
007FFE00
000FF000
ENDCHAR
STARTCHAR macron
ENCODING 175
SWIDTH 561 0
DWIDTH 36 0
BBX 18 5 9 39
BITMAP
FFFFC0
FFFFC0
FFFFC0
FFFFC0
FFFFC0
ENDCHAR
STARTCHAR degree
ENCODING 176
SWIDTH 561 0
DWIDTH 36 0
BBX 24 24 6 22
BITMAP
007F00
03FFC0
0FFFF0
1FFFF8
3FFFFC
3FFFFC
7FC3FE
7F00FE
FF00FF
FE007F
FE007F
FE007F
FE007F
FE007F
FE007F
FE00FF
7F00FE
7FC3FE
3FFFFC
3FFFFC
1FFFF8
0FFFF0
03FFC0
00FF00
ENDCHAR
STARTCHAR plusminus
ENCODING 177
SWIDTH 561 0
DWIDTH 36 0
BBX 30 41 3 -9
BITMAP
000FC000
000FC000
000FC000
000FC000
000FC000
000FC000
000FC000
000FC000
000FC000
000FC000
000FC000
000FC000
000FC000
FFFFFFFC
FFFFFFFC
FFFFFFFC
FFFFFFFC
FFFFFFFC
FFFFFFFC
000FC000
000FC000
000FC000
000FC000
000FC000
000FC000
000FC000
000FC000
000FC000
000FC000
000FC000
000FC000
000FC000
00000000
00000000
00000000
FFFFFFFC
FFFFFFFC
FFFFFFFC
FFFFFFFC
FFFFFFFC
FFFFFFFC
ENDCHAR
STARTCHAR uni00B2
ENCODING 178
SWIDTH 561 0
DWIDTH 36 0
BBX 25 28 6 22
BITMAP
00080000
1FFFF000
7FFFFC00
7FFFFE00
7FFFFF00
3FFFFF00
3FFFFF80
10003F80
00003F80
00003F80
00007F80
003FFF00
03FFFF00
0FFFFE00
1FFFFC00
3FFFF800
7FFFE000
7FFC0000
7F000000
FE000000
FE000000
FE000000
FFFFFF00
FFFFFF00
FFFFFF00
FFFFFF00
FFFFFF00
7FFFFF00
ENDCHAR
STARTCHAR uni00B3
ENCODING 179
SWIDTH 561 0
DWIDTH 36 0
BBX 24 28 6 22
BITMAP
001000
3FFFE0
7FFFF8
7FFFFC
7FFFFE
7FFFFE
3FFFFF
00007F
00007F
00007F
0000FF
03FFFE
07FFFC
07FFF8
07FFF8
07FFFC
03FFFE
0001FE
00007F
00007F
00007F
7800FF
7FFFFE
FFFFFE
FFFFFE
FFFFFC
FFFFF0
1FFFC0
ENDCHAR
STARTCHAR acute
ENCODING 180
SWIDTH 561 0
DWIDTH 36 0
BBX 18 11 11 35
BITMAP
000200
000F00
003F80
00FF80
03FF80
0FFFC0
3FFF00
FFF800
FFC000
FE0000
700000
ENDCHAR
STARTCHAR uni00B5
ENCODING 181
SWIDTH 561 0
DWIDTH 36 0
BBX 26 48 5 -16
BITMAP
FC000FC0
FC000FC0
FC000FC0
FC000FC0
FC000FC0
FC000FC0
FC000FC0
FC000FC0
FC000FC0
FC000FC0
FC000FC0
FC000FC0
FC000FC0
FC000FC0
FC000FC0
FC000FC0
FC000FC0
FC000FC0
FC000FC0
FC000FC0
FC000FC0
FC000FC0
FE000FC0
FE000FC0
FE000FC0
FF800FC0
FFFFFFC0
FFFFFFC0
FFFFFFC0
FFFFFFC0
FFFFFFC0
FDFFFF80
FC070000
FC000000
FC000000
FC000000
FC000000
FC000000
FC000000
FC000000
FC000000
FC000000
FC000000
FC000000
FC000000
FC000000
FC000000
FC000000
ENDCHAR
STARTCHAR paragraph
ENCODING 182
SWIDTH 561 0
DWIDTH 36 0
BBX 30 51 3 -6
BITMAP
00FFC0F8
03FFC0FC
0FFFE0FC
1FFFE0FC
3FFFE0FC
3FFFE0FC
7FFFE0FC
7FFFE0FC
FFFFE0FC
FFFFE0FC
FFFFE0FC
FFFFE0FC
FFFFE0FC
FFFFE0FC
FFFFE0FC
FFFFE0FC
FFFFE0FC
7FFFE0FC
7FFFE0FC
7FFFE0FC
3FFFE0FC
1FFFE0FC
0FFFE0FC
07FFE0FC
00FFE0FC
000FE0FC
000FE0FC
000FE0FC
000FE0FC
000FE0FC
000FE0FC
000FE0FC
000FE0FC
000FE0FC
000FE0FC
000FE0FC
000FE0FC
000FE0FC
000FE0FC
000FE0FC
000FE0FC
000FE0FC
000FE0FC
000FE0FC
000FE0FC
000FE0FC
000FE0FC
000FE0FC
000FE0FC
000FC0FC
0007C0FC
ENDCHAR
STARTCHAR periodcentered
ENCODING 183
SWIDTH 561 0
DWIDTH 36 0
BBX 6 7 15 13
BITMAP
FC
FC
FC
FC
FC
FC
FC
ENDCHAR
STARTCHAR cedilla
ENCODING 184
SWIDTH 561 0
DWIDTH 36 0
BBX 18 16 11 -15
BITMAP
078000
0F8000
0F0000
1F0000
1FFC00
0FFF00
07FF80
03FFC0
001FC0
000FC0
001FC0
003F80
7FFF00
FFFE00
FFF800
3FE000
ENDCHAR
STARTCHAR uni00B9
ENCODING 185
SWIDTH 561 0
DWIDTH 36 0
BBX 14 28 7 22
BITMAP
0010
007C
007C
00FC
01FC
07FC
FFFC
FFFC
FFFC
FFFC
FFFC
FFFC
00FC
00FC
00FC
00FC
00FC
00FC
00FC
00FC
00FC
00FC
00FC
00FC
00FC
00FC
00FC
007C
ENDCHAR
STARTCHAR ordmasculine
ENCODING 186
SWIDTH 561 0
DWIDTH 36 0
BBX 19 24 8 22
BITMAP
01F800
07FE00
0FFF00
1FFF80
3FFFC0
3F0FC0
7E07E0
7E07E0
7E07E0
7C03E0
7C03E0
FC03E0
FC03E0
7C03E0
7C03E0
7E07E0
7E07E0
7E07E0
3F0FC0
3FFFC0
1FFF80
0FFF00
07FE00
01F800
ENDCHAR
STARTCHAR guillemotright
ENCODING 187
SWIDTH 561 0
DWIDTH 36 0
BBX 34 32 1 0
BITMAP
1800700000
7C00F80000
FE01FC0000
FF01FE0000
7F81FF0000
7FC0FF8000
3FE07FC000
0FF03FE000
07F81FF000
03FC0FF800
01FF07FC00
00FF83FE00
007F81FF00
003FC0FF80
001FE07F80
000FE03FC0
000FE03FC0
001FE07F80
003FC0FF80
007F81FF00
00FF03FE00
01FE07FC00
03FC0FF800
07F81FF000
0FF03FE000
3FE07FC000
7FC0FF8000
7F81FF0000
FF01FE0000
FE01FC0000
3C00F80000
1800700000
ENDCHAR
STARTCHAR onequarter
ENCODING 188
SWIDTH 561 0
DWIDTH 36 0
BBX 30 64 3 -16
BITMAP
0007C000
0007C000
000FC000
001FC000
007FC000
0FFFC000
0FFFC000
0FFFC000
0FFFC000
0FFFC000
0FFFC000
000FC000
000FC000
000FC000
000FC000
000FC000
000FC000
000FC000
000FC000
000FC000
000FC000
000FC000
000FC000
000FC000
000FC000
000FC000
0007C000
00000000
00000000
00000000
7FFFFFF8
FFFFFFFC
FFFFFFFC
FFFFFFFC
7FFFFFF8
00000000
00000000
00000000
0FC00000
0FC00000
0FC00000
0FC00000
0FC00000
0FC00000
0FC0F800
0FC0FC00
0FC1FC00
0FC1FC00
0FC1FC00
0FC1FC00
0FC1FC00
0FC1FC00
0FFFFFF0
0FFFFFF0
0FFFFFF8
0FFFFFF8
0FFFFFF0
07FFFFF0
0001FC00
0001FC00
0001FC00
0001FC00
0001FC00
0000F800
ENDCHAR
STARTCHAR onehalf
ENCODING 189
SWIDTH 561 0
DWIDTH 36 0
BBX 30 64 3 -16
BITMAP
0007C000
0007C000
000FC000
001FC000
007FC000
0FFFC000
0FFFC000
0FFFC000
0FFFC000
0FFFC000
0FFFC000
000FC000
000FC000
000FC000
000FC000
000FC000
000FC000
000FC000
000FC000
000FC000
000FC000
000FC000
000FC000
000FC000
000FC000
000FC000
0007C000
00000000
00000000
00000000
7FFFFFF8
FFFFFFFC
FFFFFFFC
FFFFFFFC
7FFFFFF8
00000000
00000000
007FF800
07FFFF00
0FFFFFC0
0FFFFFC0
0FFFFFE0
07FFFFF0
07800FF0
000007F0
000007F0
00000FF0
0001FFE0
003FFFE0
00FFFFC0
03FFFFC0
07FFFF00
0FFFFC00
0FFFC000
0FF00000
1FC00000
1FC00000
1FC00000
1FFFFFE0
1FFFFFE0
1FFFFFE0
1FFFFFE0
1FFFFFE0
0FFFFFE0
ENDCHAR
STARTCHAR threequarters
ENCODING 190
SWIDTH 561 0
DWIDTH 36 0
BBX 30 64 3 -16
BITMAP
00FFF000
0FFFFE00
0FFFFF80
0FFFFFC0
0FFFFFC0
0FFFFFE0
07001FE0
00000FE0
00000FE0
00001FE0
007FFFC0
00FFFF80
00FFFF00
00FFFF00
00FFFF80
007FFFC0
00003FC0
00000FE0
00000FE0
00000FE0
0F001FE0
0FFFFFC0
1FFFFFC0
1FFFFF80
1FFFFF00
0FFFFE00
01FFF000
00000000
00000000
00000000
7FFFFFF8
FFFFFFFC
FFFFFFFC
FFFFFFFC
7FFFFFF8
00000000
00000000
00000000
0FC00000
0FC00000
0FC00000
0FC00000
0FC00000
0FC00000
0FC0F800
0FC0FC00
0FC1FC00
0FC1FC00
0FC1FC00
0FC1FC00
0FC1FC00
0FC1FC00
0FFFFFF0
0FFFFFF0
0FFFFFF8
0FFFFFF8
0FFFFFF0
07FFFFF0
0001FC00
0001FC00
0001FC00
0001FC00
0001FC00
0000F800
ENDCHAR
STARTCHAR questiondown
ENCODING 191
SWIDTH 561 0
DWIDTH 36 0
BBX 28 45 5 -13
BITMAP
0000F800
0000FC00
0000FC00
0000FC00
0000FC00
0000FC00
0000F800
00000000
00000000
00000000
00000000
00000000
00007800
0000FC00
0000FC00
0000FC00
0000FC00
0000FC00
0000FC00
0000FC00
003FFC00
01FFFC00
07FFFC00
1FFFFC00
3FFFFC00
7FFFF800
7FF00000
FF800000
FF000000
FE000000
FC000000
FC000000
FC000000
FE000000
FF000000
7F800000
7FE00000
3FF80000
1FFFC000
0FFFFFE0
03FFFFF0
01FFFFF0
003FFFF0
0007FFF0
00007FE0
ENDCHAR
STARTCHAR Agrave
ENCODING 192
SWIDTH 561 0
DWIDTH 36 0
BBX 36 59 0 0
BITMAP
0020000000
0078000000
00FE000000
00FF800000
01FFE00000
01FFF80000
007FFE0000
000FFF8000
0001FF8000
00003F8000
0000070000
0000000000
0000000000
0000400000
0003FC0000
000FFF0000
001FFF8000
001FFF8000
003FFFC000
003FFFC000
007F0FC000
007F0FE000
007F0FE000
007E07E000
00FE07E000
00FE07F000
00FE07F000
00FC03F000
01FC03F800
01FC03F800
01FC03F800
01F801F800
03F801FC00
03F801FC00
03F801FC00
03F000FC00
07F000FE00
07F000FE00
07F000FE00
07FFFFFE00
0FFFFFFF00
0FFFFFFF00
0FFFFFFF00
0FFFFFFF00
1FFFFFFF80
1FC0003F80
1FC0003F80
1F80001F80
3F80001FC0
3F80001FC0
3F80001FC0
3F00000FC0
7F00000FE0
7F00000FE0
7F00000FE0
7E000007E0
FE000007F0
FE000007F0
7C000003E0
ENDCHAR
STARTCHAR Aacute
ENCODING 193
SWIDTH 561 0
DWIDTH 36 0
BBX 36 59 0 0
BITMAP
0000004000
000001E000
000007F000
00001FF000
00007FF000
0001FFF800
0007FFE000
001FFF0000
001FF80000
001FC00000
000E000000
0000000000
0000000000
0000400000
0003FC0000
000FFF0000
001FFF8000
001FFF8000
003FFFC000
003FFFC000
007F0FC000
007F0FE000
007F0FE000
007E07E000
00FE07E000
00FE07F000
00FE07F000
00FC03F000
01FC03F800
01FC03F800
01FC03F800
01F801F800
03F801FC00
03F801FC00
03F801FC00
03F000FC00
07F000FE00
07F000FE00
07F000FE00
07FFFFFE00
0FFFFFFF00
0FFFFFFF00
0FFFFFFF00
0FFFFFFF00
1FFFFFFF80
1FC0003F80
1FC0003F80
1F80001F80
3F80001FC0
3F80001FC0
3F80001FC0
3F00000FC0
7F00000FE0
7F00000FE0
7F00000FE0
7E000007E0
FE000007F0
FE000007F0
7C000003E0
ENDCHAR
STARTCHAR Acircumflex
ENCODING 194
SWIDTH 561 0
DWIDTH 36 0
BBX 36 56 0 0
BITMAP
0000F00000
0003FC0000
000FFF0000
003FFFC000
007F9FE000
01FE07F800
01FC03F800
01F801F800
00E0007000
0000000000
0000400000
0003FC0000
000FFF0000
001FFF8000
001FFF8000
003FFFC000
003FFFC000
007F0FC000
007F0FE000
007F0FE000
007E07E000
00FE07E000
00FE07F000
00FE07F000
00FC03F000
01FC03F800
01FC03F800
01FC03F800
01F801F800
03F801FC00
03F801FC00
03F801FC00
03F000FC00
07F000FE00
07F000FE00
07F000FE00
07FFFFFE00
0FFFFFFF00
0FFFFFFF00
0FFFFFFF00
0FFFFFFF00
1FFFFFFF80
1FC0003F80
1FC0003F80
1F80001F80
3F80001FC0
3F80001FC0
3F80001FC0
3F00000FC0
7F00000FE0
7F00000FE0
7F00000FE0
7E000007E0
FE000007F0
FE000007F0
7C000003E0
ENDCHAR
STARTCHAR Atilde
ENCODING 195
SWIDTH 561 0
DWIDTH 36 0
BBX 36 57 0 0
BITMAP
001F000000
007FC00000
00FFE03800
01FFF87C00
03FFFFFC00
03E1FFF800
01C07FF000
00003FE000
00000F8000
0000000000
0000000000
0000400000
0003FC0000
000FFF0000
001FFF8000
001FFF8000
003FFFC000
003FFFC000
007F0FC000
007F0FE000
007F0FE000
007E07E000
00FE07E000
00FE07F000
00FE07F000
00FC03F000
01FC03F800
01FC03F800
01FC03F800
01F801F800
03F801FC00
03F801FC00
03F801FC00
03F000FC00
07F000FE00
07F000FE00
07F000FE00
07FFFFFE00
0FFFFFFF00
0FFFFFFF00
0FFFFFFF00
0FFFFFFF00
1FFFFFFF80
1FC0003F80
1FC0003F80
1F80001F80
3F80001FC0
3F80001FC0
3F80001FC0
3F00000FC0
7F00000FE0
7F00000FE0
7F00000FE0
7E000007E0
FE000007F0
FE000007F0
7C000003E0
ENDCHAR
STARTCHAR Adieresis
ENCODING 196
SWIDTH 561 0
DWIDTH 36 0
BBX 36 57 0 0
BITMAP
007C03E000
007C03E000
007C03E000
007C03E000
007C03E000
007C03E000
0000000000
0000000000
0000000000
0000000000
0000000000
0000400000
0003FC0000
000FFF0000
001FFF8000
001FFF8000
003FFFC000
003FFFC000
007F0FC000
007F0FE000
007F0FE000
007E07E000
00FE07E000
00FE07F000
00FE07F000
00FC03F000
01FC03F800
01FC03F800
01FC03F800
01F801F800
03F801FC00
03F801FC00
03F801FC00
03F000FC00
07F000FE00
07F000FE00
07F000FE00
07FFFFFE00
0FFFFFFF00
0FFFFFFF00
0FFFFFFF00
0FFFFFFF00
1FFFFFFF80
1FC0003F80
1FC0003F80
1F80001F80
3F80001FC0
3F80001FC0
3F80001FC0
3F00000FC0
7F00000FE0
7F00000FE0
7F00000FE0
7E000007E0
FE000007F0
FE000007F0
7C000003E0
ENDCHAR
STARTCHAR Aring
ENCODING 197
SWIDTH 561 0
DWIDTH 36 0
BBX 36 57 0 0
BITMAP
0001F80000
0007FE0000
000FFF0000
000FFF0000
001F9F8000
001F0F8000
001F0F8000
001F9F8000
000FFF0000
000FFF0000
0007FE0000
0001F80000
0003FC0000
0007FE0000
001FFF8000
001FFF8000
003FFFC000
003FFFC000
007F9FC000
007F0FE000
007F0FE000
007F0FE000
00FE07E000
00FE07F000
00FE07F000
00FE07F000
01FC03F000
01FC03F800
01FC03F800
01F801F800
03F801F800
03F801FC00
03F801FC00
03F000FC00
07F000FC00
07F000FE00
07F000FE00
07FFFFFE00
0FFFFFFE00
0FFFFFFF00
0FFFFFFF00
0FFFFFFF00
1FFFFFFF00
1FC0003F80
1FC0003F80
1F80001F80
3F80001FC0
3F80001FC0
3F80001FC0
3F00000FC0
7F00000FE0
7F00000FE0
7F00000FE0
7E000007E0
FE000007F0
FE000007F0
7C000003E0
ENDCHAR
STARTCHAR AE
ENCODING 198
SWIDTH 561 0
DWIDTH 36 0
BBX 33 45 0 0
BITMAP
0003FFFF00
000FFFFF00
001FFFFF00
003FFFFF00
003FFFFF00
003FFFFF00
007F7F0000
007F7F0000
007F7F0000
007E7F0000
00FE7F0000
00FE7F0000
00FE7F0000
00FC7F0000
01FC7F0000
01FC7F0000
01FC7F0000
01F87F0000
03F87F0000
03F87FFE00
03F87FFF00
03F07FFF00
07F07FFF00
07F07FFF00
07F07FFE00
07E07F0000
0FE07F0000
0FE07F0000
0FFFFF0000
0FFFFF0000
1FFFFF0000
1FFFFF0000
1FFFFF0000
1FFFFF0000
3F807F0000
3F807F0000
3F807F0000
3F007F0000
7F007F0000
7F007FFF00
7F007FFF80
7E007FFF80
FE007FFF80
FE007FFF80
7C003FFF00
ENDCHAR
STARTCHAR Ccedilla
ENCODING 199
SWIDTH 561 0
DWIDTH 36 0
BBX 26 62 5 -16
BITMAP
00008000
003FFE00
00FFFF80
03FFFFC0
07FFFFC0
0FFFFFC0
0FFFFFC0
1FF00380
3FC00000
3F800000
7F800000
7F000000
7F000000
FE000000
FE000000
FE000000
FE000000
FC000000
FC000000
FC000000
FC000000
FC000000
FC000000
FC000000
FC000000
FC000000
FC000000
FC000000
FC000000
FC000000
FE000000
FE000000
FE000000
FE000000
7F000000
7F000000
7F800000
3F800000
3FC00000
1FF00380
1FFFFFC0
0FFFFFC0
07FFFFC0
03FFFFC0
00FFFF80
003FFE00
007C8000
00780000
00F80000
00F80000
00FFF000
007FF800
003FFC00
001FFE00
0000FE00
00007E00
00007E00
0001FC00
03FFF800
07FFF000
07FFE000
01FF0000
ENDCHAR
STARTCHAR Egrave
ENCODING 200
SWIDTH 561 0
DWIDTH 36 0
BBX 28 59 5 0
BITMAP
04000000
0F000000
1FC00000
1FF00000
3FFC0000
3FFF0000
0FFFC000
01FFF000
003FF000
0007F000
0000E000
00000000
00000000
00000000
FFFFFFC0
FFFFFFC0
FFFFFFE0
FFFFFFE0
FFFFFFC0
FFFFFFC0
FC000000
FC000000
FC000000
FC000000
FC000000
FC000000
FC000000
FC000000
FC000000
FC000000
FC000000
FC000000
FC000000
FFFFFF00
FFFFFF80
FFFFFF80
FFFFFF80
FFFFFF80
FFFFFF00
FC000000
FC000000
FC000000
FC000000
FC000000
FC000000
FC000000
FC000000
FC000000
FC000000
FC000000
FC000000
FC000000
FC000000
FFFFFFE0
FFFFFFF0
FFFFFFF0
FFFFFFF0
FFFFFFF0
FFFFFFE0
ENDCHAR
STARTCHAR Eacute
ENCODING 201
SWIDTH 561 0
DWIDTH 36 0
BBX 28 59 5 0
BITMAP
00000800
00003C00
0000FE00
0003FE00
000FFE00
003FFF00
00FFFC00
03FFE000
03FF0000
03F80000
01C00000
00000000
00000000
00000000
FFFFFFC0
FFFFFFC0
FFFFFFE0
FFFFFFE0
FFFFFFC0
FFFFFFC0
FC000000
FC000000
FC000000
FC000000
FC000000
FC000000
FC000000
FC000000
FC000000
FC000000
FC000000
FC000000
FC000000
FFFFFF00
FFFFFF80
FFFFFF80
FFFFFF80
FFFFFF80
FFFFFF00
FC000000
FC000000
FC000000
FC000000
FC000000
FC000000
FC000000
FC000000
FC000000
FC000000
FC000000
FC000000
FC000000
FC000000
FFFFFFE0
FFFFFFF0
FFFFFFF0
FFFFFFF0
FFFFFFF0
FFFFFFE0
ENDCHAR
STARTCHAR Ecircumflex
ENCODING 202
SWIDTH 561 0
DWIDTH 36 0
BBX 28 56 5 0
BITMAP
001E0000
007F8000
01FFE000
07FFF800
0FF3FC00
3FC0FF00
3F807F00
3F003F00
1C000E00
00000000
00000000
FFFFFFC0
FFFFFFC0
FFFFFFE0
FFFFFFE0
FFFFFFC0
FFFFFFC0
FC000000
FC000000
FC000000
FC000000
FC000000
FC000000
FC000000
FC000000
FC000000
FC000000
FC000000
FC000000
FC000000
FFFFFF00
FFFFFF80
FFFFFF80
FFFFFF80
FFFFFF80
FFFFFF00
FC000000
FC000000
FC000000
FC000000
FC000000
FC000000
FC000000
FC000000
FC000000
FC000000
FC000000
FC000000
FC000000
FC000000
FFFFFFE0
FFFFFFF0
FFFFFFF0
FFFFFFF0
FFFFFFF0
FFFFFFE0
ENDCHAR
STARTCHAR Edieresis
ENCODING 203
SWIDTH 561 0
DWIDTH 36 0
BBX 28 57 5 0
BITMAP
0F807C00
0F807C00
0F807C00
0F807C00
0F807C00
0F807C00
00000000
00000000
00000000
00000000
00000000
00000000
FFFFFFC0
FFFFFFC0
FFFFFFE0
FFFFFFE0
FFFFFFC0
FFFFFFC0
FC000000
FC000000
FC000000
FC000000
FC000000
FC000000
FC000000
FC000000
FC000000
FC000000
FC000000
FC000000
FC000000
FFFFFF00
FFFFFF80
FFFFFF80
FFFFFF80
FFFFFF80
FFFFFF00
FC000000
FC000000
FC000000
FC000000
FC000000
FC000000
FC000000
FC000000
FC000000
FC000000
FC000000
FC000000
FC000000
FC000000
FFFFFFE0
FFFFFFF0
FFFFFFF0
FFFFFFF0
FFFFFFF0
FFFFFFE0
ENDCHAR
STARTCHAR Igrave
ENCODING 204
SWIDTH 561 0
DWIDTH 36 0
BBX 26 59 5 0
BITMAP
04000000
0F000000
1FC00000
1FF00000
3FFC0000
3FFF0000
0FFFC000
01FFF000
003FF000
0007F000
0000E000
00000000
00000000
00000000
7FFFFF80
FFFFFFC0
FFFFFFC0
FFFFFFC0
FFFFFFC0
7FFFFF80
003F0000
003F0000
003F0000
003F0000
003F0000
003F0000
003F0000
003F0000
003F0000
003F0000
003F0000
003F0000
003F0000
003F0000
003F0000
003F0000
003F0000
003F0000
003F0000
003F0000
003F0000
003F0000
003F0000
003F0000
003F0000
003F0000
003F0000
003F0000
003F0000
003F0000
003F0000
003F0000
003F0000
FFFFFFC0
FFFFFFC0
FFFFFFC0
FFFFFFC0
FFFFFFC0
FFFFFFC0
ENDCHAR
STARTCHAR Iacute
ENCODING 205
SWIDTH 561 0
DWIDTH 36 0
BBX 26 59 5 0
BITMAP
00000800
00003C00
0000FE00
0003FE00
000FFE00
003FFF00
00FFFC00
03FFE000
03FF0000
03F80000
01C00000
00000000
00000000
00000000
7FFFFF80
FFFFFFC0
FFFFFFC0
FFFFFFC0
FFFFFFC0
7FFFFF80
003F0000
003F0000
003F0000
003F0000
003F0000
003F0000
003F0000
003F0000
003F0000
003F0000
003F0000
003F0000
003F0000
003F0000
003F0000
003F0000
003F0000
003F0000
003F0000
003F0000
003F0000
003F0000
003F0000
003F0000
003F0000
003F0000
003F0000
003F0000
003F0000
003F0000
003F0000
003F0000
003F0000
FFFFFFC0
FFFFFFC0
FFFFFFC0
FFFFFFC0
FFFFFFC0
FFFFFFC0
ENDCHAR
STARTCHAR Icircumflex
ENCODING 206
SWIDTH 561 0
DWIDTH 36 0
BBX 26 56 5 0
BITMAP
001E0000
007F8000
01FFE000
07FFF800
0FF3FC00
3FC0FF00
3F807F00
3F003F00
1C000E00
00000000
00000000
7FFFFF80
FFFFFFC0
FFFFFFC0
FFFFFFC0
FFFFFFC0
7FFFFF80
003F0000
003F0000
003F0000
003F0000
003F0000
003F0000
003F0000
003F0000
003F0000
003F0000
003F0000
003F0000
003F0000
003F0000
003F0000
003F0000
003F0000
003F0000
003F0000
003F0000
003F0000
003F0000
003F0000
003F0000
003F0000
003F0000
003F0000
003F0000
003F0000
003F0000
003F0000
003F0000
003F0000
FFFFFFC0
FFFFFFC0
FFFFFFC0
FFFFFFC0
FFFFFFC0
FFFFFFC0
ENDCHAR
STARTCHAR Idieresis
ENCODING 207
SWIDTH 561 0
DWIDTH 36 0
BBX 26 57 5 0
BITMAP
0F807C00
0F807C00
0F807C00
0F807C00
0F807C00
0F807C00
00000000
00000000
00000000
00000000
00000000
00000000
7FFFFF80
FFFFFFC0
FFFFFFC0
FFFFFFC0
FFFFFFC0
7FFFFF80
003F0000
003F0000
003F0000
003F0000
003F0000
003F0000
003F0000
003F0000
003F0000
003F0000
003F0000
003F0000
003F0000
003F0000
003F0000
003F0000
003F0000
003F0000
003F0000
003F0000
003F0000
003F0000
003F0000
003F0000
003F0000
003F0000
003F0000
003F0000
003F0000
003F0000
003F0000
003F0000
003F0000
FFFFFFC0
FFFFFFC0
FFFFFFC0
FFFFFFC0
FFFFFFC0
FFFFFFC0
ENDCHAR
STARTCHAR Eth
ENCODING 208
SWIDTH 561 0
DWIDTH 36 0
BBX 31 45 2 0
BITMAP
7FFE0000
FFFFE000
FFFFFC00
FFFFFF00
FFFFFF80
FFFFFFC0
0FC1FFE0
0FC03FF0
0FC00FF0
0FC007F8
0FC003F8
0FC003FC
0FC001FC
0FC001FC
0FC000FC
0FC000FE
0FC000FE
0FC000FE
0FC000FE
0FC000FE
0FC000FE
7FFF80FE
7FFFC0FE
7FFFC0FE
7FFFC0FE
7FFF80FE
0FC000FE
0FC000FE
0FC000FE
0FC000FE
0FC000FC
0FC001FC
0FC001FC
0FC001FC
0FC003F8
0FC007F8
0FC00FF8
0FC03FF0
0FC1FFE0
0FFFFFE0
0FFFFFC0
0FFFFF00
0FFFFE00
0FFFF000
0FFF0000
ENDCHAR
STARTCHAR Ntilde
ENCODING 209
SWIDTH 561 0
DWIDTH 36 0
BBX 28 57 4 0
BITMAP
01F00000
07FC0000
0FFE0380
1FFF87C0
3FFFFFC0
3E1FFF80
1C07FF00
0003FE00
0000F800
00000000
00000000
00000000
F80003E0
FE0003F0
FE0003F0
FF0003F0
FF0003F0
FF8003F0
FF8003F0
FFC003F0
FFC003F0
FFE003F0
FFE003F0
FFF003F0
FFF003F0
FFF003F0
FDF803F0
FDF803F0
FCFC03F0
FCFC03F0
FC7E03F0
FC7E03F0
FC3F03F0
FC3F03F0
FC1F83F0
FC1F83F0
FC0FC3F0
FC0FC3F0
FC07E3F0
FC07E3F0
FC03F3F0
FC03F3F0
FC01FBF0
FC01FBF0
FC00FFF0
FC00FFF0
FC007FF0
FC007FF0
FC003FF0
FC003FF0
FC001FF0
FC001FF0
FC000FF0
FC000FF0
FC0007F0
FC0007F0
FC0001F0
ENDCHAR
STARTCHAR Ograve
ENCODING 210
SWIDTH 561 0
DWIDTH 36 0
BBX 26 61 5 -1
BITMAP
04000000
0F000000
1FC00000
1FF00000
3FFC0000
3FFF0000
0FFFC000
01FFF000
003FF000
0007F000
0000E000
00000000
00000000
00000000
00080000
01FFE000
03FFF000
0FFFFC00
1FFFFE00
1FFFFE00
3FFFFF00
3F80FF00
7F003F80
7F003F80
FE001FC0
FE001FC0
FE001FC0
FC001FC0
FC000FC0
FC000FC0
FC000FC0
FC000FC0
FC000FC0
FC000FC0
FC000FC0
FC000FC0
FC000FC0
FC000FC0
FC000FC0
FC000FC0
FC000FC0
FC000FC0
FC000FC0
FC000FC0
FC000FC0
FC000FC0
FC000FC0
FC001FC0
FE001FC0
FE001FC0
FE001F80
7F003F80
7F003F80
7FC0FF00
3FFFFF00
1FFFFE00
1FFFFE00
0FFFFC00
03FFF000
01FFC000
000C0000
ENDCHAR
STARTCHAR Oacute
ENCODING 211
SWIDTH 561 0
DWIDTH 36 0
BBX 26 61 5 -1
BITMAP
00000800
00003C00
0000FE00
0003FE00
000FFE00
003FFF00
00FFFC00
03FFE000
03FF0000
03F80000
01C00000
00000000
00000000
00000000
00080000
01FFE000
03FFF000
0FFFFC00
1FFFFE00
1FFFFE00
3FFFFF00
3F80FF00
7F003F80
7F003F80
FE001FC0
FE001FC0
FE001FC0
FC001FC0
FC000FC0
FC000FC0
FC000FC0
FC000FC0
FC000FC0
FC000FC0
FC000FC0
FC000FC0
FC000FC0
FC000FC0
FC000FC0
FC000FC0
FC000FC0
FC000FC0
FC000FC0
FC000FC0
FC000FC0
FC000FC0
FC000FC0
FC001FC0
FE001FC0
FE001FC0
FE001F80
7F003F80
7F003F80
7FC0FF00
3FFFFF00
1FFFFE00
1FFFFE00
0FFFFC00
03FFF000
01FFC000
000C0000
ENDCHAR
STARTCHAR Ocircumflex
ENCODING 212
SWIDTH 561 0
DWIDTH 36 0
BBX 26 58 5 -1
BITMAP
001E0000
007F8000
01FFE000
07FFF800
0FF3FC00
3FC0FF00
3F807F00
3F003F00
1C000E00
00000000
00000000
00080000
01FFE000
03FFF000
0FFFFC00
1FFFFE00
1FFFFE00
3FFFFF00
3F80FF00
7F003F80
7F003F80
FE001FC0
FE001FC0
FE001FC0
FC001FC0
FC000FC0
FC000FC0
FC000FC0
FC000FC0
FC000FC0
FC000FC0
FC000FC0
FC000FC0
FC000FC0
FC000FC0
FC000FC0
FC000FC0
FC000FC0
FC000FC0
FC000FC0
FC000FC0
FC000FC0
FC000FC0
FC000FC0
FC001FC0
FE001FC0
FE001FC0
FE001F80
7F003F80
7F003F80
7FC0FF00
3FFFFF00
1FFFFE00
1FFFFE00
0FFFFC00
03FFF000
01FFC000
000C0000
ENDCHAR
STARTCHAR Otilde
ENCODING 213
SWIDTH 561 0
DWIDTH 36 0
BBX 26 59 5 -1
BITMAP
03E00000
0FF80000
1FFC0700
3FFF0F80
7FFFFF80
7C3FFF00
380FFE00
0007FC00
0001F000
00000000
00000000
00000000
00080000
01FFE000
03FFF000
0FFFFC00
1FFFFE00
1FFFFE00
3FFFFF00
3F80FF00
7F003F80
7F003F80
FE001FC0
FE001FC0
FE001FC0
FC001FC0
FC000FC0
FC000FC0
FC000FC0
FC000FC0
FC000FC0
FC000FC0
FC000FC0
FC000FC0
FC000FC0
FC000FC0
FC000FC0
FC000FC0
FC000FC0
FC000FC0
FC000FC0
FC000FC0
FC000FC0
FC000FC0
FC000FC0
FC001FC0
FE001FC0
FE001FC0
FE001F80
7F003F80
7F003F80
7FC0FF00
3FFFFF00
1FFFFE00
1FFFFE00
0FFFFC00
03FFF000
01FFC000
000C0000
ENDCHAR
STARTCHAR Odieresis
ENCODING 214
SWIDTH 561 0
DWIDTH 36 0
BBX 26 59 5 -1
BITMAP
0F807C00
0F807C00
0F807C00
0F807C00
0F807C00
0F807C00
00000000
00000000
00000000
00000000
00000000
00000000
00080000
01FFE000
03FFF000
0FFFFC00
1FFFFE00
1FFFFE00
3FFFFF00
3F80FF00
7F003F80
7F003F80
FE001FC0
FE001FC0
FE001FC0
FC001FC0
FC000FC0
FC000FC0
FC000FC0
FC000FC0
FC000FC0
FC000FC0
FC000FC0
FC000FC0
FC000FC0
FC000FC0
FC000FC0
FC000FC0
FC000FC0
FC000FC0
FC000FC0
FC000FC0
FC000FC0
FC000FC0
FC000FC0
FC001FC0
FE001FC0
FE001FC0
FE001F80
7F003F80
7F003F80
7FC0FF00
3FFFFF00
1FFFFE00
1FFFFE00
0FFFFC00
03FFF000
01FFC000
000C0000
ENDCHAR
STARTCHAR multiply
ENCODING 215
SWIDTH 561 0
DWIDTH 36 0
BBX 30 34 3 -1
BITMAP
04000080
1E0001E0
3F0003F0
7F8007F8
3FC00FF0
3FC00FF0
1FE01FE0
0FF03FC0
07F87F80
07F87F00
03FCFF00
01FFFE00
00FFFC00
007FF800
007FF800
003FF000
001FE000
003FF000
007FF800
00FFF800
00FFFC00
01FFFE00
03FCFF00
07F87F80
0FF03FC0
0FF03FC0
1FE01FE0
3FC00FF0
7F8007F8
FF0003FC
FF0003FC
7E0001F8
3C0000F0
08000040
ENDCHAR
STARTCHAR Oslash
ENCODING 216
SWIDTH 561 0
DWIDTH 36 0
BBX 32 57 2 -7
BITMAP
00000010
0000003C
0000007F
0000007F
000100FF
003FF8FE
007FFFFE
01FFFFFC
03FFFFFC
03FFFFF8
07FFFFF8
07F01FF0
0FE00FF0
0FE00FF0
1FC01FF0
1FC01FF8
1FC03FF8
1F803FF8
1F807FF8
1F807FF8
1F80FFF8
1F80FFF8
1F81FFF8
1F81FDF8
1F83FDF8
1F83F9F8
1F87F9F8
1F87F1F8
1F8FF1F8
1F8FE1F8
1F9FE1F8
1F9FC1F8
1FBFC1F8
1FBF81F8
1FFF81F8
1FFF01F8
1FFF01F8
1FFE03F8
1FFE03F8
1FFC03F8
1FFC03F8
0FF807F0
0FF807F0
0FF81FE0
0FFFFFE0
0FFFFFC0
1FFFFFC0
1FFFFF80
3FFFFE00
3FBFF800
7F818000
7F000000
FF000000
FE000000
FE000000
7C000000
18000000
ENDCHAR
STARTCHAR Ugrave
ENCODING 217
SWIDTH 561 0
DWIDTH 36 0
BBX 26 61 5 -1
BITMAP
04000000
0F000000
1FC00000
1FF00000
3FFC0000
3FFF0000
0FFFC000
01FFF000
003FF000
0007F000
0000E000
00000000
00000000
00000000
00000000
FC000FC0
FC000FC0
FC000FC0
FC000FC0
FC000FC0
FC000FC0
FC000FC0
FC000FC0
FC000FC0
FC000FC0
FC000FC0
FC000FC0
FC000FC0
FC000FC0
FC000FC0
FC000FC0
FC000FC0
FC000FC0
FC000FC0
FC000FC0
FC000FC0
FC000FC0
FC000FC0
FC000FC0
FC000FC0
FC000FC0
FC000FC0
FC000FC0
FC000FC0
FC000FC0
FC000FC0
FC000FC0
FC000FC0
FC000FC0
FE001FC0
FE001FC0
FE001FC0
7F003F80
7F807F80
7FFFFF80
3FFFFF00
1FFFFE00
0FFFFC00
07FFF800
01FFE000
000C0000
ENDCHAR
STARTCHAR Uacute
ENCODING 218
SWIDTH 561 0
DWIDTH 36 0
BBX 26 61 5 -1
BITMAP
00000800
00003C00
0000FE00
0003FE00
000FFE00
003FFF00
00FFFC00
03FFE000
03FF0000
03F80000
01C00000
00000000
00000000
00000000
00000000
FC000FC0
FC000FC0
FC000FC0
FC000FC0
FC000FC0
FC000FC0
FC000FC0
FC000FC0
FC000FC0
FC000FC0
FC000FC0
FC000FC0
FC000FC0
FC000FC0
FC000FC0
FC000FC0
FC000FC0
FC000FC0
FC000FC0
FC000FC0
FC000FC0
FC000FC0
FC000FC0
FC000FC0
FC000FC0
FC000FC0
FC000FC0
FC000FC0
FC000FC0
FC000FC0
FC000FC0
FC000FC0
FC000FC0
FC000FC0
FE001FC0
FE001FC0
FE001FC0
7F003F80
7F807F80
7FFFFF80
3FFFFF00
1FFFFE00
0FFFFC00
07FFF800
01FFE000
000C0000
ENDCHAR
STARTCHAR Ucircumflex
ENCODING 219
SWIDTH 561 0
DWIDTH 36 0
BBX 26 58 5 -1
BITMAP
001E0000
007F8000
01FFE000
07FFF800
0FF3FC00
3FC0FF00
3F807F00
3F003F00
1C000E00
00000000
00000000
00000000
FC000FC0
FC000FC0
FC000FC0
FC000FC0
FC000FC0
FC000FC0
FC000FC0
FC000FC0
FC000FC0
FC000FC0
FC000FC0
FC000FC0
FC000FC0
FC000FC0
FC000FC0
FC000FC0
FC000FC0
FC000FC0
FC000FC0
FC000FC0
FC000FC0
FC000FC0
FC000FC0
FC000FC0
FC000FC0
FC000FC0
FC000FC0
FC000FC0
FC000FC0
FC000FC0
FC000FC0
FC000FC0
FC000FC0
FC000FC0
FE001FC0
FE001FC0
FE001FC0
7F003F80
7F807F80
7FFFFF80
3FFFFF00
1FFFFE00
0FFFFC00
07FFF800
01FFE000
000C0000
ENDCHAR
STARTCHAR Udieresis
ENCODING 220
SWIDTH 561 0
DWIDTH 36 0
BBX 26 59 5 -1
BITMAP
0F807C00
0F807C00
0F807C00
0F807C00
0F807C00
0F807C00
00000000
00000000
00000000
00000000
00000000
00000000
00000000
FC000FC0
FC000FC0
FC000FC0
FC000FC0
FC000FC0
FC000FC0
FC000FC0
FC000FC0
FC000FC0
FC000FC0
FC000FC0
FC000FC0
FC000FC0
FC000FC0
FC000FC0
FC000FC0
FC000FC0
FC000FC0
FC000FC0
FC000FC0
FC000FC0
FC000FC0
FC000FC0
FC000FC0
FC000FC0
FC000FC0
FC000FC0
FC000FC0
FC000FC0
FC000FC0
FC000FC0
FC000FC0
FC000FC0
FC000FC0
FE001FC0
FE001FC0
FE001FC0
7F003F80
7F807F80
7FFFFF80
3FFFFF00
1FFFFE00
0FFFFC00
07FFF800
01FFE000
000C0000
ENDCHAR
STARTCHAR Yacute
ENCODING 221
SWIDTH 561 0
DWIDTH 36 0
BBX 34 59 1 0
BITMAP
0000008000
000003C000
00000FE000
00003FE000
0000FFE000
0003FFF000
000FFFC000
003FFE0000
003FF00000
003F800000
001C000000
0000000000
0000000000
0000000000
FC00000FC0
FC00000FC0
FE00001FC0
FE00001FC0
7F00003F80
7F00003F80
3F80007F00
3F80007F00
1FC000FE00
1FC000FE00
0FE001FC00
0FE001FC00
07F003F800
07F003F800
03F807F000
03F807F000
01FC0FE000
01FC0FE000
00FE1FC000
00FF3FC000
007FFF8000
007FFF8000
003FFF0000
001FFE0000
000FFC0000
0003F00000
0003F00000
0003F00000
0003F00000
0003F00000
0003F00000
0003F00000
0003F00000
0003F00000
0003F00000
0003F00000
0003F00000
0003F00000
0003F00000
0003F00000
0003F00000
0003F00000
0003F00000
0003F00000
0003E00000
ENDCHAR
STARTCHAR Thorn
ENCODING 222
SWIDTH 561 0
DWIDTH 36 0
BBX 26 45 5 0
BITMAP
F8000000
FC000000
FC000000
FC000000
FFFF8000
FFFFF000
FFFFF800
FFFFFC00
FFFFFE00
FFFFFF00
FC01FF00
FC007F80
FC003F80
FC001FC0
FC001FC0
FC001FC0
FC001FC0
FC000FC0
FC000FC0
FC000FC0
FC000FC0
FC000FC0
FC000FC0
FC000FC0
FC001FC0
FC001FC0
FC001FC0
FC001F80
FC003F80
FC007F80
FC01FF80
FFFFFF00
FFFFFE00
FFFFFC00
FFFFF800
FFFFE000
FFFF8000
FC000000
FC000000
FC000000
FC000000
FC000000
FC000000
FC000000
FC000000
ENDCHAR
STARTCHAR germandbls
ENCODING 223
SWIDTH 561 0
DWIDTH 36 0
BBX 27 48 6 0
BITMAP
00FF8000
03FFE000
0FFFF800
1FFFFC00
3FFFFE00
7FFFFE00
7FC0FF00
7F007F00
FE003F00
FE003F00
FE003F00
FC003F00
FC007F00
FC00FF00
FC00FE00
FC01FE00
FC03FC00
FC07F800
FC07F800
FC07F000
FC0FE000
FC0FE000
FC0FF000
FC07F800
FC07FE00
FC03FF00
FC01FF00
FC00FF80
FC003FC0
FC001FC0
FC001FC0
FC000FE0
FC000FE0
FC000FE0
FC000FE0
FC000FE0
FC000FE0
FC000FE0
FC001FE0
FC001FC0
FC003FC0
FC00FF80
FC1FFF80
FC3FFF00
FC3FFE00
FC3FFC00
FC3FF000
FC1F8000
ENDCHAR
STARTCHAR agrave
ENCODING 224
SWIDTH 561 0
DWIDTH 36 0
BBX 26 51 4 -1
BITMAP
02000000
07800000
0FE00000
0FF80000
1FFE0000
1FFF8000
07FFE000
00FFF800
001FF800
0003F800
00007000
00000000
00000000
00000000
00000000
00000000
00000000
00040000
0FFFF000
0FFFFC00
1FFFFE00
0FFFFF00
0FFFFF00
0FFFFF80
00007F80
00003FC0
00001FC0
00001FC0
00001FC0
00001FC0
00001FC0
007FFFC0
07FFFFC0
0FFFFFC0
1FFFFFC0
3FFFFFC0
7FFFFFC0
7FC01FC0
FF001FC0
FE001FC0
FE001FC0
FE001FC0
FE001FC0
7F801FC0
7FFFFFC0
7FFFFFC0
3FFFFFC0
1FFFFFC0
0FFFFFC0
01FFFF80
00060000
ENDCHAR
STARTCHAR aacute
ENCODING 225
SWIDTH 561 0
DWIDTH 36 0
BBX 26 51 4 -1
BITMAP
00000400
00001E00
00007F00
0001FF00
0007FF00
001FFF80
007FFE00
01FFF000
01FF8000
01FC0000
00E00000
00000000
00000000
00000000
00000000
00000000
00000000
00040000
0FFFF000
0FFFFC00
1FFFFE00
0FFFFF00
0FFFFF00
0FFFFF80
00007F80
00003FC0
00001FC0
00001FC0
00001FC0
00001FC0
00001FC0
007FFFC0
07FFFFC0
0FFFFFC0
1FFFFFC0
3FFFFFC0
7FFFFFC0
7FC01FC0
FF001FC0
FE001FC0
FE001FC0
FE001FC0
FE001FC0
7F801FC0
7FFFFFC0
7FFFFFC0
3FFFFFC0
1FFFFFC0
0FFFFFC0
01FFFF80
00060000
ENDCHAR
STARTCHAR acircumflex
ENCODING 226
SWIDTH 561 0
DWIDTH 36 0
BBX 26 48 4 -1
BITMAP
000F0000
003FC000
00FFF000
03FFFC00
07F9FE00
1FE07F80
1FC03F80
1F801F80
0E000700
00000000
00000000
00000000
00000000
00000000
00040000
0FFFF000
0FFFFC00
1FFFFE00
0FFFFF00
0FFFFF00
0FFFFF80
00007F80
00003FC0
00001FC0
00001FC0
00001FC0
00001FC0
00001FC0
007FFFC0
07FFFFC0
0FFFFFC0
1FFFFFC0
3FFFFFC0
7FFFFFC0
7FC01FC0
FF001FC0
FE001FC0
FE001FC0
FE001FC0
FE001FC0
7F801FC0
7FFFFFC0
7FFFFFC0
3FFFFFC0
1FFFFFC0
0FFFFFC0
01FFFF80
00060000
ENDCHAR
STARTCHAR atilde
ENCODING 227
SWIDTH 561 0
DWIDTH 36 0
BBX 26 49 4 -1
BITMAP
01F00000
07FC0000
0FFE0380
1FFF87C0
3FFFFFC0
3E1FFF80
1C07FF00
0003FE00
0000F800
00000000
00000000
00000000
00000000
00000000
00000000
00040000
0FFFF000
0FFFFC00
1FFFFE00
0FFFFF00
0FFFFF00
0FFFFF80
00007F80
00003FC0
00001FC0
00001FC0
00001FC0
00001FC0
00001FC0
007FFFC0
07FFFFC0
0FFFFFC0
1FFFFFC0
3FFFFFC0
7FFFFFC0
7FC01FC0
FF001FC0
FE001FC0
FE001FC0
FE001FC0
FE001FC0
7F801FC0
7FFFFFC0
7FFFFFC0
3FFFFFC0
1FFFFFC0
0FFFFFC0
01FFFF80
00060000
ENDCHAR
STARTCHAR adieresis
ENCODING 228
SWIDTH 561 0
DWIDTH 36 0
BBX 26 49 4 -1
BITMAP
07C03E00
07C03E00
07C03E00
07C03E00
07C03E00
07C03E00
00000000
00000000
00000000
00000000
00000000
00000000
00000000
00000000
00000000
00040000
0FFFF000
0FFFFC00
1FFFFE00
0FFFFF00
0FFFFF00
0FFFFF80
00007F80
00003FC0
00001FC0
00001FC0
00001FC0
00001FC0
00001FC0
007FFFC0
07FFFFC0
0FFFFFC0
1FFFFFC0
3FFFFFC0
7FFFFFC0
7FC01FC0
FF001FC0
FE001FC0
FE001FC0
FE001FC0
FE001FC0
7F801FC0
7FFFFFC0
7FFFFFC0
3FFFFFC0
1FFFFFC0
0FFFFFC0
01FFFF80
00060000
ENDCHAR
STARTCHAR aring
ENCODING 229
SWIDTH 561 0
DWIDTH 36 0
BBX 26 50 4 -1
BITMAP
001F8000
007FE000
00FFF000
00FFF000
01F9F800
01F0F800
01F0F800
01F9F800
00FFF000
00FFF000
007FE000
001F8000
00000000
00000000
00000000
00000000
00040000
0FFFF000
0FFFFC00
1FFFFE00
0FFFFF00
0FFFFF00
0FFFFF80
00007F80
00003FC0
00001FC0
00001FC0
00001FC0
00001FC0
00001FC0
007FFFC0
07FFFFC0
0FFFFFC0
1FFFFFC0
3FFFFFC0
7FFFFFC0
7FC01FC0
FF001FC0
FE001FC0
FE001FC0
FE001FC0
FE001FC0
7F801FC0
7FFFFFC0
7FFFFFC0
3FFFFFC0
1FFFFFC0
0FFFFFC0
01FFFF80
00060000
ENDCHAR
STARTCHAR ae
ENCODING 230
SWIDTH 561 0
DWIDTH 36 0
BBX 35 34 0 -1
BITMAP
0008008000
07FF8FF800
0FFFFFFE00
0FFFFFFF00
0FFFFFFF80
0FFFFFFF80
0FFFFFFF80
0003FC1FC0
0001FC1FC0
0001F80FC0
0001F80FC0
0001F80FE0
0001FFFFE0
0001FFFFE0
007FFFFFE0
03FFFFFFE0
07FFFFFFE0
1FFFFFFFC0
3FFFF80000
3FFFF80000
7FC1F80000
7F01F80000
7E01F80000
FE01F80000
FE01FC0000
FF01FC0000
7F81FE0780
7FFFFFFFC0
7FFFFFFFC0
3FFFFFFFC0
1FFFFFFFC0
0FFFFFFF80
03FF8FFC00
003000C000
ENDCHAR
STARTCHAR ccedilla
ENCODING 231
SWIDTH 561 0
DWIDTH 36 0
BBX 26 49 5 -16
BITMAP
00010000
007FFE00
01FFFF80
07FFFFC0
0FFFFFC0
1FFFFFC0
1FFFFFC0
3FE00380
7F800000
7F000000
7F000000
FE000000
FE000000
FE000000
FC000000
FC000000
FC000000
FC000000
FC000000
FC000000
FE000000
FE000000
FE000000
7F000000
7F000000
7F800000
3FE00380
1FFFFFC0
1FFFFFC0
0FFFFFC0
07FFFFC0
01FFFF80
007FFE00
007D8000
00780000
00780000
00F80000
00FFF000
007FF800
003FFC00
001FFE00
0000FE00
00007E00
00007E00
0001FC00
03FFF800
07FFF000
07FFE000
01FF0000
ENDCHAR
STARTCHAR egrave
ENCODING 232
SWIDTH 561 0
DWIDTH 36 0
BBX 27 51 5 -1
BITMAP
04000000
0F000000
1FC00000
1FF00000
3FFC0000
3FFF0000
0FFFC000
01FFF000
003FF000
0007F000
0000E000
00000000
00000000
00000000
00000000
00000000
00000000
00040000
00FFC000
03FFF000
07FFFC00
0FFFFE00
1FFFFE00
3FFFFF00
3FC07F80
7F803F80
7F001F80
7E001FC0
FE000FC0
FFFFFFC0
FFFFFFC0
FFFFFFC0
FFFFFFC0
FFFFFFC0
FFFFFFC0
FC000000
FC000000
FE000000
FE000000
FE000000
7F000000
7F000000
7F800000
3FE00780
3FFFFFC0
1FFFFFC0
0FFFFFE0
07FFFFC0
01FFFF80
007FFC00
00018000
ENDCHAR
STARTCHAR eacute
ENCODING 233
SWIDTH 561 0
DWIDTH 36 0
BBX 27 51 5 -1
BITMAP
00000800
00003C00
0000FE00
0003FE00
000FFE00
003FFF00
00FFFC00
03FFE000
03FF0000
03F80000
01C00000
00000000
00000000
00000000
00000000
00000000
00000000
00040000
00FFC000
03FFF000
07FFFC00
0FFFFE00
1FFFFE00
3FFFFF00
3FC07F80
7F803F80
7F001F80
7E001FC0
FE000FC0
FFFFFFC0
FFFFFFC0
FFFFFFC0
FFFFFFC0
FFFFFFC0
FFFFFFC0
FC000000
FC000000
FE000000
FE000000
FE000000
7F000000
7F000000
7F800000
3FE00780
3FFFFFC0
1FFFFFC0
0FFFFFE0
07FFFFC0
01FFFF80
007FFC00
00018000
ENDCHAR
STARTCHAR ecircumflex
ENCODING 234
SWIDTH 561 0
DWIDTH 36 0
BBX 27 48 5 -1
BITMAP
001E0000
007F8000
01FFE000
07FFF800
0FF3FC00
3FC0FF00
3F807F00
3F003F00
1C000E00
00000000
00000000
00000000
00000000
00000000
00040000
00FFC000
03FFF000
07FFFC00
0FFFFE00
1FFFFE00
3FFFFF00
3FC07F80
7F803F80
7F001F80
7E001FC0
FE000FC0
FFFFFFC0
FFFFFFC0
FFFFFFC0
FFFFFFC0
FFFFFFC0
FFFFFFC0
FC000000
FC000000
FE000000
FE000000
FE000000
7F000000
7F000000
7F800000
3FE00780
3FFFFFC0
1FFFFFC0
0FFFFFE0
07FFFFC0
01FFFF80
007FFC00
00018000
ENDCHAR
STARTCHAR edieresis
ENCODING 235
SWIDTH 561 0
DWIDTH 36 0
BBX 27 49 5 -1
BITMAP
0F807C00
0F807C00
0F807C00
0F807C00
0F807C00
0F807C00
00000000
00000000
00000000
00000000
00000000
00000000
00000000
00000000
00000000
00040000
00FFC000
03FFF000
07FFFC00
0FFFFE00
1FFFFE00
3FFFFF00
3FC07F80
7F803F80
7F001F80
7E001FC0
FE000FC0
FFFFFFC0
FFFFFFC0
FFFFFFC0
FFFFFFC0
FFFFFFC0
FFFFFFC0
FC000000
FC000000
FE000000
FE000000
FE000000
7F000000
7F000000
7F800000
3FE00780
3FFFFFC0
1FFFFFC0
0FFFFFE0
07FFFFC0
01FFFF80
007FFC00
00018000
ENDCHAR
STARTCHAR igrave
ENCODING 236
SWIDTH 561 0
DWIDTH 36 0
BBX 26 50 5 0
BITMAP
04000000
0F000000
1FC00000
1FF00000
3FFC0000
3FFF0000
0FFFC000
01FFF000
003FF000
0007F000
0000E000
00000000
00000000
00000000
00000000
00000000
00000000
00000000
3FFF0000
3FFF0000
3FFF0000
3FFF0000
3FFF0000
3FFF0000
003F0000
003F0000
003F0000
003F0000
003F0000
003F0000
003F0000
003F0000
003F0000
003F0000
003F0000
003F0000
003F0000
003F0000
003F0000
003F0000
003F0000
003F0000
003F0000
003F0000
FFFFFFC0
FFFFFFC0
FFFFFFC0
FFFFFFC0
FFFFFFC0
FFFFFF80
ENDCHAR
STARTCHAR iacute
ENCODING 237
SWIDTH 561 0
DWIDTH 36 0
BBX 26 50 5 0
BITMAP
00000800
00003C00
0000FE00
0003FE00
000FFE00
003FFF00
00FFFC00
03FFE000
03FF0000
03F80000
01C00000
00000000
00000000
00000000
00000000
00000000
00000000
00000000
3FFF0000
3FFF0000
3FFF0000
3FFF0000
3FFF0000
3FFF0000
003F0000
003F0000
003F0000
003F0000
003F0000
003F0000
003F0000
003F0000
003F0000
003F0000
003F0000
003F0000
003F0000
003F0000
003F0000
003F0000
003F0000
003F0000
003F0000
003F0000
FFFFFFC0
FFFFFFC0
FFFFFFC0
FFFFFFC0
FFFFFFC0
FFFFFF80
ENDCHAR
STARTCHAR icircumflex
ENCODING 238
SWIDTH 561 0
DWIDTH 36 0
BBX 26 47 5 0
BITMAP
001E0000
007F8000
01FFE000
07FFF800
0FF3FC00
3FC0FF00
3F807F00
3F003F00
1C000E00
00000000
00000000
00000000
00000000
00000000
00000000
3FFF0000
3FFF0000
3FFF0000
3FFF0000
3FFF0000
3FFF0000
003F0000
003F0000
003F0000
003F0000
003F0000
003F0000
003F0000
003F0000
003F0000
003F0000
003F0000
003F0000
003F0000
003F0000
003F0000
003F0000
003F0000
003F0000
003F0000
003F0000
FFFFFFC0
FFFFFFC0
FFFFFFC0
FFFFFFC0
FFFFFFC0
FFFFFF80
ENDCHAR
STARTCHAR idieresis
ENCODING 239
SWIDTH 561 0
DWIDTH 36 0
BBX 26 48 5 0
BITMAP
0F807C00
0F807C00
0F807C00
0F807C00
0F807C00
0F807C00
00000000
00000000
00000000
00000000
00000000
00000000
00000000
00000000
00000000
00000000
3FFF0000
3FFF0000
3FFF0000
3FFF0000
3FFF0000
3FFF0000
003F0000
003F0000
003F0000
003F0000
003F0000
003F0000
003F0000
003F0000
003F0000
003F0000
003F0000
003F0000
003F0000
003F0000
003F0000
003F0000
003F0000
003F0000
003F0000
003F0000
FFFFFFC0
FFFFFFC0
FFFFFFC0
FFFFFFC0
FFFFFFC0
FFFFFF80
ENDCHAR
STARTCHAR eth
ENCODING 240
SWIDTH 561 0
DWIDTH 36 0
BBX 34 47 1 -1
BITMAP
0001000000
0003F00000
0003FC0000
0003FE0000
0003FF8000
0003FFCF00
0001FFFF80
00001FFF80
00000FFFC0
00003FFF80
0001FFFF00
0003FFFC00
0003FFFC00
0001FFFC00
0001F8FE00
0000E0FE00
000000FE00
0000007E00
0007F87F00
001FFF7F00
007FFFFF00
00FFFFFF00
01FFFFFF00
03FFFFFF00
07FE07FF00
07F801FF00
0FF0007F00
0FE0003F00
0FE0003F00
0FC0003F00
1FC0007F00
1FC0007F00
1FC0007F00
1FC0007F00
1FC000FE00
0FC000FE00
0FE000FE00
0FE001FE00
07F003FC00
07F807FC00
03FFFFF800
C3FFFFF000
01FFFFE000
00FFFFC000
003FFF8000
000FFE0000
0000400000
ENDCHAR
STARTCHAR ntilde
ENCODING 241
SWIDTH 561 0
DWIDTH 36 0
BBX 26 48 5 0
BITMAP
03E00000
0FF80000
1FFC0700
3FFF0F80
7FFFFF80
7C3FFF00
380FFE00
0007FC00
0001F000
00000000
00000000
00000000
00000000
00000000
00000000
00080000
7FFFE000
FFFFF800
FFFFFE00
FFFFFF00
FFFFFF00
FFFFFF80
FC007F80
FC003FC0
FC001FC0
FC001FC0
FC000FC0
FC000FC0
FC000FC0
FC000FC0
FC000FC0
FC000FC0
FC000FC0
FC000FC0
FC000FC0
FC000FC0
FC000FC0
FC000FC0
FC000FC0
FC000FC0
FC000FC0
FC000FC0
FC000FC0
FC000FC0
FC000FC0
FC000FC0
FC000FC0
FC000FC0
ENDCHAR
STARTCHAR ograve
ENCODING 242
SWIDTH 561 0
DWIDTH 36 0
BBX 26 51 5 -1
BITMAP
04000000
0F000000
1FC00000
1FF00000
3FFC0000
3FFF0000
0FFFC000
01FFF000
003FF000
0007F000
0000E000
00000000
00000000
00000000
00000000
00000000
00000000
00040000
00FFC000
03FFF000
07FFF800
0FFFFC00
1FFFFE00
3FFFFF00
3FC0FF00
7F807F80
7F003F80
7E003F80
FE001FC0
FE001FC0
FE001FC0
FC000FC0
FC000FC0
FC000FC0
FC000FC0
FC000FC0
FC000FC0
FE001FC0
FE001FC0
FE001FC0
7E001F80
7F003F80
7F807F80
3FC0FF00
3FFFFF00
1FFFFE00
0FFFFC00
07FFF800
03FFF000
00FFC000
00040000
ENDCHAR
STARTCHAR oacute
ENCODING 243
SWIDTH 561 0
DWIDTH 36 0
BBX 26 51 5 -1
BITMAP
00000800
00003C00
0000FE00
0003FE00
000FFE00
003FFF00
00FFFC00
03FFE000
03FF0000
03F80000
01C00000
00000000
00000000
00000000
00000000
00000000
00000000
00040000
00FFC000
03FFF000
07FFF800
0FFFFC00
1FFFFE00
3FFFFF00
3FC0FF00
7F807F80
7F003F80
7E003F80
FE001FC0
FE001FC0
FE001FC0
FC000FC0
FC000FC0
FC000FC0
FC000FC0
FC000FC0
FC000FC0
FE001FC0
FE001FC0
FE001FC0
7E001F80
7F003F80
7F807F80
3FC0FF00
3FFFFF00
1FFFFE00
0FFFFC00
07FFF800
03FFF000
00FFC000
00040000
ENDCHAR
STARTCHAR ocircumflex
ENCODING 244
SWIDTH 561 0
DWIDTH 36 0
BBX 26 48 5 -1
BITMAP
001E0000
007F8000
01FFE000
07FFF800
0FF3FC00
3FC0FF00
3F807F00
3F003F00
1C000E00
00000000
00000000
00000000
00000000
00000000
00040000
00FFC000
03FFF000
07FFF800
0FFFFC00
1FFFFE00
3FFFFF00
3FC0FF00
7F807F80
7F003F80
7E003F80
FE001FC0
FE001FC0
FE001FC0
FC000FC0
FC000FC0
FC000FC0
FC000FC0
FC000FC0
FC000FC0
FE001FC0
FE001FC0
FE001FC0
7E001F80
7F003F80
7F807F80
3FC0FF00
3FFFFF00
1FFFFE00
0FFFFC00
07FFF800
03FFF000
00FFC000
00040000
ENDCHAR
STARTCHAR otilde
ENCODING 245
SWIDTH 561 0
DWIDTH 36 0
BBX 26 49 5 -1
BITMAP
03E00000
0FF80000
1FFC0700
3FFF0F80
7FFFFF80
7C3FFF00
380FFE00
0007FC00
0001F000
00000000
00000000
00000000
00000000
00000000
00000000
00040000
00FFC000
03FFF000
07FFF800
0FFFFC00
1FFFFE00
3FFFFF00
3FC0FF00
7F807F80
7F003F80
7E003F80
FE001FC0
FE001FC0
FE001FC0
FC000FC0
FC000FC0
FC000FC0
FC000FC0
FC000FC0
FC000FC0
FE001FC0
FE001FC0
FE001FC0
7E001F80
7F003F80
7F807F80
3FC0FF00
3FFFFF00
1FFFFE00
0FFFFC00
07FFF800
03FFF000
00FFC000
00040000
ENDCHAR
STARTCHAR odieresis
ENCODING 246
SWIDTH 561 0
DWIDTH 36 0
BBX 26 49 5 -1
BITMAP
0F807C00
0F807C00
0F807C00
0F807C00
0F807C00
0F807C00
00000000
00000000
00000000
00000000
00000000
00000000
00000000
00000000
00000000
00040000
00FFC000
03FFF000
07FFF800
0FFFFC00
1FFFFE00
3FFFFF00
3FC0FF00
7F807F80
7F003F80
7E003F80
FE001FC0
FE001FC0
FE001FC0
FC000FC0
FC000FC0
FC000FC0
FC000FC0
FC000FC0
FC000FC0
FE001FC0
FE001FC0
FE001FC0
7E001F80
7F003F80
7F807F80
3FC0FF00
3FFFFF00
1FFFFE00
0FFFFC00
07FFF800
03FFF000
00FFC000
00040000
ENDCHAR
STARTCHAR divide
ENCODING 247
SWIDTH 561 0
DWIDTH 36 0
BBX 26 34 5 -1
BITMAP
000C0000
003F0000
003F0000
003F0000
003F0000
003F0000
003F0000
000C0000
00000000
00000000
00000000
00000000
00000000
00000000
FFFFFFC0
FFFFFFC0
FFFFFFC0
FFFFFFC0
FFFFFFC0
FFFFFFC0
00000000
00000000
00000000
00000000
00000000
00000000
000C0000
003F0000
003F0000
003F0000
003F0000
003F0000
003F0000
000C0000
ENDCHAR
STARTCHAR oslash
ENCODING 248
SWIDTH 561 0
DWIDTH 36 0
BBX 26 41 5 -5
BITMAP
00000C00
00001F00
00001F00
00043F00
00FFFF00
03FFFE00
07FFFE00
0FFFFC00
1FFFFE00
3FFFFF00
3FC1FF00
7F81FF80
7F03FF80
7E03FF80
FE07FFC0
FE07DFC0
FE0FDFC0
FC1F8FC0
FC1F8FC0
FC3F0FC0
FC3F0FC0
FC7E0FC0
FC7E0FC0
FEFC1FC0
FEFC1FC0
FFF81FC0
7FF81F80
7FF03F80
7FF07F80
3FE0FF00
3FFFFF00
1FFFFE00
0FFFFC00
1FFFF800
1FFFF000
3FFFC000
3F040000
7E000000
7E000000
7C000000
1C000000
ENDCHAR
STARTCHAR ugrave
ENCODING 249
SWIDTH 561 0
DWIDTH 36 0
BBX 26 51 5 -1
BITMAP
04000000
0F000000
1FC00000
1FF00000
3FFC0000
3FFF0000
0FFFC000
01FFF000
003FF000
0007F000
0000E000
00000000
00000000
00000000
00000000
00000000
00000000
00000000
FC000FC0
FC000FC0
FC000FC0
FC000FC0
FC000FC0
FC000FC0
FC000FC0
FC000FC0
FC000FC0
FC000FC0
FC000FC0
FC000FC0
FC000FC0
FC000FC0
FC000FC0
FC000FC0
FC000FC0
FC000FC0
FC000FC0
FC000FC0
FC000FC0
FC000FC0
FE000FC0
FE000FC0
FF000FC0
7F800FC0
7FFFFFC0
7FFFFFC0
3FFFFFC0
1FFFFFC0
0FFFFFC0
01FFFF80
00070000
ENDCHAR
STARTCHAR uacute
ENCODING 250
SWIDTH 561 0
DWIDTH 36 0
BBX 26 51 5 -1
BITMAP
00000800
00003C00
0000FE00
0003FE00
000FFE00
003FFF00
00FFFC00
03FFE000
03FF0000
03F80000
01C00000
00000000
00000000
00000000
00000000
00000000
00000000
00000000
FC000FC0
FC000FC0
FC000FC0
FC000FC0
FC000FC0
FC000FC0
FC000FC0
FC000FC0
FC000FC0
FC000FC0
FC000FC0
FC000FC0
FC000FC0
FC000FC0
FC000FC0
FC000FC0
FC000FC0
FC000FC0
FC000FC0
FC000FC0
FC000FC0
FC000FC0
FE000FC0
FE000FC0
FF000FC0
7F800FC0
7FFFFFC0
7FFFFFC0
3FFFFFC0
1FFFFFC0
0FFFFFC0
01FFFF80
00070000
ENDCHAR
STARTCHAR ucircumflex
ENCODING 251
SWIDTH 561 0
DWIDTH 36 0
BBX 26 48 5 -1
BITMAP
001E0000
007F8000
01FFE000
07FFF800
0FF3FC00
3FC0FF00
3F807F00
3F003F00
1C000E00
00000000
00000000
00000000
00000000
00000000
00000000
FC000FC0
FC000FC0
FC000FC0
FC000FC0
FC000FC0
FC000FC0
FC000FC0
FC000FC0
FC000FC0
FC000FC0
FC000FC0
FC000FC0
FC000FC0
FC000FC0
FC000FC0
FC000FC0
FC000FC0
FC000FC0
FC000FC0
FC000FC0
FC000FC0
FC000FC0
FE000FC0
FE000FC0
FF000FC0
7F800FC0
7FFFFFC0
7FFFFFC0
3FFFFFC0
1FFFFFC0
0FFFFFC0
01FFFF80
00070000
ENDCHAR
STARTCHAR udieresis
ENCODING 252
SWIDTH 561 0
DWIDTH 36 0
BBX 26 49 5 -1
BITMAP
0F807C00
0F807C00
0F807C00
0F807C00
0F807C00
0F807C00
00000000
00000000
00000000
00000000
00000000
00000000
00000000
00000000
00000000
00000000
FC000FC0
FC000FC0
FC000FC0
FC000FC0
FC000FC0
FC000FC0
FC000FC0
FC000FC0
FC000FC0
FC000FC0
FC000FC0
FC000FC0
FC000FC0
FC000FC0
FC000FC0
FC000FC0
FC000FC0
FC000FC0
FC000FC0
FC000FC0
FC000FC0
FC000FC0
FE000FC0
FE000FC0
FF000FC0
7F800FC0
7FFFFFC0
7FFFFFC0
3FFFFFC0
1FFFFFC0
0FFFFFC0
01FFFF80
00070000
ENDCHAR
STARTCHAR yacute
ENCODING 253
SWIDTH 561 0
DWIDTH 36 0
BBX 31 66 1 -16
BITMAP
00000080
000003C0
00000FE0
00003FE0
0000FFE0
0003FFF0
000FFFC0
003FFE00
003FF000
003F8000
001C0000
00000000
00000000
00000000
00000000
00000000
00000000
00000000
1F00003E
3F80007E
1F80007E
1FC000FE
1FC000FE
1FC000FE
0FC000FC
0FE001FC
0FE001FC
0FE001FC
07E001F8
07F003F8
07F003F8
07F003F8
03F007F0
03F807F0
03F807F0
03F807F0
01F80FE0
01FC0FE0
01FC0FE0
01FC0FE0
00FE1FC0
00FE1FC0
00FE1FC0
00FE1FC0
007FFF80
007FFF80
007FFF80
003FFF80
001FFF00
0007FF00
00007F00
00007F00
0000FE00
0000FE00
0000FE00
0001FC00
0001FC00
0003F800
0007F800
7C0FF000
7FFFF000
FFFFE000
FFFFC000
FFFF8000
7FFF0000
07F80000
ENDCHAR
STARTCHAR thorn
ENCODING 254
SWIDTH 561 0
DWIDTH 36 0
BBX 26 57 5 -12
BITMAP
FC000000
FC000000
FC000000
FC000000
FC000000
FC000000
FC000000
FC000000
FC000000
FC000000
FC000000
FC000000
FC100000
FFFFC000
FFFFF000
FFFFFC00
FFFFFE00
FFFFFF00
FFFFFF00
FC00FF80
FC003F80
FC003F80
FC001FC0
FC001FC0
FC001FC0
FC000FC0
FC000FC0
FC000FC0
FC000FC0
FC000FC0
FC000FC0
FC000FC0
FC001FC0
FC001FC0
FC001FC0
FC001FC0
FC003F80
FC007F80
FC01FF80
FFFFFF00
FFFFFE00
FFFFFC00
FFFFF800
FFFFF000
FFFF8000
FC000000
FC000000
FC000000
FC000000
FC000000
FC000000
FC000000
FC000000
FC000000
FC000000
FC000000
F8000000
ENDCHAR
STARTCHAR ydieresis
ENCODING 255
SWIDTH 561 0
DWIDTH 36 0
BBX 31 64 1 -16
BITMAP
00F807C0
00F807C0
00F807C0
00F807C0
00F807C0
00F807C0
00000000
00000000
00000000
00000000
00000000
00000000
00000000
00000000
00000000
00000000
1F00003E
3F80007E
1F80007E
1FC000FE
1FC000FE
1FC000FE
0FC000FC
0FE001FC
0FE001FC
0FE001FC
07E001F8
07F003F8
07F003F8
07F003F8
03F007F0
03F807F0
03F807F0
03F807F0
01F80FE0
01FC0FE0
01FC0FE0
01FC0FE0
00FE1FC0
00FE1FC0
00FE1FC0
00FE1FC0
007FFF80
007FFF80
007FFF80
003FFF80
001FFF00
0007FF00
00007F00
00007F00
0000FE00
0000FE00
0000FE00
0001FC00
0001FC00
0003F800
0007F800
7C0FF000
7FFFF000
FFFFE000
FFFFC000
FFFF8000
7FFF0000
07F80000
ENDCHAR
STARTCHAR Amacron
ENCODING 256
SWIDTH 561 0
DWIDTH 36 0
BBX 36 57 0 0
BITMAP
007FFFE000
007FFFE000
007FFFE000
007FFFE000
007FFFE000
0000000000
0000000000
0000000000
0000000000
0000000000
0000000000
0000400000
0003FC0000
000FFF0000
001FFF8000
001FFF8000
003FFFC000
003FFFC000
007F0FC000
007F0FE000
007F0FE000
007E07E000
00FE07E000
00FE07F000
00FE07F000
00FC03F000
01FC03F800
01FC03F800
01FC03F800
01F801F800
03F801FC00
03F801FC00
03F801FC00
03F000FC00
07F000FE00
07F000FE00
07F000FE00
07FFFFFE00
0FFFFFFF00
0FFFFFFF00
0FFFFFFF00
0FFFFFFF00
1FFFFFFF80
1FC0003F80
1FC0003F80
1F80001F80
3F80001FC0
3F80001FC0
3F80001FC0
3F00000FC0
7F00000FE0
7F00000FE0
7F00000FE0
7E000007E0
FE000007F0
FE000007F0
7C000003E0
ENDCHAR
STARTCHAR amacron
ENCODING 257
SWIDTH 561 0
DWIDTH 36 0
BBX 26 49 4 -1
BITMAP
07FFFE00
07FFFE00
07FFFE00
07FFFE00
07FFFE00
00000000
00000000
00000000
00000000
00000000
00000000
00000000
00000000
00000000
00000000
00040000
0FFFF000
0FFFFC00
1FFFFE00
0FFFFF00
0FFFFF00
0FFFFF80
00007F80
00003FC0
00001FC0
00001FC0
00001FC0
00001FC0
00001FC0
007FFFC0
07FFFFC0
0FFFFFC0
1FFFFFC0
3FFFFFC0
7FFFFFC0
7FC01FC0
FF001FC0
FE001FC0
FE001FC0
FE001FC0
FE001FC0
7F801FC0
7FFFFFC0
7FFFFFC0
3FFFFFC0
1FFFFFC0
0FFFFFC0
01FFFF80
00060000
ENDCHAR
STARTCHAR Abreve
ENCODING 258
SWIDTH 561 0
DWIDTH 36 0
BBX 36 58 0 0
BITMAP
01E0007800
03E000F800
01F000F800
01F801F800
01F803F000
00FE07F000
007FFFE000
003FFFC000
001FFF0000
0003FC0000
0000000000
0000000000
0000400000
0003FC0000
000FFF0000
001FFF8000
001FFF8000
003FFFC000
003FFFC000
007F0FC000
007F0FE000
007F0FE000
007E07E000
00FE07E000
00FE07F000
00FE07F000
00FC03F000
01FC03F800
01FC03F800
01FC03F800
01F801F800
03F801FC00
03F801FC00
03F801FC00
03F000FC00
07F000FE00
07F000FE00
07F000FE00
07FFFFFE00
0FFFFFFF00
0FFFFFFF00
0FFFFFFF00
0FFFFFFF00
1FFFFFFF80
1FC0003F80
1FC0003F80
1F80001F80
3F80001FC0
3F80001FC0
3F80001FC0
3F00000FC0
7F00000FE0
7F00000FE0
7F00000FE0
7E000007E0
FE000007F0
FE000007F0
7C000003E0
ENDCHAR
STARTCHAR abreve
ENCODING 259
SWIDTH 561 0
DWIDTH 36 0
BBX 26 50 4 -1
BITMAP
1E000780
3E000F80
1F000F80
1F801F80
1F803F00
0FE07F00
07FFFE00
03FFFC00
01FFF000
003FC000
00000000
00000000
00000000
00000000
00000000
00000000
00040000
0FFFF000
0FFFFC00
1FFFFE00
0FFFFF00
0FFFFF00
0FFFFF80
00007F80
00003FC0
00001FC0
00001FC0
00001FC0
00001FC0
00001FC0
007FFFC0
07FFFFC0
0FFFFFC0
1FFFFFC0
3FFFFFC0
7FFFFFC0
7FC01FC0
FF001FC0
FE001FC0
FE001FC0
FE001FC0
FE001FC0
7F801FC0
7FFFFFC0
7FFFFFC0
3FFFFFC0
1FFFFFC0
0FFFFFC0
01FFFF80
00060000
ENDCHAR
STARTCHAR Aogonek
ENCODING 260
SWIDTH 561 0
DWIDTH 36 0
BBX 36 59 0 -13
BITMAP
0000400000
0003FC0000
000FFF0000
001FFF8000
001FFF8000
003FFFC000
003FFFC000
007F0FC000
007F0FE000
007F0FE000
007E07E000
00FE07E000
00FE07F000
00FE07F000
00FC03F000
01FC03F800
01FC03F800
01FC03F800
01F801F800
03F801FC00
03F801FC00
03F801FC00
03F000FC00
07F000FE00
07F000FE00
07F000FE00
07FFFFFE00
0FFFFFFF00
0FFFFFFF00
0FFFFFFF00
0FFFFFFF00
1FFFFFFF80
1FC0003F80
1FC0003F80
1F80001F80
3F80001FC0
3F80001FC0
3F80001FC0
3F00000FC0
7F00000FE0
7F00000FE0
7F00000FE0
7E000007E0
FE000007F0
FE00001FF0
7C00003FE0
0000003C00
0000007C00
0000007C00
0000007C00
0000007C00
0000007C00
0000007C00
0000007E00
0000007E00
0000003F00
0000003F00
0000001F00
0000000E00
ENDCHAR
STARTCHAR aogonek
ENCODING 261
SWIDTH 561 0
DWIDTH 36 0
BBX 28 46 4 -13
BITMAP
00040000
0FFFF000
0FFFFC00
1FFFFE00
0FFFFF00
0FFFFF00
0FFFFF80
00007F80
00003FC0
00001FC0
00001FC0
00001FC0
00001FC0
00001FC0
007FFFC0
07FFFFC0
0FFFFFC0
1FFFFFC0
3FFFFFC0
7FFFFFC0
7FC01FC0
FF001FC0
FE001FC0
FE001FC0
FE001FC0
FE001FC0
7F801FC0
7FFFFFC0
7FFFFFC0
3FFFFFC0
1FFFFFC0
0FFFFFE0
01FFFFE0
000603C0
000007C0
000007C0
000007C0
000007C0
000007C0
000007C0
000007E0
000007E0
000003F0
000003F0
000001F0
000000E0
ENDCHAR
STARTCHAR Cacute
ENCODING 262
SWIDTH 561 0
DWIDTH 36 0
BBX 27 60 5 -1
BITMAP
00000100
00000780
00001FC0
00007FC0
0001FFE0
0007FFE0
001FFF80
007FFC00
007FE000
007F0000
00380000
00000000
00000000
00008000
003FFE00
00FFFF80
03FFFFC0
07FFFFC0
0FFFFFC0
0FFFFFC0
1FF00380
3FC00000
3F800000
7F800000
7F000000
7F000000
FE000000
FE000000
FE000000
FE000000
FC000000
FC000000
FC000000
FC000000
FC000000
FC000000
FC000000
FC000000
FC000000
FC000000
FC000000
FC000000
FC000000
FE000000
FE000000
FE000000
FE000000
7F000000
7F000000
7F800000
3F800000
3FC00000
1FF00380
0FFFFFC0
0FFFFFC0
07FFFFC0
03FFFFC0
00FFFF80
003FFE00
00008000
ENDCHAR
STARTCHAR cacute
ENCODING 263
SWIDTH 561 0
DWIDTH 36 0
BBX 26 51 5 -1
BITMAP
00000800
00003C00
0000FE00
0003FE00
000FFE00
003FFF00
00FFFC00
03FFE000
03FF0000
03F80000
01C00000
00000000
00000000
00000000
00000000
00000000
00000000
00010000
007FFE00
01FFFF80
07FFFFC0
0FFFFFC0
1FFFFFC0
1FFFFFC0
3FE00380
7F800000
7F000000
7F000000
FE000000
FE000000
FE000000
FC000000
FC000000
FC000000
FC000000
FC000000
FC000000
FE000000
FE000000
FE000000
7F000000
7F000000
7F800000
3FE00380
1FFFFFC0
1FFFFFC0
0FFFFFC0
07FFFFC0
01FFFF80
007FFE00
00018000
ENDCHAR
STARTCHAR Ccircumflex
ENCODING 264
SWIDTH 561 0
DWIDTH 36 0
BBX 27 57 5 -1
BITMAP
0003C000
000FF000
003FFC00
007FFF00
01FE7F80
07FC1FE0
07F00FE0
07E003E0
038001C0
00000000
00008000
003FFE00
00FFFF80
03FFFFC0
07FFFFC0
0FFFFFC0
0FFFFFC0
1FF00380
3FC00000
3F800000
7F800000
7F000000
7F000000
FE000000
FE000000
FE000000
FE000000
FC000000
FC000000
FC000000
FC000000
FC000000
FC000000
FC000000
FC000000
FC000000
FC000000
FC000000
FC000000
FC000000
FE000000
FE000000
FE000000
FE000000
7F000000
7F000000
7F800000
3F800000
3FC00000
1FF00380
0FFFFFC0
0FFFFFC0
07FFFFC0
03FFFFC0
00FFFF80
003FFE00
00008000
ENDCHAR
STARTCHAR ccircumflex
ENCODING 265
SWIDTH 561 0
DWIDTH 36 0
BBX 26 48 5 -1
BITMAP
001E0000
007F8000
01FFE000
07FFF800
0FF3FC00
3FC0FF00
3F807F00
3F003F00
1C000E00
00000000
00000000
00000000
00000000
00000000
00010000
007FFE00
01FFFF80
07FFFFC0
0FFFFFC0
1FFFFFC0
1FFFFFC0
3FE00380
7F800000
7F000000
7F000000
FE000000
FE000000
FE000000
FC000000
FC000000
FC000000
FC000000
FC000000
FC000000
FE000000
FE000000
FE000000
7F000000
7F000000
7F800000
3FE00380
1FFFFFC0
1FFFFFC0
0FFFFFC0
07FFFFC0
01FFFF80
007FFE00
00018000
ENDCHAR
STARTCHAR Ccaron
ENCODING 268
SWIDTH 561 0
DWIDTH 36 0
BBX 27 57 5 -1
BITMAP
018000C0
03C003C0
07E007E0
07F00FE0
07FC1FE0
01FE7F80
007FFE00
003FFC00
000FF000
0003C000
00008000
003FFE00
00FFFF80
03FFFFC0
07FFFFC0
0FFFFFC0
0FFFFFC0
1FF00380
3FC00000
3F800000
7F800000
7F000000
7F000000
FE000000
FE000000
FE000000
FE000000
FC000000
FC000000
FC000000
FC000000
FC000000
FC000000
FC000000
FC000000
FC000000
FC000000
FC000000
FC000000
FC000000
FE000000
FE000000
FE000000
FE000000
7F000000
7F000000
7F800000
3F800000
3FC00000
1FF00380
0FFFFFC0
0FFFFFC0
07FFFFC0
03FFFFC0
00FFFF80
003FFE00
00008000
ENDCHAR
STARTCHAR ccaron
ENCODING 269
SWIDTH 561 0
DWIDTH 36 0
BBX 26 49 5 -1
BITMAP
18000600
1E001E00
3F003F00
3F807F00
3FE1FE00
0FF3FC00
07FFF000
01FFE000
007F8000
001E0000
00000000
00000000
00000000
00000000
00000000
00010000
007FFE00
01FFFF80
07FFFFC0
0FFFFFC0
1FFFFFC0
1FFFFFC0
3FE00380
7F800000
7F000000
7F000000
FE000000
FE000000
FE000000
FC000000
FC000000
FC000000
FC000000
FC000000
FC000000
FE000000
FE000000
FE000000
7F000000
7F000000
7F800000
3FE00380
1FFFFFC0
1FFFFFC0
0FFFFFC0
07FFFFC0
01FFFF80
007FFE00
00018000
ENDCHAR
STARTCHAR Dcaron
ENCODING 270
SWIDTH 561 0
DWIDTH 36 0
BBX 31 56 2 0
BITMAP
030000C0
03C003C0
07E007E0
07F00FE0
07FC3FC0
01FE7F80
00FFFE00
003FFC00
000FF000
0003C000
00000000
7FFE0000
FFFFE000
FFFFFC00
FFFFFF00
FFFFFF80
FFFFFFC0
0FC1FFE0
0FC03FF0
0FC00FF0
0FC007F8
0FC003F8
0FC003FC
0FC001FC
0FC001FC
0FC000FC
0FC000FE
0FC000FE
0FC000FE
0FC000FE
0FC000FE
0FC000FE
0FC000FE
0FC000FE
0FC000FE
0FC000FE
0FC000FE
0FC000FE
0FC000FE
0FC000FE
0FC000FE
0FC000FC
0FC001FC
0FC001FC
0FC001FC
0FC003F8
0FC007F8
0FC00FF8
0FC03FF0
0FC1FFE0
0FFFFFE0
0FFFFFC0
0FFFFF00
0FFFFE00
0FFFF000
07FF0000
ENDCHAR
STARTCHAR dcaron
ENCODING 271
SWIDTH 561 0
DWIDTH 36 0
BBX 36 52 0 -1
BITMAP
00000001E0
00000003F0
00000003F0
000007C3F0
00000FE3F0
00000FE3F0
00000FE3F0
00000FE3F0
00000FE3F0
00000FE3F0
00000FE3F0
00000FE3F0
00000FE1E0
00000FE000
00000FE000
00000FE000
00000FE000
00000FE000
00008FE000
003FFFE000
00FFFFE000
03FFFFE000
07FFFFE000
0FFFFFE000
1FFFFFE000
1FF00FE000
3FC00FE000
3F800FE000
7F000FE000
7F000FE000
7F000FE000
7E000FE000
FE000FE000
FE000FE000
FE000FE000
FE000FE000
FE000FE000
FE000FE000
7E000FE000
7E000FE000
7F000FE000
7F000FE000
3F800FE000
3FC00FE000
1FE00FE000
1FFFFFE000
0FFFFFE000
07FFFFE000
03FFFFE000
00FFFFC000
003FFE0000
0001800000
ENDCHAR
STARTCHAR Dcroat
ENCODING 272
SWIDTH 561 0
DWIDTH 36 0
BBX 31 57 2 0
BITMAP
01FFFF80
01FFFF80
01FFFF80
01FFFF80
01FFFF80
00000000
00000000
00000000
00000000
00000000
00000000
00000000
7FFE0000
FFFFE000
FFFFFC00
FFFFFF00
FFFFFF80
FFFFFFC0
0FC1FFE0
0FC03FF0
0FC00FF0
0FC007F8
0FC003F8
0FC003FC
0FC001FC
0FC001FC
0FC000FC
0FC000FE
0FC000FE
0FC000FE
0FC000FE
0FC000FE
0FC000FE
0FC000FE
0FC000FE
0FC000FE
0FC000FE
0FC000FE
0FC000FE
0FC000FE
0FC000FE
0FC000FE
0FC000FC
0FC001FC
0FC001FC
0FC001FC
0FC003F8
0FC007F8
0FC00FF8
0FC03FF0
0FC1FFE0
0FFFFFE0
0FFFFFC0
0FFFFF00
0FFFFE00
0FFFF000
07FF0000
ENDCHAR
STARTCHAR dcroat
ENCODING 273
SWIDTH 561 0
DWIDTH 36 0
BBX 30 49 5 -1
BITMAP
00000FC0
00000FC0
00000FC0
000FFFF8
000FFFFC
000FFFFC
000FFFFC
000FFFF8
00000FC0
00000FC0
00000FC0
00000FC0
00000FC0
00000FC0
00000FC0
00010FC0
007FFFC0
01FFFFC0
07FFFFC0
0FFFFFC0
1FFFFFC0
1FFFFFC0
3FE00FC0
7FC00FC0
7F000FC0
7F000FC0
FE000FC0
FE000FC0
FE000FC0
FC000FC0
FC000FC0
FC000FC0
FC000FC0
FC000FC0
FC000FC0
FE000FC0
FE000FC0
FE000FC0
7F000FC0
7F000FC0
7F800FC0
3FE00FC0
1FFFFFC0
1FFFFFC0
0FFFFFC0
07FFFFC0
01FFFF80
007FFE00
00018000
ENDCHAR
STARTCHAR Emacron
ENCODING 274
SWIDTH 561 0
DWIDTH 36 0
BBX 28 57 5 0
BITMAP
0FFFFC00
0FFFFC00
0FFFFC00
0FFFFC00
0FFFFC00
00000000
00000000
00000000
00000000
00000000
00000000
00000000
FFFFFFC0
FFFFFFC0
FFFFFFE0
FFFFFFE0
FFFFFFC0
FFFFFFC0
FC000000
FC000000
FC000000
FC000000
FC000000
FC000000
FC000000
FC000000
FC000000
FC000000
FC000000
FC000000
FC000000
FFFFFF00
FFFFFF80
FFFFFF80
FFFFFF80
FFFFFF80
FFFFFF00
FC000000
FC000000
FC000000
FC000000
FC000000
FC000000
FC000000
FC000000
FC000000
FC000000
FC000000
FC000000
FC000000
FC000000
FFFFFFE0
FFFFFFF0
FFFFFFF0
FFFFFFF0
FFFFFFF0
FFFFFFE0
ENDCHAR
STARTCHAR emacron
ENCODING 275
SWIDTH 561 0
DWIDTH 36 0
BBX 27 49 5 -1
BITMAP
0FFFFC00
0FFFFC00
0FFFFC00
0FFFFC00
0FFFFC00
00000000
00000000
00000000
00000000
00000000
00000000
00000000
00000000
00000000
00000000
00040000
00FFC000
03FFF000
07FFFC00
0FFFFE00
1FFFFE00
3FFFFF00
3FC07F80
7F803F80
7F001F80
7E001FC0
FE000FC0
FFFFFFC0
FFFFFFC0
FFFFFFC0
FFFFFFC0
FFFFFFC0
FFFFFFC0
FC000000
FC000000
FE000000
FE000000
FE000000
7F000000
7F000000
7F800000
3FE00780
3FFFFFC0
1FFFFFC0
0FFFFFE0
07FFFFC0
01FFFF80
007FFC00
00018000
ENDCHAR
STARTCHAR Edotaccent
ENCODING 278
SWIDTH 561 0
DWIDTH 36 0
BBX 28 58 5 0
BITMAP
001E0000
003F0000
003F0000
003F0000
003F0000
001E0000
00000000
00000000
00000000
00000000
00000000
00000000
00000000
FFFFFFC0
FFFFFFC0
FFFFFFE0
FFFFFFE0
FFFFFFC0
FFFFFFC0
FC000000
FC000000
FC000000
FC000000
FC000000
FC000000
FC000000
FC000000
FC000000
FC000000
FC000000
FC000000
FC000000
FFFFFF00
FFFFFF80
FFFFFF80
FFFFFF80
FFFFFF80
FFFFFF00
FC000000
FC000000
FC000000
FC000000
FC000000
FC000000
FC000000
FC000000
FC000000
FC000000
FC000000
FC000000
FC000000
FC000000
FFFFFFE0
FFFFFFF0
FFFFFFF0
FFFFFFF0
FFFFFFF0
FFFFFFE0
ENDCHAR
STARTCHAR edotaccent
ENCODING 279
SWIDTH 561 0
DWIDTH 36 0
BBX 27 50 5 -1
BITMAP
001E0000
003F0000
003F0000
003F0000
003F0000
001E0000
00000000
00000000
00000000
00000000
00000000
00000000
00000000
00000000
00000000
00000000
00040000
00FFC000
03FFF000
07FFFC00
0FFFFE00
1FFFFE00
3FFFFF00
3FC07F80
7F803F80
7F001F80
7E001FC0
FE000FC0
FFFFFFC0
FFFFFFC0
FFFFFFC0
FFFFFFC0
FFFFFFC0
FFFFFFC0
FC000000
FC000000
FE000000
FE000000
FE000000
7F000000
7F000000
7F800000
3FE00780
3FFFFFC0
1FFFFFC0
0FFFFFE0
07FFFFC0
01FFFF80
007FFC00
00018000
ENDCHAR
STARTCHAR Eogonek
ENCODING 280
SWIDTH 561 0
DWIDTH 36 0
BBX 28 58 5 -13
BITMAP
FFFFFFC0
FFFFFFC0
FFFFFFE0
FFFFFFE0
FFFFFFC0
FFFFFFC0
FC000000
FC000000
FC000000
FC000000
FC000000
FC000000
FC000000
FC000000
FC000000
FC000000
FC000000
FC000000
FC000000
FFFFFF00
FFFFFF80
FFFFFF80
FFFFFF80
FFFFFF80
FFFFFF00
FC000000
FC000000
FC000000
FC000000
FC000000
FC000000
FC000000
FC000000
FC000000
FC000000
FC000000
FC000000
FC000000
FC000000
FFFFFFE0
FFFFFFF0
FFFFFFF0
FFFFFFF0
FFFFFFF0
FFFFFFE0
00000780
00000F80
00000F80
00000F80
00000F80
00000F80
00000F80
00000FC0
00000FC0
000007E0
000007E0
000003E0
000001C0
ENDCHAR
STARTCHAR eogonek
ENCODING 281
SWIDTH 561 0
DWIDTH 36 0
BBX 27 47 5 -14
BITMAP
00040000
00FFC000
03FFF000
07FFFC00
0FFFFE00
1FFFFE00
3FFFFF00
3FC07F80
7F803F80
7F001F80
7E001FC0
FE000FC0
FFFFFFC0
FFFFFFC0
FFFFFFC0
FFFFFFC0
FFFFFFC0
FFFFFFC0
FC000000
FC000000
FE000000
FE000000
FE000000
7F000000
7F000000
7F800000
3FE00380
3FFFFFC0
1FFFFFC0
0FFFFFE0
07FFFFC0
01FFFFC0
007FFFC0
00018780
00000F80
00000F80
00000F80
00000F80
00000F80
00000F80
00000FC0
00000FC0
000007E0
000007E0
000003E0
000001C0
00000180
ENDCHAR
STARTCHAR Ecaron
ENCODING 282
SWIDTH 561 0
DWIDTH 36 0
BBX 28 56 5 0
BITMAP
18000600
1E001E00
3F003F00
3F807F00
3FE1FE00
0FF3FC00
07FFF000
01FFE000
007F8000
001E0000
00000000
FFFFFFC0
FFFFFFC0
FFFFFFE0
FFFFFFE0
FFFFFFC0
FFFFFFC0
FC000000
FC000000
FC000000
FC000000
FC000000
FC000000
FC000000
FC000000
FC000000
FC000000
FC000000
FC000000
FC000000
FFFFFF00
FFFFFF80
FFFFFF80
FFFFFF80
FFFFFF80
FFFFFF00
FC000000
FC000000
FC000000
FC000000
FC000000
FC000000
FC000000
FC000000
FC000000
FC000000
FC000000
FC000000
FC000000
FC000000
FFFFFFE0
FFFFFFF0
FFFFFFF0
FFFFFFF0
FFFFFFF0
FFFFFFE0
ENDCHAR
STARTCHAR ecaron
ENCODING 283
SWIDTH 561 0
DWIDTH 36 0
BBX 27 49 5 -1
BITMAP
18000600
1E001E00
3F003F00
3F807F00
3FE1FE00
0FF3FC00
07FFF000
01FFE000
007F8000
001E0000
00000000
00000000
00000000
00000000
00000000
00040000
00FFC000
03FFF000
07FFFC00
0FFFFE00
1FFFFE00
3FFFFF00
3FC07F80
7F803F80
7F001F80
7E001FC0
FE000FC0
FFFFFFC0
FFFFFFC0
FFFFFFC0
FFFFFFC0
FFFFFFC0
FFFFFFC0
FC000000
FC000000
FE000000
FE000000
FE000000
7F000000
7F000000
7F800000
3FE00780
3FFFFFC0
1FFFFFC0
0FFFFFE0
07FFFFC0
01FFFF80
007FFC00
00018000
ENDCHAR
STARTCHAR Gcircumflex
ENCODING 284
SWIDTH 561 0
DWIDTH 36 0
BBX 27 57 5 -1
BITMAP
001E0000
007F8000
01FFE000
07FFF800
0FF3FC00
3FC0FF00
3F807F00
3F003F00
1C000E00
00000000
00008000
003FFE00
00FFFF80
03FFFFC0
07FFFFC0
0FFFFFC0
0FFFFFC0
1FF00380
3FC00000
3F800000
7F800000
7F000000
7F000000
FE000000
FE000000
FE000000
FE000000
FC000000
FC000000
FC000000
FC01FFC0
FC03FFE0
FC03FFE0
FC03FFE0
FC03FFE0
FC01FFE0
FC000FE0
FC000FE0
FC000FE0
FC000FE0
FE000FE0
FE000FE0
FE000FE0
FE000FE0
7F000FE0
7F000FE0
7F800FE0
3F800FE0
3FC00FE0
1FF00FE0
0FFFFFE0
0FFFFFE0
07FFFFE0
03FFFFE0
00FFFF80
003FFE00
00008000
ENDCHAR
STARTCHAR gcircumflex
ENCODING 285
SWIDTH 561 0
DWIDTH 36 0
BBX 34 63 3 -16
BITMAP
0007800000
001FE00000
007FF80000
01FFFE0000
03FCFF0000
0FF03FC000
0FE01FC000
0FC00FC000
0700038000
0000000000
0000000000
0000000000
0000000000
0000000000
0002000000
007FFFFC00
01FFFFFE00
03FFFFFE00
07FFFFFE00
0FFFFFFE00
1FFFFFF800
1FE01FE000
3FC00FF000
3F8007F000
3F8007F000
3F0003F000
3F0003F000
3F8007F000
3F8007F000
3F8007F000
1FC00FE000
1FF03FE000
0FFFFFC000
0FFFFFC000
07FFFF8000
07FFFE0000
0FFFFC0000
1FDFE00000
3F80000000
3F00000000
3F80000000
3FFFE00000
3FFFFF8000
3FFFFFF000
1FFFFFFC00
0FFFFFFE00
3FFFFFFF00
3F81FFFF80
7E0000FF80
FC00003F80
FC00001F80
FC00001FC0
FC00001FC0
FC00003F80
FE00003F80
FF0000FF80
FFE007FF00
7FFFFFFF00
7FFFFFFE00
3FFFFFFC00
0FFFFFF000
03FFFFC000
003FFE0000
ENDCHAR
STARTCHAR Gbreve
ENCODING 286
SWIDTH 561 0
DWIDTH 36 0
BBX 27 59 5 -1
BITMAP
3C000F00
7C001F00
3E001F00
3F003F00
3F007E00
1FC0FE00
0FFFFC00
07FFF800
03FFE000
007F8000
00000000
00000000
00008000
003FFE00
00FFFF80
03FFFFC0
07FFFFC0
0FFFFFC0
0FFFFFC0
1FF00380
3FC00000
3F800000
7F800000
7F000000
7F000000
FE000000
FE000000
FE000000
FE000000
FC000000
FC000000
FC000000
FC01FFC0
FC03FFE0
FC03FFE0
FC03FFE0
FC03FFE0
FC01FFE0
FC000FE0
FC000FE0
FC000FE0
FC000FE0
FE000FE0
FE000FE0
FE000FE0
FE000FE0
7F000FE0
7F000FE0
7F800FE0
3F800FE0
3FC00FE0
1FF00FE0
0FFFFFE0
0FFFFFE0
07FFFFE0
03FFFFE0
00FFFF80
003FFE00
00008000
ENDCHAR
STARTCHAR gbreve
ENCODING 287
SWIDTH 561 0
DWIDTH 36 0
BBX 34 65 3 -16
BITMAP
0F0003C000
1F0007C000
0F8007C000
0FC00FC000
0FC01F8000
07F03F8000
03FFFF0000
01FFFE0000
00FFF80000
001FE00000
0000000000
0000000000
0000000000
0000000000
0000000000
0000000000
0002000000
007FFFFC00
01FFFFFE00
03FFFFFE00
07FFFFFE00
0FFFFFFE00
1FFFFFF800
1FE01FE000
3FC00FF000
3F8007F000
3F8007F000
3F0003F000
3F0003F000
3F8007F000
3F8007F000
3F8007F000
1FC00FE000
1FF03FE000
0FFFFFC000
0FFFFFC000
07FFFF8000
07FFFE0000
0FFFFC0000
1FDFE00000
3F80000000
3F00000000
3F80000000
3FFFE00000
3FFFFF8000
3FFFFFF000
1FFFFFFC00
0FFFFFFE00
3FFFFFFF00
3F81FFFF80
7E0000FF80
FC00003F80
FC00001F80
FC00001FC0
FC00001FC0
FC00003F80
FE00003F80
FF0000FF80
FFE007FF00
7FFFFFFF00
7FFFFFFE00
3FFFFFFC00
0FFFFFF000
03FFFFC000
003FFE0000
ENDCHAR
STARTCHAR Hcircumflex
ENCODING 292
SWIDTH 561 0
DWIDTH 36 0
BBX 28 56 4 0
BITMAP
000F0000
003FC000
00FFF000
03FFFC00
07F9FE00
1FE07F80
1FC03F80
1F801F80
0E000700
00000000
00000000
F80003F0
FC0003F0
FC0003F0
FC0003F0
FC0003F0
FC0003F0
FC0003F0
FC0003F0
FC0003F0
FC0003F0
FC0003F0
FC0003F0
FC0003F0
FC0003F0
FC0003F0
FC0003F0
FC0003F0
FC0003F0
FFFFFFF0
FFFFFFF0
FFFFFFF0
FFFFFFF0
FFFFFFF0
FFFFFFF0
FC0003F0
FC0003F0
FC0003F0
FC0003F0
FC0003F0
FC0003F0
FC0003F0
FC0003F0
FC0003F0
FC0003F0
FC0003F0
FC0003F0
FC0003F0
FC0003F0
FC0003F0
FC0003F0
FC0003F0
FC0003F0
FC0003F0
FC0003F0
F80001F0
ENDCHAR
STARTCHAR hcircumflex
ENCODING 293
SWIDTH 561 0
DWIDTH 36 0
BBX 31 51 5 0
BITMAP
00007C00
0001FF00
0007FF80
F80FFFE0
FC3FCFF8
FCFF83FC
FCFE01FE
FCFC007C
FC700038
FC000000
FC000000
FC000000
FC000000
FC000000
FC000000
FC000000
FC000000
FC000000
FC080000
FFFFE000
FFFFF800
FFFFFE00
FFFFFF00
FFFFFF00
FFFFFF80
FC007F80
FC003FC0
FC001FC0
FC001FC0
FC000FC0
FC000FC0
FC000FC0
FC000FC0
FC000FC0
FC000FC0
FC000FC0
FC000FC0
FC000FC0
FC000FC0
FC000FC0
FC000FC0
FC000FC0
FC000FC0
FC000FC0
FC000FC0
FC000FC0
FC000FC0
FC000FC0
FC000FC0
FC000FC0
FC000FC0
ENDCHAR
STARTCHAR Itilde
ENCODING 296
SWIDTH 561 0
DWIDTH 36 0
BBX 26 57 5 0
BITMAP
03E00000
0FF80000
1FFC0700
3FFF0F80
7FFFFF80
7C3FFF00
380FFE00
0007FC00
0001F000
00000000
00000000
00000000
7FFFFF80
FFFFFFC0
FFFFFFC0
FFFFFFC0
FFFFFFC0
7FFFFF80
003F0000
003F0000
003F0000
003F0000
003F0000
003F0000
003F0000
003F0000
003F0000
003F0000
003F0000
003F0000
003F0000
003F0000
003F0000
003F0000
003F0000
003F0000
003F0000
003F0000
003F0000
003F0000
003F0000
003F0000
003F0000
003F0000
003F0000
003F0000
003F0000
003F0000
003F0000
003F0000
003F0000
FFFFFFC0
FFFFFFC0
FFFFFFC0
FFFFFFC0
FFFFFFC0
FFFFFFC0
ENDCHAR
STARTCHAR itilde
ENCODING 297
SWIDTH 561 0
DWIDTH 36 0
BBX 26 48 5 0
BITMAP
03E00000
0FF80000
1FFC0700
3FFF0F80
7FFFFF80
7C3FFF00
380FFE00
0007FC00
0001F000
00000000
00000000
00000000
00000000
00000000
00000000
00000000
3FFF0000
3FFF0000
3FFF0000
3FFF0000
3FFF0000
3FFF0000
003F0000
003F0000
003F0000
003F0000
003F0000
003F0000
003F0000
003F0000
003F0000
003F0000
003F0000
003F0000
003F0000
003F0000
003F0000
003F0000
003F0000
003F0000
003F0000
003F0000
FFFFFFC0
FFFFFFC0
FFFFFFC0
FFFFFFC0
FFFFFFC0
FFFFFF80
ENDCHAR
STARTCHAR Imacron
ENCODING 298
SWIDTH 561 0
DWIDTH 36 0
BBX 26 57 5 0
BITMAP
0FFFFC00
0FFFFC00
0FFFFC00
0FFFFC00
0FFFFC00
00000000
00000000
00000000
00000000
00000000
00000000
00000000
7FFFFF80
FFFFFFC0
FFFFFFC0
FFFFFFC0
FFFFFFC0
7FFFFF80
003F0000
003F0000
003F0000
003F0000
003F0000
003F0000
003F0000
003F0000
003F0000
003F0000
003F0000
003F0000
003F0000
003F0000
003F0000
003F0000
003F0000
003F0000
003F0000
003F0000
003F0000
003F0000
003F0000
003F0000
003F0000
003F0000
003F0000
003F0000
003F0000
003F0000
003F0000
003F0000
003F0000
FFFFFFC0
FFFFFFC0
FFFFFFC0
FFFFFFC0
FFFFFFC0
FFFFFFC0
ENDCHAR
STARTCHAR imacron
ENCODING 299
SWIDTH 561 0
DWIDTH 36 0
BBX 26 48 5 0
BITMAP
0FFFFC00
0FFFFC00
0FFFFC00
0FFFFC00
0FFFFC00
00000000
00000000
00000000
00000000
00000000
00000000
00000000
00000000
00000000
00000000
00000000
3FFF0000
3FFF0000
3FFF0000
3FFF0000
3FFF0000
3FFF0000
003F0000
003F0000
003F0000
003F0000
003F0000
003F0000
003F0000
003F0000
003F0000
003F0000
003F0000
003F0000
003F0000
003F0000
003F0000
003F0000
003F0000
003F0000
003F0000
003F0000
FFFFFFC0
FFFFFFC0
FFFFFFC0
FFFFFFC0
FFFFFFC0
FFFFFF80
ENDCHAR
STARTCHAR Iogonek
ENCODING 302
SWIDTH 561 0
DWIDTH 36 0
BBX 27 58 5 -13
BITMAP
7FFFFF80
FFFFFFC0
FFFFFFC0
FFFFFFC0
FFFFFFC0
7FFFFF80
003F0000
003F0000
003F0000
003F0000
003F0000
003F0000
003F0000
003F0000
003F0000
003F0000
003F0000
003F0000
003F0000
003F0000
003F0000
003F0000
003F0000
003F0000
003F0000
003F0000
003F0000
003F0000
003F0000
003F0000
003F0000
003F0000
003F0000
003F0000
003F0000
003F0000
003F0000
003F0000
003F0000
FFFFFFC0
FFFFFFC0
FFFFFFC0
FFFFFFC0
FFFFFFC0
FFFFFFC0
00000780
00000F80
00000F80
00000F80
00000F80
00000F80
00000F80
00000FC0
00000FC0
000007E0
000007E0
000003E0
000001C0
ENDCHAR
STARTCHAR iogonek
ENCODING 303
SWIDTH 561 0
DWIDTH 36 0
BBX 27 61 5 -13
BITMAP
001E0000
003F0000
003F0000
003F0000
003F0000
001E0000
00000000
00000000
00000000
00000000
00000000
00000000
00000000
00000000
00000000
00000000
3FFF0000
3FFF0000
3FFF0000
3FFF0000
3FFF0000
3FFF0000
003F0000
003F0000
003F0000
003F0000
003F0000
003F0000
003F0000
003F0000
003F0000
003F0000
003F0000
003F0000
003F0000
003F0000
003F0000
003F0000
003F0000
003F0000
003F0000
003F0000
FFFFFFC0
FFFFFFC0
FFFFFFC0
FFFFFFC0
FFFFFFC0
FFFFFFC0
00000780
00000F80
00000F80
00000F80
00000F80
00000F80
00000F80
00000FC0
00000FC0
000007E0
000007E0
000003E0
000001C0
ENDCHAR
STARTCHAR Idot
ENCODING 304
SWIDTH 561 0
DWIDTH 36 0
BBX 26 58 5 0
BITMAP
001E0000
003F0000
003F0000
003F0000
003F0000
001E0000
00000000
00000000
00000000
00000000
00000000
00000000
00000000
7FFFFF80
FFFFFFC0
FFFFFFC0
FFFFFFC0
FFFFFFC0
7FFFFF80
003F0000
003F0000
003F0000
003F0000
003F0000
003F0000
003F0000
003F0000
003F0000
003F0000
003F0000
003F0000
003F0000
003F0000
003F0000
003F0000
003F0000
003F0000
003F0000
003F0000
003F0000
003F0000
003F0000
003F0000
003F0000
003F0000
003F0000
003F0000
003F0000
003F0000
003F0000
003F0000
003F0000
FFFFFFC0
FFFFFFC0
FFFFFFC0
FFFFFFC0
FFFFFFC0
FFFFFFC0
ENDCHAR
STARTCHAR dotlessi
ENCODING 305
SWIDTH 561 0
DWIDTH 36 0
BBX 26 32 5 0
BITMAP
3FFF0000
3FFF0000
3FFF0000
3FFF0000
3FFF0000
3FFF0000
003F0000
003F0000
003F0000
003F0000
003F0000
003F0000
003F0000
003F0000
003F0000
003F0000
003F0000
003F0000
003F0000
003F0000
003F0000
003F0000
003F0000
003F0000
003F0000
003F0000
FFFFFFC0
FFFFFFC0
FFFFFFC0
FFFFFFC0
FFFFFFC0
FFFFFF80
ENDCHAR
STARTCHAR IJ
ENCODING 306
SWIDTH 561 0
DWIDTH 36 0
BBX 28 45 3 0
BITMAP
7FF83FF0
7FF87FF0
FFF87FF0
FFF87FF0
7FF87FF0
7FF87FF0
0FC003F0
0FC003F0
0FC003F0
0FC003F0
0FC003F0
0FC003F0
0FC003F0
0FC003F0
0FC003F0
0FC003F0
0FC003F0
0FC003F0
0FC003F0
0FC003F0
0FC003F0
0FC003F0
0FC003F0
0FC003F0
0FC003F0
0FC003F0
0FC003F0
0FC003F0
0FC003F0
0FC003F0
0FC003F0
0FC003F0
0FC003F0
0FC003F0
0FC003F0
0FC003F0
0FC003F0
0FC003F0
0FC007F0
7FF87FF0
FFFCFFF0
FFFCFFE0
FFFCFFE0
FFFCFF80
7FF87E00
ENDCHAR
STARTCHAR ij
ENCODING 307
SWIDTH 561 0
DWIDTH 36 0
BBX 27 64 4 -16
BITMAP
00F807E0
00FC07E0
00FC07E0
00FC07E0
00FC07E0
00FC07E0
00F807E0
00000000
00000000
00000000
00000000
00000000
00000000
00000000
00000000
00000000
3FFFFFE0
7FFFFFE0
7FFFFFE0
7FFFFFE0
7FFFFFE0
3FFFFFE0
00FC07E0
00FC07E0
00FC07E0
00FC07E0
00FC07E0
00FC07E0
00FC07E0
00FC07E0
00FC07E0
00FC07E0
00FC07E0
00FC07E0
00FC07E0
00FC07E0
00FC07E0
00FC07E0
00FC07E0
00FC07E0
00FC07E0
00FC07E0
00FC07E0
00FC07E0
00FC07E0
00FC07E0
00FC07E0
00F807E0
000007E0
00000FE0
00000FE0
00000FE0
00000FE0
00001FC0
00001FC0
00003FC0
0000FF80
3003FF80
7FFFFF00
7FFFFE00
7FFFFC00
FFFFF000
7FFFC000
1FFE0000
ENDCHAR
STARTCHAR Jcircumflex
ENCODING 308
SWIDTH 561 0
DWIDTH 36 0
BBX 27 57 4 -1
BITMAP
000F0000
003FC000
00FFF000
03FFFC00
07F9FE00
1FE07F80
1FC03F80
1F801F80
0E000700
00000000
00000000
03FFFFC0
07FFFFE0
07FFFFE0
07FFFFE0
07FFFFE0
03FFFFE0
000007E0
000007E0
000007E0
000007E0
000007E0
000007E0
000007E0
000007E0
000007E0
000007E0
000007E0
000007E0
000007E0
000007E0
000007E0
000007E0
000007E0
000007E0
000007E0
000007E0
000007E0
000007E0
000007E0
000007E0
00000FE0
00000FE0
00000FE0
00000FE0
00000FC0
00001FC0
00003FC0
00007F80
3800FF80
7FFFFF00
7FFFFE00
FFFFFC00
7FFFF800
3FFFF000
0FFFC000
00300000
ENDCHAR
STARTCHAR jcircumflex
ENCODING 309
SWIDTH 561 0
DWIDTH 36 0
BBX 27 57 4 -10
BITMAP
000F0000
003FC000
00FFF000
03FFFC00
07F9FE00
1FE07F80
1FC03F80
1F801F80
0E000700
00000000
00000000
00000000
00000000
00000000
00000000
3FFFFFC0
3FFFFFE0
3FFFFFE0
3FFFFFE0
3FFFFFE0
3FFFFFE0
000007E0
000007E0
000007E0
000007E0
000007E0
000007E0
000007E0
000007E0
000007E0
000007E0
000007E0
000007E0
000007E0
000007E0
000007E0
000007E0
000007E0
000007E0
000007E0
000007E0
000007E0
00000FE0
00000FE0
00000FE0
00000FE0
00001FC0
00001FC0
00003FC0
10007F80
7E01FF80
7FFFFF00
7FFFFE00
FFFFFC00
7FFFF800
1FFFE000
03FF0000
ENDCHAR
STARTCHAR Lacute
ENCODING 313
SWIDTH 561 0
DWIDTH 36 0
BBX 30 59 5 0
BITMAP
00000800
00003C00
0000FE00
0003FE00
000FFE00
003FFF00
00FFFC00
03FFE000
03FF0000
03F80000
01C00000
00000000
00000000
00000000
FC000000
FC000000
FC000000
FC000000
FC000000
FC000000
FC000000
FC000000
FC000000
FC000000
FC000000
FC000000
FC000000
FC000000
FC000000
FC000000
FC000000
FC000000
FC000000
FC000000
FC000000
FC000000
FC000000
FC000000
FC000000
FC000000
FC000000
FC000000
FC000000
FC000000
FC000000
FC000000
FC000000
FC000000
FC000000
FC000000
FC000000
FC000000
FC000000
FFFFFFFC
FFFFFFFC
FFFFFFFC
FFFFFFFC
FFFFFFFC
FFFFFFF8
ENDCHAR
STARTCHAR lacute
ENCODING 314
SWIDTH 561 0
DWIDTH 36 0
BBX 27 59 5 -1
BITMAP
00006000
0001F000
0007F000
001FF800
00FFF800
03FFF800
0FFFC000
1FFE0000
0FF00000
0F800000
04000000
00000000
00000000
7FFC0000
FFFE0000
FFFE0000
FFFE0000
FFFE0000
7FFE0000
00FE0000
00FE0000
00FE0000
00FE0000
00FE0000
00FE0000
00FE0000
00FE0000
00FE0000
00FE0000
00FE0000
00FE0000
00FE0000
00FE0000
00FE0000
00FE0000
00FE0000
00FE0000
00FE0000
00FE0000
00FE0000
00FE0000
00FE0000
00FE0000
00FE0000
00FE0000
00FE0000
00FE0000
00FE0000
00FE0000
00FE0000
007E0000
007F0000
007FFF80
007FFFC0
003FFFC0
001FFFE0
000FFFE0
0003FFC0
00001000
ENDCHAR
STARTCHAR Lcaron
ENCODING 317
SWIDTH 561 0
DWIDTH 36 0
BBX 30 56 5 0
BITMAP
18000600
1E001E00
3F003F00
3F807F00
3FE1FE00
0FF3FC00
07FFF000
01FFE000
007F8000
001E0000
00000000
FC000000
FC000000
FC000000
FC000000
FC000000
FC000000
FC000000
FC000000
FC000000
FC000000
FC000000
FC000000
FC000000
FC000000
FC000000
FC000000
FC000000
FC000000
FC000000
FC000000
FC000000
FC000000
FC000000
FC000000
FC000000
FC000000
FC000000
FC000000
FC000000
FC000000
FC000000
FC000000
FC000000
FC000000
FC000000
FC000000
FC000000
FC000000
FC000000
FFFFFFFC
FFFFFFFC
FFFFFFFC
FFFFFFFC
FFFFFFFC
FFFFFFF8
ENDCHAR
STARTCHAR lcaron
ENCODING 318
SWIDTH 561 0
DWIDTH 36 0
BBX 27 59 5 -1
BITMAP
10000800
3C001C00
3E003E00
7F00FF00
7FC1FE00
1FE3FC00
07FFF000
03FFC000
00FF8000
003E0000
00000000
00000000
00000000
7FFC0000
FFFE0000
FFFE0000
FFFE0000
FFFE0000
7FFE0000
00FE0000
00FE0000
00FE0000
00FE0000
00FE0000
00FE0000
00FE0000
00FE0000
00FE0000
00FE0000
00FE0000
00FE0000
00FE0000
00FE0000
00FE0000
00FE0000
00FE0000
00FE0000
00FE0000
00FE0000
00FE0000
00FE0000
00FE0000
00FE0000
00FE0000
00FE0000
00FE0000
00FE0000
00FE0000
00FE0000
00FE0000
007E0000
007F0000
007FFF80
007FFFC0
003FFFC0
001FFFE0
000FFFE0
0003FFC0
00001000
ENDCHAR
STARTCHAR Ldot
ENCODING 319
SWIDTH 561 0
DWIDTH 36 0
BBX 30 45 5 0
BITMAP
FC000000
FC000000
FC000000
FC000000
FC000000
FC000000
FC000000
FC000000
FC000000
FC000000
FC000000
FC000000
FC000000
FC000000
FC000000
FC000000
FC000000
FC000000
FC000000
FC000000
FC003E00
FC007F00
FC007F00
FC007F00
FC007F00
FC007F00
FC003E00
FC000000
FC000000
FC000000
FC000000
FC000000
FC000000
FC000000
FC000000
FC000000
FC000000
FC000000
FC000000
FFFFFFFC
FFFFFFFC
FFFFFFFC
FFFFFFFC
FFFFFFFC
FFFFFFF8
ENDCHAR
STARTCHAR ldot
ENCODING 320
SWIDTH 561 0
DWIDTH 36 0
BBX 28 49 5 -1
BITMAP
7FFC0000
FFFE0000
FFFE0000
FFFE0000
FFFE0000
7FFE0000
00FE0000
00FE0000
00FE0000
00FE0000
00FE0000
00FE0000
00FE0000
00FE0000
00FE0000
00FE0000
00FE0000
00FE0000
00FE0000
00FE0000
00FE0000
00FE0000
00FE0000
00FE0000
00FE0000
00FE03E0
00FE07E0
00FE07F0
00FE07F0
00FE07F0
00FE07E0
00FE03E0
00FE0000
00FE0000
00FE0000
00FE0000
00FE0000
00FE0000
00FE0000
00FE0000
007E0000
007F0000
007FFF80
007FFFC0
003FFFC0
001FFFE0
000FFFE0
0003FFC0
00001000
ENDCHAR
STARTCHAR Lslash
ENCODING 321
SWIDTH 561 0
DWIDTH 36 0
BBX 35 45 0 0
BITMAP
07E0000000
07E0000000
07E0000000
07E0000000
07E0000000
07E0000000
07E0000000
07E0000000
07E0000000
07E0000000
07E0000000
07E0000000
07E0000000
07E0C00000
07E1E00000
07E7F00000
07EFF00000
07FFE00000
07FFC00000
07FF000000
07FE000000
07FC000000
0FF0000000
3FE0000000
7FE0000000
FFE0000000
7FE0000000
7FE0000000
37E0000000
07E0000000
07E0000000
07E0000000
07E0000000
07E0000000
07E0000000
07E0000000
07E0000000
07E0000000
07E0000000
07FFFFFFE0
07FFFFFFE0
07FFFFFFE0
07FFFFFFE0
07FFFFFFE0
07FFFFFFC0
ENDCHAR
STARTCHAR lslash
ENCODING 322
SWIDTH 561 0
DWIDTH 36 0
BBX 27 49 5 -1
BITMAP
7FFC0000
FFFE0000
FFFE0000
FFFE0000
FFFE0000
7FFE0000
00FE0000
00FE0000
00FE0000
00FE0000
00FE0000
00FE0000
00FE0000
00FE0000
00FE0000
00FE0000
00FE3000
00FEF800
00FFF800
00FFFC00
00FFF800
00FFE000
00FFC000
00FF8000
01FE0000
07FE0000
0FFE0000
1FFE0000
3FFE0000
3FFE0000
1EFE0000
0CFE0000
00FE0000
00FE0000
00FE0000
00FE0000
00FE0000
00FE0000
00FE0000
00FE0000
007E0000
007F0000
007FFF80
007FFFC0
003FFFC0
001FFFE0
000FFFE0
0003FFC0
00001000
ENDCHAR
STARTCHAR Nacute
ENCODING 323
SWIDTH 561 0
DWIDTH 36 0
BBX 28 59 4 0
BITMAP
00000400
00001E00
00007F00
0001FF00
0007FF00
001FFF80
007FFE00
01FFF000
01FF8000
01FC0000
00E00000
00000000
00000000
00000000
F80003E0
FE0003F0
FE0003F0
FF0003F0
FF0003F0
FF8003F0
FF8003F0
FFC003F0
FFC003F0
FFE003F0
FFE003F0
FFF003F0
FFF003F0
FFF003F0
FDF803F0
FDF803F0
FCFC03F0
FCFC03F0
FC7E03F0
FC7E03F0
FC3F03F0
FC3F03F0
FC1F83F0
FC1F83F0
FC0FC3F0
FC0FC3F0
FC07E3F0
FC07E3F0
FC03F3F0
FC03F3F0
FC01FBF0
FC01FBF0
FC00FFF0
FC00FFF0
FC007FF0
FC007FF0
FC003FF0
FC003FF0
FC001FF0
FC001FF0
FC000FF0
FC000FF0
FC0007F0
FC0007F0
FC0001F0
ENDCHAR
STARTCHAR nacute
ENCODING 324
SWIDTH 561 0
DWIDTH 36 0
BBX 26 50 5 0
BITMAP
00000800
00003C00
0000FE00
0003FE00
000FFE00
003FFF00
00FFFC00
03FFE000
03FF0000
03F80000
01C00000
00000000
00000000
00000000
00000000
00000000
00000000
00080000
7FFFE000
FFFFF800
FFFFFE00
FFFFFF00
FFFFFF00
FFFFFF80
FC007F80
FC003FC0
FC001FC0
FC001FC0
FC000FC0
FC000FC0
FC000FC0
FC000FC0
FC000FC0
FC000FC0
FC000FC0
FC000FC0
FC000FC0
FC000FC0
FC000FC0
FC000FC0
FC000FC0
FC000FC0
FC000FC0
FC000FC0
FC000FC0
FC000FC0
FC000FC0
FC000FC0
FC000FC0
FC000FC0
ENDCHAR
STARTCHAR Ncaron
ENCODING 327
SWIDTH 561 0
DWIDTH 36 0
BBX 28 56 4 0
BITMAP
0C000300
0F000F00
1F801F80
1FC03F80
1FF0FF00
07F9FE00
03FFF800
00FFF000
003FC000
000F0000
00000000
F80003E0
FE0003F0
FE0003F0
FF0003F0
FF0003F0
FF8003F0
FF8003F0
FFC003F0
FFC003F0
FFE003F0
FFE003F0
FFF003F0
FFF003F0
FFF003F0
FDF803F0
FDF803F0
FCFC03F0
FCFC03F0
FC7E03F0
FC7E03F0
FC3F03F0
FC3F03F0
FC1F83F0
FC1F83F0
FC0FC3F0
FC0FC3F0
FC07E3F0
FC07E3F0
FC03F3F0
FC03F3F0
FC01FBF0
FC01FBF0
FC00FFF0
FC00FFF0
FC007FF0
FC007FF0
FC003FF0
FC003FF0
FC001FF0
FC001FF0
FC000FF0
FC000FF0
FC0007F0
FC0007F0
FC0001F0
ENDCHAR
STARTCHAR ncaron
ENCODING 328
SWIDTH 561 0
DWIDTH 36 0
BBX 26 48 5 0
BITMAP
18000600
1E001E00
3F003F00
3F807F00
3FE1FE00
0FF3FC00
07FFF000
01FFE000
007F8000
001E0000
00000000
00000000
00000000
00000000
00000000
00080000
7FFFE000
FFFFF800
FFFFFE00
FFFFFF00
FFFFFF00
FFFFFF80
FC007F80
FC003FC0
FC001FC0
FC001FC0
FC000FC0
FC000FC0
FC000FC0
FC000FC0
FC000FC0
FC000FC0
FC000FC0
FC000FC0
FC000FC0
FC000FC0
FC000FC0
FC000FC0
FC000FC0
FC000FC0
FC000FC0
FC000FC0
FC000FC0
FC000FC0
FC000FC0
FC000FC0
FC000FC0
FC000FC0
ENDCHAR
STARTCHAR Omacron
ENCODING 332
SWIDTH 561 0
DWIDTH 36 0
BBX 26 59 5 -1
BITMAP
0FFFFC00
0FFFFC00
0FFFFC00
0FFFFC00
0FFFFC00
00000000
00000000
00000000
00000000
00000000
00000000
00000000
00080000
01FFE000
03FFF000
0FFFFC00
1FFFFE00
1FFFFE00
3FFFFF00
3F80FF00
7F003F80
7F003F80
FE001FC0
FE001FC0
FE001FC0
FC001FC0
FC000FC0
FC000FC0
FC000FC0
FC000FC0
FC000FC0
FC000FC0
FC000FC0
FC000FC0
FC000FC0
FC000FC0
FC000FC0
FC000FC0
FC000FC0
FC000FC0
FC000FC0
FC000FC0
FC000FC0
FC000FC0
FC000FC0
FC001FC0
FE001FC0
FE001FC0
FE001F80
7F003F80
7F003F80
7FC0FF00
3FFFFF00
1FFFFE00
1FFFFE00
0FFFFC00
03FFF000
01FFC000
000C0000
ENDCHAR
STARTCHAR omacron
ENCODING 333
SWIDTH 561 0
DWIDTH 36 0
BBX 26 49 5 -1
BITMAP
0FFFFC00
0FFFFC00
0FFFFC00
0FFFFC00
0FFFFC00
00000000
00000000
00000000
00000000
00000000
00000000
00000000
00000000
00000000
00000000
00040000
00FFC000
03FFF000
07FFF800
0FFFFC00
1FFFFE00
3FFFFF00
3FC0FF00
7F807F80
7F003F80
7E003F80
FE001FC0
FE001FC0
FE001FC0
FC000FC0
FC000FC0
FC000FC0
FC000FC0
FC000FC0
FC000FC0
FE001FC0
FE001FC0
FE001FC0
7E001F80
7F003F80
7F807F80
3FC0FF00
3FFFFF00
1FFFFE00
0FFFFC00
07FFF800
03FFF000
00FFC000
00040000
ENDCHAR
STARTCHAR Ohungarumlaut
ENCODING 336
SWIDTH 561 0
DWIDTH 36 0
BBX 28 59 5 -1
BITMAP
00600180
00F003C0
01F807E0
03FC0FF0
07F80FE0
0FF01FC0
1FE03F80
1FC07F00
1F807E00
1F003C00
0E001800
00000000
00080000
01FFE000
03FFF000
0FFFFC00
1FFFFE00
1FFFFE00
3FFFFF00
3F80FF00
7F003F80
7F003F80
FE001FC0
FE001FC0
FE001FC0
FC001FC0
FC000FC0
FC000FC0
FC000FC0
FC000FC0
FC000FC0
FC000FC0
FC000FC0
FC000FC0
FC000FC0
FC000FC0
FC000FC0
FC000FC0
FC000FC0
FC000FC0
FC000FC0
FC000FC0
FC000FC0
FC000FC0
FC000FC0
FC001FC0
FE001FC0
FE001FC0
FE001F80
7F003F80
7F003F80
7FC0FF00
3FFFFF00
1FFFFE00
1FFFFE00
0FFFFC00
03FFF000
01FFC000
000C0000
ENDCHAR
STARTCHAR ohungarumlaut
ENCODING 337
SWIDTH 561 0
DWIDTH 36 0
BBX 28 49 5 -1
BITMAP
00600180
00F003C0
01F807E0
03FC0FF0
07F80FE0
0FF01FC0
1FE03F80
1FC07F00
1F807E00
1F003C00
0E001800
00000000
00000000
00000000
00000000
00040000
00FFC000
03FFF000
07FFF800
0FFFFC00
1FFFFE00
3FFFFF00
3FC0FF00
7F807F80
7F003F80
7E003F80
FE001FC0
FE001FC0
FE001FC0
FC000FC0
FC000FC0
FC000FC0
FC000FC0
FC000FC0
FC000FC0
FE001FC0
FE001FC0
FE001FC0
7E001F80
7F003F80
7F807F80
3FC0FF00
3FFFFF00
1FFFFE00
0FFFFC00
07FFF800
03FFF000
00FFC000
00040000
ENDCHAR
STARTCHAR OE
ENCODING 338
SWIDTH 561 0
DWIDTH 36 0
BBX 28 45 5 0
BITMAP
007FFFE0
03FFFFE0
07FFFFE0
0FFFFFE0
1FFFFFE0
3FFFFFE0
3FCFE000
7F8FE000
7F0FE000
7E0FE000
FE0FE000
FE0FE000
FE0FE000
FC0FE000
FC0FE000
FC0FE000
FC0FE000
FC0FE000
FC0FE000
FC0FFFC0
FC0FFFE0
FC0FFFE0
FC0FFFE0
FC0FFFE0
FC0FFFC0
FC0FE000
FC0FE000
FC0FE000
FC0FE000
FC0FE000
FC0FE000
FC0FE000
FE0FE000
FE0FE000
FE0FE000
7E0FE000
7F0FE000
7F8FE000
3FCFE000
3FFFFFE0
1FFFFFF0
0FFFFFF0
07FFFFF0
03FFFFF0
007FFFE0
ENDCHAR
STARTCHAR oe
ENCODING 339
SWIDTH 561 0
DWIDTH 36 0
BBX 28 34 5 -1
BITMAP
00802000
07F0FE00
0FF9FF00
1FFBFF80
3FFFFF80
3FFFFFC0
7FFFFFC0
7E7FCFE0
7E3FCFE0
FE3F8FE0
FE3F87E0
FC3F87E0
FC3F87E0
FC3FFFE0
FC3FFFE0
FC3FFFF0
FC3FFFF0
FC3FFFE0
FC3FFFE0
FC3F8000
FC3F8000
FC3F8000
FC3F8000
FE3F8000
FE3F8000
7E3FC000
7E7FC000
7FFFFF80
3FFFFFC0
3FFFFFC0
1FFBFFE0
1FF9FFC0
07E0FFC0
00801000
ENDCHAR
STARTCHAR Racute
ENCODING 340
SWIDTH 561 0
DWIDTH 36 0
BBX 30 59 5 0
BITMAP
00000800
00003C00
0000FE00
0003FE00
000FFE00
003FFF00
00FFFC00
03FFE000
03FF0000
03F80000
01C00000
00000000
00000000
00000000
FFFF8000
FFFFF000
FFFFF800
FFFFFE00
FFFFFF00
FFFFFF80
FC01FF80
FC007FC0
FC003FC0
FC001FC0
FC000FE0
FC000FE0
FC000FE0
FC000FE0
FC000FE0
FC000FE0
FC001FC0
FC003FC0
FC007FC0
FC01FF80
FFFFFF80
FFFFFF00
FFFFFE00
FFFFFC00
FFFFF800
FFFFF800
FC01FC00
FC01FC00
FC00FE00
FC00FE00
FC007F00
FC007F00
FC003F80
FC003F80
FC001FC0
FC001FE0
FC000FE0
FC000FF0
FC0007F0
FC0007F8
FC0003F8
FC0003FC
FC0001FC
FC0001FC
FC0000FC
ENDCHAR
STARTCHAR racute
ENCODING 341
SWIDTH 561 0
DWIDTH 36 0
BBX 26 50 5 0
BITMAP
00000800
00003C00
0000FE00
0003FE00
000FFE00
003FFF00
00FFFC00
03FFE000
03FF0000
03F80000
01C00000
00000000
00000000
00000000
00000000
00000000
00000000
00080000
7FFFF000
FFFFFC00
FFFFFF00
FFFFFF80
FFFFFF80
FFFFFFC0
FC003FC0
FC001FC0
FC001FC0
FC000FC0
FC000FC0
FC000FC0
FC000000
FC000000
FC000000
FC000000
FC000000
FC000000
FC000000
FC000000
FC000000
FC000000
FC000000
FC000000
FC000000
FC000000
FC000000
FC000000
FC000000
FC000000
FC000000
FC000000
ENDCHAR
STARTCHAR Rcaron
ENCODING 344
SWIDTH 561 0
DWIDTH 36 0
BBX 30 56 5 0
BITMAP
18000600
1E001E00
3F003F00
3F807F00
3FE1FE00
0FF3FC00
07FFF000
01FFE000
007F8000
001E0000
00000000
FFFF8000
FFFFF000
FFFFF800
FFFFFE00
FFFFFF00
FFFFFF80
FC01FF80
FC007FC0
FC003FC0
FC001FC0
FC000FE0
FC000FE0
FC000FE0
FC000FE0
FC000FE0
FC000FE0
FC001FC0
FC003FC0
FC007FC0
FC01FF80
FFFFFF80
FFFFFF00
FFFFFE00
FFFFFC00
FFFFF800
FFFFF800
FC01FC00
FC01FC00
FC00FE00
FC00FE00
FC007F00
FC007F00
FC003F80
FC003F80
FC001FC0
FC001FE0
FC000FE0
FC000FF0
FC0007F0
FC0007F8
FC0003F8
FC0003FC
FC0001FC
FC0001FC
FC0000FC
ENDCHAR
STARTCHAR rcaron
ENCODING 345
SWIDTH 561 0
DWIDTH 36 0
BBX 26 48 5 0
BITMAP
18000600
1E001E00
3F003F00
3F807F00
3FE1FE00
0FF3FC00
07FFF000
01FFE000
007F8000
001E0000
00000000
00000000
00000000
00000000
00000000
00080000
7FFFF000
FFFFFC00
FFFFFF00
FFFFFF80
FFFFFF80
FFFFFFC0
FC003FC0
FC001FC0
FC001FC0
FC000FC0
FC000FC0
FC000FC0
FC000000
FC000000
FC000000
FC000000
FC000000
FC000000
FC000000
FC000000
FC000000
FC000000
FC000000
FC000000
FC000000
FC000000
FC000000
FC000000
FC000000
FC000000
FC000000
FC000000
ENDCHAR
STARTCHAR Sacute
ENCODING 346
SWIDTH 561 0
DWIDTH 36 0
BBX 29 60 4 -1
BITMAP
00000400
00001E00
00007F00
0001FF00
0007FF00
001FFF80
007FFE00
01FFF000
01FF8000
01FC0000
00E00000
00000000
00000000
00010000
007FFE00
01FFFF80
07FFFFC0
0FFFFFC0
1FFFFFC0
3FFFFF80
3FE00780
7F800000
7F000000
7F000000
7E000000
FE000000
FE000000
7E000000
7F000000
7F800000
7FC00000
3FE00000
3FFC0000
1FFFC000
0FFFF000
07FFFC00
01FFFF00
00FFFF80
001FFFC0
0001FFE0
00003FE0
00001FF0
00000FF0
000007F0
000003F8
000003F8
000003F8
000003F8
000003F8
000007F0
000007F0
00001FE0
38007FE0
7FFFFFC0
7FFFFF80
7FFFFF00
7FFFFE00
3FFFF800
0FFFE000
00180000
ENDCHAR
STARTCHAR sacute
ENCODING 347
SWIDTH 561 0
DWIDTH 36 0
BBX 24 51 6 -1
BITMAP
000010
000078
0001FC
0007FC
001FFC
007FFE
01FFF8
07FFC0
07FE00
07F000
038000
000000
000000
000000
000000
000000
000000
000800
03FFF8
0FFFFC
1FFFFC
3FFFFC
7FFFF8
7FFFF8
FF0000
FE0000
FE0000
FE0000
FE0000
FF8000
7FF800
7FFF80
3FFFE0
1FFFF8
07FFFC
00FFFE
0007FE
0000FE
00007F
00007F
00007F
00007F
00007F
0001FE
7FFFFE
FFFFFE
FFFFFC
FFFFF8
FFFFE0
7FFF80
006000
ENDCHAR
STARTCHAR Scircumflex
ENCODING 348
SWIDTH 561 0
DWIDTH 36 0
BBX 29 57 4 -1
BITMAP
000F0000
003FC000
00FFF000
03FFFC00
07F9FE00
1FE07F80
1FC03F80
1F801F80
0E000700
00000000
00010000
007FFE00
01FFFF80
07FFFFC0
0FFFFFC0
1FFFFFC0
3FFFFF80
3FE00780
7F800000
7F000000
7F000000
7E000000
FE000000
FE000000
7E000000
7F000000
7F800000
7FC00000
3FE00000
3FFC0000
1FFFC000
0FFFF000
07FFFC00
01FFFF00
00FFFF80
001FFFC0
0001FFE0
00003FE0
00001FF0
00000FF0
000007F0
000003F8
000003F8
000003F8
000003F8
000003F8
000007F0
000007F0
00001FE0
38007FE0
7FFFFFC0
7FFFFF80
7FFFFF00
7FFFFE00
3FFFF800
0FFFE000
00180000
ENDCHAR
STARTCHAR scircumflex
ENCODING 349
SWIDTH 561 0
DWIDTH 36 0
BBX 24 48 6 -1
BITMAP
003C00
00FF00
03FFC0
0FFFF0
1FE7F8
7F81FE
7F00FE
7E007E
38001C
000000
000000
000000
000000
000000
000800
03FFF8
0FFFFC
1FFFFC
3FFFFC
7FFFF8
7FFFF8
FF0000
FE0000
FE0000
FE0000
FE0000
FF8000
7FF800
7FFF80
3FFFE0
1FFFF8
07FFFC
00FFFE
0007FE
0000FE
00007F
00007F
00007F
00007F
00007F
0001FE
7FFFFE
FFFFFE
FFFFFC
FFFFF8
FFFFE0
7FFF80
006000
ENDCHAR
STARTCHAR Scedilla
ENCODING 350
SWIDTH 561 0
DWIDTH 36 0
BBX 29 62 4 -16
BITMAP
00010000
007FFE00
01FFFF80
07FFFFC0
0FFFFFC0
1FFFFFC0
3FFFFF80
3FE00780
7F800000
7F000000
7F000000
7E000000
FE000000
FE000000
7E000000
7F000000
7F000000
7F800000
3FE00000
3FF80000
1FFF8000
0FFFF000
07FFFC00
01FFFE00
00FFFF80
001FFFC0
0001FFC0
00003FE0
00001FF0
00000FF0
000007F0
000003F8
000003F8
000003F8
000003F8
000003F8
000007F0
000007F0
00001FF0
38007FE0
7FFFFFC0
7FFFFF80
7FFFFF80
7FFFFE00
3FFFFC00
0FFFE000
003F0000
003E0000
003C0000
007C0000
007FF800
003FFC00
001FFE00
000FFF00
00007F00
00003F00
00003F00
0000FE00
01FFFC00
03FFF800
03FFF000
00FF8000
ENDCHAR
STARTCHAR scedilla
ENCODING 351
SWIDTH 561 0
DWIDTH 36 0
BBX 24 49 6 -16
BITMAP
000800
03FFF8
0FFFFC
1FFFFC
3FFFFC
7FFFF8
7FFFF8
FF0000
FE0000
FE0000
FE0000
FE0000
FF0000
7FF000
7FFF80
3FFFE0
1FFFF0
07FFFC
00FFFC
0007FE
0000FE
00007F
00007F
00007F
00007F
00007F
0001FF
7FFFFE
FFFFFE
FFFFFC
FFFFF8
FFFFF0
FFFFC0
01FE00
00F800
00F000
01F000
01FFE0
00FFF0
007FF8
003FFC
0001FC
0000FC
0000FC
0003F8
07FFF0
0FFFE0
0FFFC0
03FE00
ENDCHAR
STARTCHAR Scaron
ENCODING 352
SWIDTH 561 0
DWIDTH 36 0
BBX 29 57 4 -1
BITMAP
0C000300
0F000F00
1F801F80
1FC03F80
1FF0FF00
07F9FE00
03FFF800
00FFF000
003FC000
000F0000
00010000
007FFE00
01FFFF80
07FFFFC0
0FFFFFC0
1FFFFFC0
3FFFFF80
3FE00780
7F800000
7F000000
7F000000
7E000000
FE000000
FE000000
7E000000
7F000000
7F800000
7FC00000
3FE00000
3FFC0000
1FFFC000
0FFFF000
07FFFC00
01FFFF00
00FFFF80
001FFFC0
0001FFE0
00003FE0
00001FF0
00000FF0
000007F0
000003F8
000003F8
000003F8
000003F8
000003F8
000007F0
000007F0
00001FE0
38007FE0
7FFFFFC0
7FFFFF80
7FFFFF00
7FFFFE00
3FFFF800
0FFFE000
00180000
ENDCHAR
STARTCHAR scaron
ENCODING 353
SWIDTH 561 0
DWIDTH 36 0
BBX 24 49 6 -1
BITMAP
30000C
3C003C
7E007E
7F00FE
7FC3FC
1FE7F8
0FFFE0
03FFC0
00FF00
003C00
000000
000000
000000
000000
000000
000800
03FFF8
0FFFFC
1FFFFC
3FFFFC
7FFFF8
7FFFF8
FF0000
FE0000
FE0000
FE0000
FE0000
FF8000
7FF800
7FFF80
3FFFE0
1FFFF8
07FFFC
00FFFE
0007FE
0000FE
00007F
00007F
00007F
00007F
00007F
0001FE
7FFFFE
FFFFFE
FFFFFC
FFFFF8
FFFFE0
7FFF80
006000
ENDCHAR
STARTCHAR uni0162
ENCODING 354
SWIDTH 561 0
DWIDTH 36 0
BBX 34 61 1 -16
BITMAP
FFFFFFFFC0
FFFFFFFFC0
FFFFFFFFC0
FFFFFFFFC0
FFFFFFFFC0
FFFFFFFFC0
0003F00000
0003F00000
0003F00000
0003F00000
0003F00000
0003F00000
0003F00000
0003F00000
0003F00000
0003F00000
0003F00000
0003F00000
0003F00000
0003F00000
0003F00000
0003F00000
0003F00000
0003F00000
0003F00000
0003F00000
0003F00000
0003F00000
0003F00000
0003F00000
0003F00000
0003F00000
0003F00000
0003F00000
0003F00000
0003F00000
0003F00000
0003F00000
0003F00000
0003F00000
0003F00000
0003F00000
0003F00000
0003F00000
0003F00000
0007C00000
0007C00000
0007800000
000F800000
000FFF0000
0007FF8000
0003FFC000
0001FFE000
00000FE000
000007E000
000007E000
00001FC000
003FFF8000
007FFF0000
007FFE0000
001FF00000
ENDCHAR
STARTCHAR uni0163
ENCODING 355
SWIDTH 561 0
DWIDTH 36 0
BBX 26 58 5 -16
BITMAP
00C00000
03F00000
03F80000
03F80000
03F80000
03F80000
03F80000
03F80000
03F80000
03F80000
FFFFFF00
FFFFFF00
FFFFFF00
FFFFFF00
FFFFFF00
FFFFFF00
03F80000
03F80000
03F80000
03F80000
03F80000
03F80000
03F80000
03F80000
03F80000
03F80000
03F80000
03F80000
03F80000
03F80000
03F80000
03F80000
03F80000
03F80000
01FC0000
01FE0100
01FFFF80
00FFFFC0
00FFFFC0
007FFFC0
003FFFC0
001FFF00
003C6000
007C0000
00780000
00F80000
00FFF000
007FF800
003FFC00
001FFE00
0000FE00
00007E00
00007E00
0001FC00
03FFF800
07FFF000
07FFE000
01FF0000
ENDCHAR
STARTCHAR Tcaron
ENCODING 356
SWIDTH 561 0
DWIDTH 36 0
BBX 34 56 1 0
BITMAP
0180006000
01E001E000
03F003F000
03F807F000
03FE1FE000
00FF3FC000
007FFF0000
001FFE0000
0007F80000
0001E00000
0000000000
FFFFFFFFC0
FFFFFFFFC0
FFFFFFFFC0
FFFFFFFFC0
FFFFFFFFC0
FFFFFFFFC0
0003F00000
0003F00000
0003F00000
0003F00000
0003F00000
0003F00000
0003F00000
0003F00000
0003F00000
0003F00000
0003F00000
0003F00000
0003F00000
0003F00000
0003F00000
0003F00000
0003F00000
0003F00000
0003F00000
0003F00000
0003F00000
0003F00000
0003F00000
0003F00000
0003F00000
0003F00000
0003F00000
0003F00000
0003F00000
0003F00000
0003F00000
0003F00000
0003F00000
0003F00000
0003F00000
0003F00000
0003F00000
0003F00000
0003F00000
ENDCHAR
STARTCHAR tcaron
ENCODING 357
SWIDTH 561 0
DWIDTH 36 0
BBX 26 55 5 -1
BITMAP
0000FF80
0000FF80
0000FF80
0000FF80
0000FF80
0000FF80
0000FF80
00007F80
00001F80
00001F80
00001F80
00C01F80
03F01F80
03F83F80
03F83F00
03F9FF00
03F9FF00
03F9FE00
03F9FC00
03F9F800
03F9F000
03F80000
FFFFFF00
FFFFFF00
FFFFFF00
FFFFFF00
FFFFFF00
FFFFFF00
03F80000
03F80000
03F80000
03F80000
03F80000
03F80000
03F80000
03F80000
03F80000
03F80000
03F80000
03F80000
03F80000
03F80000
03F80000
03F80000
03F80000
03F80000
01FC0000
01FE0100
01FFFF80
00FFFFC0
007FFFC0
003FFFC0
001FFFC0
0007FF00
00006000
ENDCHAR
STARTCHAR Tbar
ENCODING 358
SWIDTH 561 0
DWIDTH 36 0
BBX 34 57 1 0
BITMAP
00FFFFC000
00FFFFC000
00FFFFC000
00FFFFC000
00FFFFC000
0000000000
0000000000
0000000000
0000000000
0000000000
0000000000
0000000000
FFFFFFFFC0
FFFFFFFFC0
FFFFFFFFC0
FFFFFFFFC0
FFFFFFFFC0
FFFFFFFFC0
0003F00000
0003F00000
0003F00000
0003F00000
0003F00000
0003F00000
0003F00000
0003F00000
0003F00000
0003F00000
0003F00000
0003F00000
0003F00000
0003F00000
0003F00000
0003F00000
0003F00000
0003F00000
0003F00000
0003F00000
0003F00000
0003F00000
0003F00000
0003F00000
0003F00000
0003F00000
0003F00000
0003F00000
0003F00000
0003F00000
0003F00000
0003F00000
0003F00000
0003F00000
0003F00000
0003F00000
0003F00000
0003F00000
0003F00000
ENDCHAR
STARTCHAR tbar
ENCODING 359
SWIDTH 561 0
DWIDTH 36 0
BBX 26 44 5 -1
BITMAP
00C00000
03F00000
03F80000
03F80000
03F80000
03F80000
03F80000
03F80000
03F80000
03F80000
03F80000
FFFFFF00
FFFFFF00
FFFFFF00
FFFFFF00
FFFFFF00
FFFFFF00
03F80000
03F80000
03F80000
03F80000
03F80000
03F80000
FFFFFF00
FFFFFF00
FFFFFF00
FFFFFF00
FFFFFF00
FFFFFF00
03F80000
03F80000
03F80000
03F80000
03F80000
03F80000
01FC0000
01FE0100
00FFFF80
00FFFFC0
007FFFC0
003FFFC0
001FFFC0
0007FF00
00006000
ENDCHAR
STARTCHAR Utilde
ENCODING 360
SWIDTH 561 0
DWIDTH 36 0
BBX 26 59 5 -1
BITMAP
03E00000
0FF80000
1FFC0700
3FFF0F80
7FFFFF80
7C3FFF00
380FFE00
0007FC00
0001F000
00000000
00000000
00000000
00000000
FC000FC0
FC000FC0
FC000FC0
FC000FC0
FC000FC0
FC000FC0
FC000FC0
FC000FC0
FC000FC0
FC000FC0
FC000FC0
FC000FC0
FC000FC0
FC000FC0
FC000FC0
FC000FC0
FC000FC0
FC000FC0
FC000FC0
FC000FC0
FC000FC0
FC000FC0
FC000FC0
FC000FC0
FC000FC0
FC000FC0
FC000FC0
FC000FC0
FC000FC0
FC000FC0
FC000FC0
FC000FC0
FC000FC0
FC000FC0
FE001FC0
FE001FC0
FE001FC0
7F003F80
7F807F80
7FFFFF80
3FFFFF00
1FFFFE00
0FFFFC00
07FFF800
01FFE000
000C0000
ENDCHAR
STARTCHAR utilde
ENCODING 361
SWIDTH 561 0
DWIDTH 36 0
BBX 26 49 5 -1
BITMAP
03E00000
0FF80000
1FFC0700
3FFF0F80
7FFFFF80
7C3FFF00
380FFE00
0007FC00
0001F000
00000000
00000000
00000000
00000000
00000000
00000000
00000000
FC000FC0
FC000FC0
FC000FC0
FC000FC0
FC000FC0
FC000FC0
FC000FC0
FC000FC0
FC000FC0
FC000FC0
FC000FC0
FC000FC0
FC000FC0
FC000FC0
FC000FC0
FC000FC0
FC000FC0
FC000FC0
FC000FC0
FC000FC0
FC000FC0
FC000FC0
FE000FC0
FE000FC0
FF000FC0
7F800FC0
7FFFFFC0
7FFFFFC0
3FFFFFC0
1FFFFFC0
0FFFFFC0
01FFFF80
00070000
ENDCHAR
STARTCHAR Umacron
ENCODING 362
SWIDTH 561 0
DWIDTH 36 0
BBX 26 59 5 -1
BITMAP
0FFFFC00
0FFFFC00
0FFFFC00
0FFFFC00
0FFFFC00
00000000
00000000
00000000
00000000
00000000
00000000
00000000
00000000
FC000FC0
FC000FC0
FC000FC0
FC000FC0
FC000FC0
FC000FC0
FC000FC0
FC000FC0
FC000FC0
FC000FC0
FC000FC0
FC000FC0
FC000FC0
FC000FC0
FC000FC0
FC000FC0
FC000FC0
FC000FC0
FC000FC0
FC000FC0
FC000FC0
FC000FC0
FC000FC0
FC000FC0
FC000FC0
FC000FC0
FC000FC0
FC000FC0
FC000FC0
FC000FC0
FC000FC0
FC000FC0
FC000FC0
FC000FC0
FE001FC0
FE001FC0
FE001FC0
7F003F80
7F807F80
7FFFFF80
3FFFFF00
1FFFFE00
0FFFFC00
07FFF800
01FFE000
000C0000
ENDCHAR
STARTCHAR umacron
ENCODING 363
SWIDTH 561 0
DWIDTH 36 0
BBX 26 49 5 -1
BITMAP
0FFFFC00
0FFFFC00
0FFFFC00
0FFFFC00
0FFFFC00
00000000
00000000
00000000
00000000
00000000
00000000
00000000
00000000
00000000
00000000
00000000
FC000FC0
FC000FC0
FC000FC0
FC000FC0
FC000FC0
FC000FC0
FC000FC0
FC000FC0
FC000FC0
FC000FC0
FC000FC0
FC000FC0
FC000FC0
FC000FC0
FC000FC0
FC000FC0
FC000FC0
FC000FC0
FC000FC0
FC000FC0
FC000FC0
FC000FC0
FE000FC0
FE000FC0
FF000FC0
7F800FC0
7FFFFFC0
7FFFFFC0
3FFFFFC0
1FFFFFC0
0FFFFFC0
01FFFF80
00070000
ENDCHAR
STARTCHAR Ubreve
ENCODING 364
SWIDTH 561 0
DWIDTH 36 0
BBX 26 60 5 -1
BITMAP
3C000F00
7C001F00
3E001F00
3F003F00
3F007E00
1FC0FE00
0FFFFC00
07FFF800
03FFE000
007F8000
00000000
00000000
00000000
00000000
FC000FC0
FC000FC0
FC000FC0
FC000FC0
FC000FC0
FC000FC0
FC000FC0
FC000FC0
FC000FC0
FC000FC0
FC000FC0
FC000FC0
FC000FC0
FC000FC0
FC000FC0
FC000FC0
FC000FC0
FC000FC0
FC000FC0
FC000FC0
FC000FC0
FC000FC0
FC000FC0
FC000FC0
FC000FC0
FC000FC0
FC000FC0
FC000FC0
FC000FC0
FC000FC0
FC000FC0
FC000FC0
FC000FC0
FC000FC0
FE001FC0
FE001FC0
FE001FC0
7F003F80
7F807F80
7FFFFF80
3FFFFF00
1FFFFE00
0FFFFC00
07FFF800
01FFE000
000C0000
ENDCHAR
STARTCHAR ubreve
ENCODING 365
SWIDTH 561 0
DWIDTH 36 0
BBX 26 50 5 -1
BITMAP
3C000F00
7C001F00
3E001F00
3F003F00
3F007E00
1FC0FE00
0FFFFC00
07FFF800
03FFE000
007F8000
00000000
00000000
00000000
00000000
00000000
00000000
00000000
FC000FC0
FC000FC0
FC000FC0
FC000FC0
FC000FC0
FC000FC0
FC000FC0
FC000FC0
FC000FC0
FC000FC0
FC000FC0
FC000FC0
FC000FC0
FC000FC0
FC000FC0
FC000FC0
FC000FC0
FC000FC0
FC000FC0
FC000FC0
FC000FC0
FC000FC0
FE000FC0
FE000FC0
FF000FC0
7F800FC0
7FFFFFC0
7FFFFFC0
3FFFFFC0
1FFFFFC0
0FFFFFC0
01FFFF80
00070000
ENDCHAR
STARTCHAR Uring
ENCODING 366
SWIDTH 561 0
DWIDTH 36 0
BBX 26 60 5 -1
BITMAP
003F0000
00FFC000
01FFE000
01FFE000
03F3F000
03E1F000
03E1F000
03F3F000
01FFE000
01FFE000
00FFC000
003F0000
00000000
00000000
FC000FC0
FC000FC0
FC000FC0
FC000FC0
FC000FC0
FC000FC0
FC000FC0
FC000FC0
FC000FC0
FC000FC0
FC000FC0
FC000FC0
FC000FC0
FC000FC0
FC000FC0
FC000FC0
FC000FC0
FC000FC0
FC000FC0
FC000FC0
FC000FC0
FC000FC0
FC000FC0
FC000FC0
FC000FC0
FC000FC0
FC000FC0
FC000FC0
FC000FC0
FC000FC0
FC000FC0
FC000FC0
FC000FC0
FC000FC0
FE001FC0
FE001FC0
FE001FC0
7F003F80
7F807F80
7FFFFF80
3FFFFF00
1FFFFE00
0FFFFC00
07FFF800
01FFE000
000C0000
ENDCHAR
STARTCHAR uring
ENCODING 367
SWIDTH 561 0
DWIDTH 36 0
BBX 26 50 5 -1
BITMAP
003F0000
00FFC000
01FFE000
01FFE000
03F3F000
03E1F000
03E1F000
03F3F000
01FFE000
01FFE000
00FFC000
003F0000
00000000
00000000
00000000
00000000
00000000
FC000FC0
FC000FC0
FC000FC0
FC000FC0
FC000FC0
FC000FC0
FC000FC0
FC000FC0
FC000FC0
FC000FC0
FC000FC0
FC000FC0
FC000FC0
FC000FC0
FC000FC0
FC000FC0
FC000FC0
FC000FC0
FC000FC0
FC000FC0
FC000FC0
FC000FC0
FE000FC0
FE000FC0
FF000FC0
7F800FC0
7FFFFFC0
7FFFFFC0
3FFFFFC0
1FFFFFC0
0FFFFFC0
01FFFF80
00070000
ENDCHAR
STARTCHAR Uhungarumlaut
ENCODING 368
SWIDTH 561 0
DWIDTH 36 0
BBX 28 59 5 -1
BITMAP
00600180
00F003C0
01F807E0
03FC0FF0
07F80FE0
0FF01FC0
1FE03F80
1FC07F00
1F807E00
1F003C00
0E001800
00000000
00000000
FC000FC0
FC000FC0
FC000FC0
FC000FC0
FC000FC0
FC000FC0
FC000FC0
FC000FC0
FC000FC0
FC000FC0
FC000FC0
FC000FC0
FC000FC0
FC000FC0
FC000FC0
FC000FC0
FC000FC0
FC000FC0
FC000FC0
FC000FC0
FC000FC0
FC000FC0
FC000FC0
FC000FC0
FC000FC0
FC000FC0
FC000FC0
FC000FC0
FC000FC0
FC000FC0
FC000FC0
FC000FC0
FC000FC0
FC000FC0
FE001FC0
FE001FC0
FE001FC0
7F003F80
7F807F80
7FFFFF80
3FFFFF00
1FFFFE00
0FFFFC00
07FFF800
01FFE000
000C0000
ENDCHAR
STARTCHAR uhungarumlaut
ENCODING 369
SWIDTH 561 0
DWIDTH 36 0
BBX 28 49 5 -1
BITMAP
00600180
00F003C0
01F807E0
03FC0FF0
07F80FE0
0FF01FC0
1FE03F80
1FC07F00
1F807E00
1F003C00
0E001800
00000000
00000000
00000000
00000000
00000000
FC000FC0
FC000FC0
FC000FC0
FC000FC0
FC000FC0
FC000FC0
FC000FC0
FC000FC0
FC000FC0
FC000FC0
FC000FC0
FC000FC0
FC000FC0
FC000FC0
FC000FC0
FC000FC0
FC000FC0
FC000FC0
FC000FC0
FC000FC0
FC000FC0
FC000FC0
FE000FC0
FE000FC0
FF000FC0
7F800FC0
7FFFFFC0
7FFFFFC0
3FFFFFC0
1FFFFFC0
0FFFFFC0
01FFFF80
00070000
ENDCHAR
STARTCHAR Uogonek
ENCODING 370
SWIDTH 561 0
DWIDTH 36 0
BBX 27 59 5 -14
BITMAP
FC000FC0
FC000FC0
FC000FC0
FC000FC0
FC000FC0
FC000FC0
FC000FC0
FC000FC0
FC000FC0
FC000FC0
FC000FC0
FC000FC0
FC000FC0
FC000FC0
FC000FC0
FC000FC0
FC000FC0
FC000FC0
FC000FC0
FC000FC0
FC000FC0
FC000FC0
FC000FC0
FC000FC0
FC000FC0
FC000FC0
FC000FC0
FC000FC0
FC000FC0
FC000FC0
FC000FC0
FC000FC0
FC000FC0
FC000FC0
FE001FC0
FE001FC0
FE001FC0
7F003F80
7F807F80
7FFFFF80
3FFFFF00
1FFFFE00
0FFFFC00
07FFF9C0
01FFE3C0
000C0780
00000780
00000F80
00000F80
00000F80
00000F80
00000F80
00000FC0
00000FC0
000007E0
000007E0
000003E0
000003C0
00000180
ENDCHAR
STARTCHAR uogonek
ENCODING 371
SWIDTH 561 0
DWIDTH 36 0
BBX 27 46 5 -14
BITMAP
FC000F80
FC000FC0
FC000FC0
FC000FC0
FC000FC0
FC000FC0
FC000FC0
FC000FC0
FC000FC0
FC000FC0
FC000FC0
FC000FC0
FC000FC0
FC000FC0
FC000FC0
FC000FC0
FC000FC0
FC000FC0
FC000FC0
FC000FC0
FC000FC0
FC000FC0
FE000FC0
FE000FC0
FF000FC0
7F800FC0
7FFFFFC0
7FFFFFC0
3FFFFFC0
1FFFFFC0
0FFFFFC0
01FFFFC0
00060780
00000F80
00000F80
00000F80
00000F80
00000F80
00000F80
00000FC0
00000FC0
000007E0
000007E0
000003E0
000001C0
00000180
ENDCHAR
STARTCHAR Wcircumflex
ENCODING 372
SWIDTH 561 0
DWIDTH 36 0
BBX 34 56 1 0
BITMAP
0001E00000
0007F80000
001FFE0000
007FFF8000
00FF3FC000
03FC0FF000
03F807F000
03F003F000
01C000E000
0000000000
0000000000
7C00000F80
FE00001FC0
FE00001FC0
FE00001FC0
FE00001FC0
FE00001FC0
FE00001FC0
FE00001F80
FE00001F80
FE00001F80
7E00001F80
7E00001F80
7E00001F80
7E00001F80
7E00001F80
7E00001F80
7E00001F80
7E00001F80
7E00003F80
7E00003F80
7E00C03F80
7E03F03F80
7E07F03F80
7F07F83F80
7F0FF83F80
7F0FFC3F80
7F1FFC3F80
7F1FFE3F80
7F3F3E3F80
7F3F3F3F80
7F7E1F3F80
7F7E1FBF80
7FFC0FBF80
7FFC0FFF80
7FF807FF80
7FF807FF80
7FF003FF80
7FF003FF80
7FE001FF80
7FE001FF00
7FC000FF00
7FC000FF00
7F80007F00
3F00007F00
3E00001F00
ENDCHAR
STARTCHAR wcircumflex
ENCODING 373
SWIDTH 561 0
DWIDTH 36 0
BBX 34 47 1 0
BITMAP
0001E00000
0007F80000
001FFE0000
007FFF8000
00FF3FC000
03FC0FF000
03F807F000
03F003F000
01C000E000
0000000000
0000000000
0000000000
0000000000
0000000000
0000000000
7C00000F80
FE00001FC0
FE00001FC0
FE00001FC0
FE00001FC0
FE00001FC0
7E00001FC0
7E00001F80
7E03F01F80
7E03F01F80
7E07F81F80
7E07F81F80
7E0FFC1F80
7E0FFC1F80
7F1FFE3F80
7F1F3E3F80
7F3F3F3F80
7F3E1F3F80
7F7E1FBF80
7F7C0FBF80
7FFC0FFF80
7FF807FF80
7FF807FF80
7FF003FF80
7FF003FF80
7FE001FF80
7FE001FF80
7FC000FF80
3FC000FF80
3F80007F00
3F00003F00
3E00001F00
ENDCHAR
STARTCHAR Ycircumflex
ENCODING 374
SWIDTH 561 0
DWIDTH 36 0
BBX 34 56 1 0
BITMAP
0001E00000
0007F80000
001FFE0000
007FFF8000
00FF3FC000
03FC0FF000
03F807F000
03F003F000
01C000E000
0000000000
0000000000
FC00000FC0
FC00000FC0
FE00001FC0
FE00001FC0
7F00003F80
7F00003F80
3F80007F00
3F80007F00
1FC000FE00
1FC000FE00
0FE001FC00
0FE001FC00
07F003F800
07F003F800
03F807F000
03F807F000
01FC0FE000
01FC0FE000
00FE1FC000
00FF3FC000
007FFF8000
007FFF8000
003FFF0000
001FFE0000
000FFC0000
0003F00000
0003F00000
0003F00000
0003F00000
0003F00000
0003F00000
0003F00000
0003F00000
0003F00000
0003F00000
0003F00000
0003F00000
0003F00000
0003F00000
0003F00000
0003F00000
0003F00000
0003F00000
0003F00000
0003E00000
ENDCHAR
STARTCHAR ycircumflex
ENCODING 375
SWIDTH 561 0
DWIDTH 36 0
BBX 31 63 1 -16
BITMAP
0001E000
0007F800
001FFE00
007FFF80
00FF3FC0
03FC0FF0
03F807F0
03F003F0
01C000E0
00000000
00000000
00000000
00000000
00000000
00000000
1F00003E
3F80007E
1F80007E
1FC000FE
1FC000FE
1FC000FE
0FC000FC
0FE001FC
0FE001FC
0FE001FC
07E001F8
07F003F8
07F003F8
07F003F8
03F007F0
03F807F0
03F807F0
03F807F0
01F80FE0
01FC0FE0
01FC0FE0
01FC0FE0
00FE1FC0
00FE1FC0
00FE1FC0
00FE1FC0
007FFF80
007FFF80
007FFF80
003FFF80
001FFF00
0007FF00
00007F00
00007F00
0000FE00
0000FE00
0000FE00
0001FC00
0001FC00
0003F800
0007F800
7C0FF000
7FFFF000
FFFFE000
FFFFC000
FFFF8000
7FFF0000
07F80000
ENDCHAR
STARTCHAR Ydieresis
ENCODING 376
SWIDTH 561 0
DWIDTH 36 0
BBX 34 57 1 0
BITMAP
00F807C000
00F807C000
00F807C000
00F807C000
00F807C000
00F807C000
0000000000
0000000000
0000000000
0000000000
0000000000
0000000000
FC00000FC0
FC00000FC0
FE00001FC0
FE00001FC0
7F00003F80
7F00003F80
3F80007F00
3F80007F00
1FC000FE00
1FC000FE00
0FE001FC00
0FE001FC00
07F003F800
07F003F800
03F807F000
03F807F000
01FC0FE000
01FC0FE000
00FE1FC000
00FF3FC000
007FFF8000
007FFF8000
003FFF0000
001FFE0000
000FFC0000
0003F00000
0003F00000
0003F00000
0003F00000
0003F00000
0003F00000
0003F00000
0003F00000
0003F00000
0003F00000
0003F00000
0003F00000
0003F00000
0003F00000
0003F00000
0003F00000
0003F00000
0003F00000
0003F00000
0003E00000
ENDCHAR
STARTCHAR Zacute
ENCODING 377
SWIDTH 561 0
DWIDTH 36 0
BBX 30 59 3 0
BITMAP
00000200
00000F00
00003F80
0000FF80
0003FF80
000FFFC0
003FFF00
00FFF800
00FFC000
00FE0000
00700000
00000000
00000000
00000000
1FFFFFF8
3FFFFFF8
3FFFFFFC
3FFFFFFC
3FFFFFF8
1FFFFFF8
000001F8
000001F8
000003F8
000003F8
000003F0
000007F0
00000FE0
00001FE0
00003FC0
00007F80
0000FF00
0001FE00
0003FC00
0007F800
000FF000
001FE000
003FC000
007F8000
00FF0000
01FE0000
03FC0000
07F80000
0FF00000
0FE00000
1FC00000
3F800000
3F800000
3F000000
7F000000
7F000000
7E000000
7E000000
7E000000
FFFFFFF8
FFFFFFF8
FFFFFFFC
FFFFFFFC
7FFFFFF8
7FFFFFF8
ENDCHAR
STARTCHAR zacute
ENCODING 378
SWIDTH 561 0
DWIDTH 36 0
BBX 26 50 5 0
BITMAP
00000800
00003C00
0000FE00
0003FE00
000FFE00
003FFF00
00FFFC00
03FFE000
03FF0000
03F80000
01C00000
00000000
00000000
00000000
00000000
00000000
00000000
00000000
3FFFFFC0
7FFFFFC0
7FFFFFC0
7FFFFFC0
7FFFFFC0
3FFFFFC0
00003FC0
00007FC0
0000FF80
0001FF00
0003FE00
0007FC00
000FF800
001FF000
003FE000
007FC000
00FF8000
01FF0000
03FE0000
07FC0000
0FF80000
1FF00000
3FE00000
7FC00000
FF800000
FF000000
FFFFFFC0
FFFFFFC0
FFFFFFC0
FFFFFFC0
FFFFFFC0
FFFFFFC0
ENDCHAR
STARTCHAR Zdotaccent
ENCODING 379
SWIDTH 561 0
DWIDTH 36 0
BBX 30 58 3 0
BITMAP
00078000
000FC000
000FC000
000FC000
000FC000
00078000
00000000
00000000
00000000
00000000
00000000
00000000
00000000
1FFFFFF8
3FFFFFF8
3FFFFFFC
3FFFFFFC
3FFFFFF8
1FFFFFF8
000001F8
000001F8
000003F8
000003F8
000003F0
000007F0
00000FE0
00001FE0
00003FC0
00007F80
0000FF00
0001FE00
0003FC00
0007F800
000FF000
001FE000
003FC000
007F8000
00FF0000
01FE0000
03FC0000
07F80000
0FF00000
0FE00000
1FC00000
3F800000
3F800000
3F000000
7F000000
7F000000
7E000000
7E000000
7E000000
FFFFFFF8
FFFFFFF8
FFFFFFFC
FFFFFFFC
7FFFFFF8
7FFFFFF8
ENDCHAR
STARTCHAR zdotaccent
ENCODING 380
SWIDTH 561 0
DWIDTH 36 0
BBX 26 49 5 0
BITMAP
001E0000
003F0000
003F0000
003F0000
003F0000
001E0000
00000000
00000000
00000000
00000000
00000000
00000000
00000000
00000000
00000000
00000000
00000000
3FFFFFC0
7FFFFFC0
7FFFFFC0
7FFFFFC0
7FFFFFC0
3FFFFFC0
00003FC0
00007FC0
0000FF80
0001FF00
0003FE00
0007FC00
000FF800
001FF000
003FE000
007FC000
00FF8000
01FF0000
03FE0000
07FC0000
0FF80000
1FF00000
3FE00000
7FC00000
FF800000
FF000000
FFFFFFC0
FFFFFFC0
FFFFFFC0
FFFFFFC0
FFFFFFC0
FFFFFFC0
ENDCHAR
STARTCHAR Zcaron
ENCODING 381
SWIDTH 561 0
DWIDTH 36 0
BBX 30 56 3 0
BITMAP
06000180
07800780
0FC00FC0
0FE01FC0
0FF87F80
03FCFF00
01FFFC00
007FF800
001FE000
00078000
00000000
1FFFFFF8
3FFFFFF8
3FFFFFFC
3FFFFFFC
3FFFFFF8
1FFFFFF8
000001F8
000001F8
000003F8
000003F8
000003F0
000007F0
00000FE0
00001FE0
00003FC0
00007F80
0000FF00
0001FE00
0003FC00
0007F800
000FF000
001FE000
003FC000
007F8000
00FF0000
01FE0000
03FC0000
07F80000
0FF00000
0FE00000
1FC00000
3F800000
3F800000
3F000000
7F000000
7F000000
7E000000
7E000000
7E000000
FFFFFFF8
FFFFFFF8
FFFFFFFC
FFFFFFFC
7FFFFFF8
7FFFFFF8
ENDCHAR
STARTCHAR zcaron
ENCODING 382
SWIDTH 561 0
DWIDTH 36 0
BBX 26 45 5 0
BITMAP
18000600
1E001E00
3F003F00
3F807F00
3FE1FE00
0FF3FC00
07FFF000
01FFE000
007F8000
001E0000
00000000
00000000
00000000
3FFFFFC0
7FFFFFC0
7FFFFFC0
7FFFFFC0
7FFFFFC0
3FFFFFC0
00003FC0
00007FC0
0000FF80
0001FF00
0003FE00
0007FC00
000FF800
001FF000
003FE000
007FC000
00FF8000
01FF0000
03FE0000
07FC0000
0FF80000
1FF00000
3FE00000
7FC00000
FF800000
FF000000
FFFFFFC0
FFFFFFC0
FFFFFFC0
FFFFFFC0
FFFFFFC0
FFFFFFC0
ENDCHAR
STARTCHAR florin
ENCODING 402
SWIDTH 561 0
DWIDTH 36 0
BBX 31 55 3 -7
BITMAP
00007FF8
0001FFFE
0007FFFE
000FFFFE
001FFFFE
001FFFFC
003FC018
003F8000
003F0000
007F0000
007F0000
007F0000
007F0000
007E0000
007E0000
00FE0000
7FFFFFC0
7FFFFFC0
FFFFFFC0
FFFFFFC0
FFFFFFC0
7FFFFF80
01FC0000
01FC0000
01F80000
01F80000
03F80000
03F80000
03F80000
03F80000
03F00000
03F00000
07F00000
07F00000
07F00000
07E00000
07E00000
0FE00000
0FE00000
0FE00000
0FE00000
0FC00000
0FC00000
1FC00000
1FC00000
1FC00000
1FC00000
1F800000
1F800000
3F800000
3F800000
3F800000
3F000000
3F000000
1E000000
ENDCHAR
STARTCHAR uni019B
ENCODING 411
SWIDTH 561 0
DWIDTH 36 0
BBX 31 46 2 0
BITMAP
00000100
00000380
0F800FC0
1FE01FC0
1FF07FC0
1FFCFF00
1FFFFE00
0FFFF800
01FFF000
007FC000
007F8000
01FFC000
03FFC000
0FFFE000
1FEFE000
3FCFE000
3F0FF000
1E0FF000
181FF800
001FF800
003FFC00
003FFC00
007FFC00
007FFE00
007EFE00
00FE7F00
00FC7F00
01FC3F80
01FC3F80
01F81F80
03F81FC0
03F01FC0
07F00FE0
07F00FE0
0FE007F0
0FE007F0
0FC007F0
1FC003F8
1FC003F8
3F8001FC
3F8001FC
7F0000FC
7F0000FE
7F0000FE
FE00007E
7C00007E
ENDCHAR
STARTCHAR Ohorn
ENCODING 416
SWIDTH 561 0
DWIDTH 36 0
BBX 29 51 5 -1
BITMAP
000000E0
000000F8
000001F8
000001F8
000807F0
01FFFFE0
03FFFFC0
0FFFFF00
1FFFFC00
1FFFFE00
3FFFFF00
3F80FF00
7F003F80
7F003F80
FE001F80
FE001FC0
FE001FC0
FC001FC0
FC000FC0
FC000FC0
FC000FC0
FC000FC0
FC000FC0
FC000FC0
FC000FC0
FC000FC0
FC000FC0
FC000FC0
FC000FC0
FC000FC0
FC000FC0
FC000FC0
FC000FC0
FC000FC0
FC000FC0
FC000FC0
FC000FC0
FC001FC0
FE001FC0
FE001FC0
FE001F80
7F003F80
7F003F80
7FC0FF00
3FFFFF00
1FFFFE00
1FFFFE00
0FFFFC00
03FFF000
01FFC000
000C0000
ENDCHAR
STARTCHAR ohorn
ENCODING 417
SWIDTH 561 0
DWIDTH 36 0
BBX 29 39 5 -1
BITMAP
00000040
000000F0
000000F8
000001F8
000003F8
000407F0
00FFFFE0
03FFFFC0
07FFFF00
0FFFFC00
1FFFFE00
3FFFFF00
3FC0FF00
7F807F80
7F003F80
7E003F80
FE001FC0
FE001FC0
FE001FC0
FC000FC0
FC000FC0
FC000FC0
FC000FC0
FC000FC0
FC000FC0
FE001FC0
FE001FC0
FE001FC0
7E001F80
7F003F80
7F807F80
3FC0FF00
3FFFFF00
1FFFFE00
0FFFFC00
07FFF800
03FFF000
00FFC000
00040000
ENDCHAR
STARTCHAR Uhorn
ENCODING 431
SWIDTH 561 0
DWIDTH 36 0
BBX 34 51 5 -1
BITMAP
0000000600
0000000F80
0000000FC0
0000001F80
0000003F80
FC000FFF00
FC000FFE00
FC000FFC00
FC000FF000
FC000FC000
FC000FC000
FC000FC000
FC000FC000
FC000FC000
FC000FC000
FC000FC000
FC000FC000
FC000FC000
FC000FC000
FC000FC000
FC000FC000
FC000FC000
FC000FC000
FC000FC000
FC000FC000
FC000FC000
FC000FC000
FC000FC000
FC000FC000
FC000FC000
FC000FC000
FC000FC000
FC000FC000
FC000FC000
FC000FC000
FC000FC000
FC000FC000
FC000FC000
FC000FC000
FE001FC000
FE001FC000
FE001FC000
7F003F8000
7F807F8000
7FFFFF8000
3FFFFF0000
1FFFFE0000
0FFFFC0000
07FFF80000
01FFE00000
000C000000
ENDCHAR
STARTCHAR uhorn
ENCODING 432
SWIDTH 561 0
DWIDTH 36 0
BBX 34 39 5 -1
BITMAP
0000000400
0000000700
0000000FC0
0000000FC0
0000001F80
0000003F00
FC000FFF00
FC000FFE00
FC000FF800
FC000FC000
FC000FC000
FC000FC000
FC000FC000
FC000FC000
FC000FC000
FC000FC000
FC000FC000
FC000FC000
FC000FC000
FC000FC000
FC000FC000
FC000FC000
FC000FC000
FC000FC000
FC000FC000
FC000FC000
FC000FC000
FC000FC000
FE000FC000
FE000FC000
FF000FC000
7F800FC000
7FFFFFC000
7FFFFFC000
3FFFFFC000
1FFFFFC000
0FFFFFC000
01FFFF8000
0007000000
ENDCHAR
STARTCHAR uni0237
ENCODING 567
SWIDTH 561 0
DWIDTH 36 0
BBX 27 42 4 -10
BITMAP
3FFFFFC0
3FFFFFE0
3FFFFFE0
3FFFFFE0
3FFFFFE0
3FFFFFE0
000007E0
000007E0
000007E0
000007E0
000007E0
000007E0
000007E0
000007E0
000007E0
000007E0
000007E0
000007E0
000007E0
000007E0
000007E0
000007E0
000007E0
000007E0
000007E0
000007E0
000007E0
00000FE0
00000FE0
00000FE0
00000FE0
00001FC0
00001FC0
00003FC0
10007F80
7E01FF80
7FFFFF00
7FFFFE00
FFFFFC00
7FFFF800
1FFFE000
03FF0000
ENDCHAR
STARTCHAR uni02B3
ENCODING 691
SWIDTH 561 0
DWIDTH 36 0
BBX 26 28 5 22
BITMAP
00080000
7FFFF000
FFFFFC00
FFFFFF00
FFFFFF00
FFFFFF80
FFFFFF80
FC003FC0
FC001FC0
FC001FC0
FC000FC0
FC000FC0
FC000FC0
FC000780
FC000000
FC000000
FC000000
FC000000
FC000000
FC000000
FC000000
FC000000
FC000000
FC000000
FC000000
FC000000
FC000000
F8000000
ENDCHAR
STARTCHAR circumflex
ENCODING 710
SWIDTH 561 0
DWIDTH 36 0
BBX 22 9 7 34
BITMAP
007800
01FE00
07FF80
1FFFE0
3FCFF0
FF03FC
FE01FC
FC00FC
700038
ENDCHAR
STARTCHAR caron
ENCODING 711
SWIDTH 561 0
DWIDTH 36 0
BBX 22 10 7 35
BITMAP
600018
780078
FC00FC
FE01FC
FF87F8
3FCFF0
1FFFC0
07FF80
01FE00
007800
ENDCHAR
STARTCHAR breve
ENCODING 728
SWIDTH 561 0
DWIDTH 36 0
BBX 23 10 6 35
BITMAP
78001E
F8003E
7C003E
7E007E
7E00FC
3F81FC
1FFFF8
0FFFF0
07FFC0
00FF00
ENDCHAR
STARTCHAR dotaccent
ENCODING 729
SWIDTH 561 0
DWIDTH 36 0
BBX 5 6 15 39
BITMAP
F8
F8
F8
F8
F8
F8
ENDCHAR
STARTCHAR ring
ENCODING 730
SWIDTH 561 0
DWIDTH 36 0
BBX 14 12 11 33
BITMAP
0FC0
3FF0
7FF8
7FF8
FCFC
F87C
F87C
FCFC
7FF8
7FF8
3FF0
0FC0
ENDCHAR
STARTCHAR ogonek
ENCODING 731
SWIDTH 561 0
DWIDTH 36 0
BBX 8 16 14 -14
BITMAP
0C
1C
3C
7C
7C
7C
FC
FC
FC
7C
7E
7E
3F
3F
1E
0C
ENDCHAR
STARTCHAR tilde
ENCODING 732
SWIDTH 561 0
DWIDTH 36 0
BBX 24 9 6 35
BITMAP
07C000
1FF000
3FF80E
7FFE1F
FFFFFF
F87FFE
701FFC
000FF8
0003E0
ENDCHAR
STARTCHAR hungarumlaut
ENCODING 733
SWIDTH 561 0
DWIDTH 36 0
BBX 25 11 8 33
BITMAP
03000C00
07801E00
0FC01F00
1FE03F80
3FC07F80
3F80FF00
7F01FC00
FE03F800
FC03F000
7801E000
3000C000
ENDCHAR
STARTCHAR uni02E1
ENCODING 737
SWIDTH 561 0
DWIDTH 36 0
BBX 27 35 5 21
BITMAP
7FFC0000
FFFE0000
FFFE0000
FFFE0000
FFFE0000
FFFE0000
00FE0000
00FE0000
00FE0000
00FE0000
00FE0000
00FE0000
00FE0000
00FE0000
00FE0000
00FE0000
00FE0000
00FE0000
00FE0000
00FE0000
00FE0000
00FE0000
00FE0000
00FE0000
00FE0000
00FE0000
007E0000
007F0000
007F8180
007FFFC0
003FFFC0
003FFFC0
001FFFE0
000FFFC0
0001FF00
ENDCHAR
STARTCHAR dotbelowcomb
ENCODING 803
SWIDTH 561 0
DWIDTH 36 0
BBX 8 7 14 -13
BITMAP
7E
FF
FF
FF
FF
FF
7E
ENDCHAR
STARTCHAR uni0374
ENCODING 884
SWIDTH 561 0
DWIDTH 36 0
BBX 11 22 13 26
BITMAP
0F00
0FE0
1FE0
1FE0
1FE0
1FE0
3FC0
3FC0
3FC0
3F80
3F80
7F80
7F00
7F00
7F00
FE00
FE00
FE00
FC00
FC00
FC00
F800
ENDCHAR
STARTCHAR uni0375
ENCODING 885
SWIDTH 561 0
DWIDTH 36 0
BBX 11 22 13 -11
BITMAP
0F00
0FE0
1FE0
1FE0
1FE0
1FE0
3FC0
3FC0
3FC0
3F80
3F80
7F80
7F00
7F00
7F00
FE00
FE00
FE00
FC00
FC00
FC00
F800
ENDCHAR
STARTCHAR uni037E
ENCODING 894
SWIDTH 561 0
DWIDTH 36 0
BBX 18 48 5 -16
BITMAP
00FFC0
00FFC0
00FFC0
00FFC0
00FFC0
00FFC0
00FFC0
00FFC0
00FFC0
00FFC0
000000
000000
000000
000000
000000
000000
000000
000000
000000
000000
000000
000000
00FFC0
00FFC0
00FFC0
00FFC0
00FFC0
00FFC0
00FFC0
00FFC0
00FFC0
00FFC0
000FC0
000FC0
000FC0
001FC0
001FC0
001FC0
003FC0
003F80
007F80
03FF80
7FFF00
FFFE00
FFFC00
FFF800
FFE000
7F0000
ENDCHAR
STARTCHAR tonos
ENCODING 900
SWIDTH 561 0
DWIDTH 36 0
BBX 6 15 -4 35
BITMAP
FC
FC
FC
FC
FC
FC
F8
F8
F8
F8
F8
F0
F0
F0
E0
ENDCHAR
STARTCHAR dieresistonos
ENCODING 901
SWIDTH 561 0
DWIDTH 36 0
BBX 24 15 6 37
BITMAP
003F00
003F00
003F00
003F00
003E00
003E00
003E00
F83E1F
F87E1F
F87C1F
F87C1F
F87C1F
F87C1F
007C00
003800
ENDCHAR
STARTCHAR Alphatonos
ENCODING 902
SWIDTH 561 0
DWIDTH 36 0
BBX 39 49 -3 0
BITMAP
7E00000000
7E00000000
7E00000000
7E00080000
7E007F8000
7C01FFE000
7C03FFF000
7C03FFF000
7C07FFF800
7C07FFF800
780FE1F800
780FE1FC00
F80FE1FC00
F80FC0FC00
701FC0FC00
001FC0FE00
001FC0FE00
001F807E00
003F807F00
003F807F00
003F807F00
003F003F00
007F003F80
007F003F80
007F003F80
007E001F80
00FE001FC0
00FE001FC0
00FE001FC0
00FFFFFFC0
01FFFFFFE0
01FFFFFFE0
01FFFFFFE0
01FFFFFFE0
03FFFFFFF0
03F80007F0
03F80007F0
03F00003F0
07F00003F8
07F00003F8
07F00003F8
07E00001F8
0FE00001FC
0FE00001FC
0FE00001FC
0FC00000FC
1FC00000FE
1FC00000FE
0F8000007C
ENDCHAR
STARTCHAR anoteleia
ENCODING 903
SWIDTH 561 0
DWIDTH 36 0
BBX 6 7 15 13
BITMAP
FC
FC
FC
FC
FC
FC
FC
ENDCHAR
STARTCHAR Epsilontonos
ENCODING 904
SWIDTH 561 0
DWIDTH 36 0
BBX 39 49 -6 0
BITMAP
7E00000000
7E00000000
7E00000000
7E00000000
7C1FFFFFF8
7C1FFFFFF8
7C1FFFFFFC
7C1FFFFFFC
7C1FFFFFF8
F81FFFFFF8
F81F800000
F81F800000
F81F800000
F81F800000
701F800000
001F800000
001F800000
001F800000
001F800000
001F800000
001F800000
001F800000
001F800000
001FFFFFE0
001FFFFFF0
001FFFFFF0
001FFFFFF0
001FFFFFF0
001FFFFFE0
001F800000
001F800000
001F800000
001F800000
001F800000
001F800000
001F800000
001F800000
001F800000
001F800000
001F800000
001F800000
001F800000
001F800000
001FFFFFFC
001FFFFFFE
001FFFFFFE
001FFFFFFE
001FFFFFFE
001FFFFFFC
ENDCHAR
STARTCHAR Etatonos
ENCODING 905
SWIDTH 561 0
DWIDTH 36 0
BBX 38 49 -6 0
BITMAP
7E00000000
7E00000000
7E00000000
7E00000000
7C3E0000FC
7C3F0000FC
7C3F0000FC
7C3F0000FC
7C3F0000FC
F83F0000FC
F83F0000FC
F83F0000FC
F83F0000FC
F83F0000FC
703F0000FC
003F0000FC
003F0000FC
003F0000FC
003F0000FC
003F0000FC
003F0000FC
003F0000FC
003FFFFFFC
003FFFFFFC
003FFFFFFC
003FFFFFFC
003FFFFFFC
003FFFFFFC
003F0000FC
003F0000FC
003F0000FC
003F0000FC
003F0000FC
003F0000FC
003F0000FC
003F0000FC
003F0000FC
003F0000FC
003F0000FC
003F0000FC
003F0000FC
003F0000FC
003F0000FC
003F0000FC
003F0000FC
003F0000FC
003F0000FC
003F0000FC
003E00007C
ENDCHAR
STARTCHAR Iotatonos
ENCODING 906
SWIDTH 561 0
DWIDTH 36 0
BBX 37 49 -6 0
BITMAP
7E00000000
7E00000000
7E00000000
7E00000000
7C0FFFFFF0
7C1FFFFFF8
7C1FFFFFF8
7C1FFFFFF8
7C1FFFFFF8
F80FFFFFF0
F80007E000
F80007E000
F80007E000
F80007E000
700007E000
000007E000
000007E000
000007E000
000007E000
000007E000
000007E000
000007E000
000007E000
000007E000
000007E000
000007E000
000007E000
000007E000
000007E000
000007E000
000007E000
000007E000
000007E000
000007E000
000007E000
000007E000
000007E000
000007E000
000007E000
000007E000
000007E000
000007E000
000007E000
001FFFFFF8
001FFFFFF8
001FFFFFF8
001FFFFFF8
001FFFFFF8
001FFFFFF8
ENDCHAR
STARTCHAR Omicrontonos
ENCODING 908
SWIDTH 561 0
DWIDTH 36 0
BBX 40 50 -6 -1
BITMAP
7E00000000
7E00000000
7E00000000
7E00008000
7C001FFC00
7C007FFE00
7C01FFFF80
7C03FFFFC0
7C07FFFFE0
F80FFFFFF0
F80FF00FF0
F81FE007F8
F81FC003F8
F83F8001FC
703F8001FC
003F0000FC
007F0000FE
007F0000FE
007E0000FE
007E00007E
007E00007E
00FE00007E
00FE00007F
00FE00007F
00FE00007F
00FE00007F
00FE00007F
00FE00007F
00FE00007F
00FE00007F
00FE00007F
00FE00007F
00FE00007E
007E00007E
007E00007E
007F0000FE
007F0000FE
007F0000FE
003F8001FC
003F8001FC
003FC003F8
001FC007F8
001FF00FF8
000FF81FF0
0007FFFFE0
0003FFFFC0
0001FFFF80
0000FFFF00
00003FFE00
00000FF000
ENDCHAR
STARTCHAR Upsilontonos
ENCODING 910
SWIDTH 561 0
DWIDTH 36 0
BBX 44 49 -9 0
BITMAP
7E0000000000
7E0000000000
7E0000000000
7E0000000000
7C3F000003F0
7C3F000003F0
FC3F800007F0
FC3F800007F0
FC1FC0000FE0
F81FC0000FE0
F80FE0001FC0
F80FE0001FC0
F807F0003F80
F807F0003F80
7003F8007F00
0003F8007F00
0001FC00FE00
0001FC00FE00
0000FE01FC00
0000FE01FC00
00007F03F800
00007F03F800
00003F87F000
00003FCFF000
00001FFFE000
00001FFFE000
00000FFFC000
000007FF8000
000003FF0000
000000FC0000
000000FC0000
000000FC0000
000000FC0000
000000FC0000
000000FC0000
000000FC0000
000000FC0000
000000FC0000
000000FC0000
000000FC0000
000000FC0000
000000FC0000
000000FC0000
000000FC0000
000000FC0000
000000FC0000
000000FC0000
000000FC0000
000000F80000
ENDCHAR
STARTCHAR Omegatonos
ENCODING 911
SWIDTH 561 0
DWIDTH 36 0
BBX 40 50 -6 -1
BITMAP
7E00000000
7E00000000
7E00000000
7E00008000
7C003FFC00
7C00FFFF00
7C01FFFF80
7C03FFFFC0
7C07FFFFE0
F80FFFFFF0
F80FF00FF8
F81FE007F8
F83FC003FC
F83F8001FC
703F8001FC
007F0000FE
007F0000FE
007F0000FE
007E00007E
007E00007E
00FE00007E
00FE00007F
00FE00007F
00FE00007F
00FE00007F
00FE00007F
00FE00007F
00FE00007F
00FE00007F
00FE00007F
00FE00007E
007E00007E
007E00007E
007F0000FE
007F0000FE
007F0000FE
003F8001FC
003F8001FC
003FC003FC
001FC003F8
001FE007F8
000FF81FF0
0007FC3FE0
0003FC3FC0
007FFC3FFE
007FFC3FFE
00FFFC3FFE
00FFFC3FFE
007FFC3FFE
007FF81FFE
ENDCHAR
STARTCHAR iotadieresistonos
ENCODING 912
SWIDTH 561 0
DWIDTH 36 0
BBX 28 56 1 -1
BITMAP
001F0000
003F8000
003F0000
003F0000
003F0000
003F0000
003F0000
783E0F80
FC3E0F80
FC3E1F80
FC3E1F80
FC3E1F80
783C0F00
003C0000
003C0000
00000000
00000000
00000000
00000000
00000000
00000000
00000000
00000000
003E0000
007F0000
007F0000
007F0000
007F0000
007F0000
007F0000
007F0000
007F0000
007F0000
007F0000
007F0000
007F0000
007F0000
007F0000
007F0000
007F0000
007F0000
007F0000
007F0000
007F0000
007F0000
007F0000
007F0000
007F0000
003F0000
003FC080
003FFFE0
001FFFE0
001FFFE0
000FFFF0
0007FFE0
0000FF80
ENDCHAR
STARTCHAR Alpha
ENCODING 913
SWIDTH 561 0
DWIDTH 36 0
BBX 36 46 0 0
BITMAP
0000400000
0003FC0000
000FFF0000
001FFF8000
001FFF8000
003FFFC000
003FFFC000
007F0FC000
007F0FE000
007F0FE000
007E07E000
00FE07E000
00FE07F000
00FE07F000
00FC03F000
01FC03F800
01FC03F800
01FC03F800
01F801F800
03F801FC00
03F801FC00
03F801FC00
03F000FC00
07F000FE00
07F000FE00
07F000FE00
07FFFFFE00
0FFFFFFF00
0FFFFFFF00
0FFFFFFF00
0FFFFFFF00
1FFFFFFF80
1FC0003F80
1FC0003F80
1F80001F80
3F80001FC0
3F80001FC0
3F80001FC0
3F00000FC0
7F00000FE0
7F00000FE0
7F00000FE0
7E000007E0
FE000007F0
FE000007F0
7C000003E0
ENDCHAR
STARTCHAR Beta
ENCODING 914
SWIDTH 561 0
DWIDTH 36 0
BBX 31 45 2 0
BITMAP
FFFFC000
FFFFF800
FFFFFE00
FFFFFF00
FFFFFF80
FFFFFFC0
0FC07FE0
0FC01FE0
0FC00FF0
0FC007F0
0FC003F0
0FC003F0
0FC003F0
0FC003F0
0FC003F0
0FC007F0
0FC007E0
0FC01FE0
0FC07FC0
0FFFFF80
0FFFFF00
0FFFFE00
0FFFFF80
0FFFFFC0
0FFFFFE0
0FC01FF0
0FC007F8
0FC003FC
0FC001FC
0FC000FC
0FC000FE
0FC0007E
0FC0007E
0FC000FE
0FC000FC
0FC001FC
0FC003FC
0FC007F8
0FC03FF8
0FFFFFF0
0FFFFFE0
0FFFFFC0
0FFFFF80
0FFFFE00
0FFFE000
ENDCHAR
STARTCHAR Gamma
ENCODING 915
SWIDTH 561 0
DWIDTH 36 0
BBX 28 46 4 -1
BITMAP
FFFFFFF0
FFFFFFF0
FFFFFFF0
FFFFFFF0
FFFFFFF0
FFFFFFF0
FC000000
FC000000
FC000000
FC000000
FC000000
FC000000
FC000000
FC000000
FC000000
FC000000
FC000000
FC000000
FC000000
FC000000
FC000000
FC000000
FC000000
FC000000
FC000000
FC000000
FC000000
FC000000
FC000000
FC000000
FC000000
FC000000
FC000000
FC000000
FC000000
FC000000
FC000000
FC000000
FC000000
FC000000
FC000000
FC000000
FC000000
FC000000
FC000000
FC000000
ENDCHAR
STARTCHAR uni0394
ENCODING 916
SWIDTH 561 0
DWIDTH 36 0
BBX 36 47 0 -1
BITMAP
0000400000
0003FC0000
000FFF0000
001FFF8000
001FFF8000
003FFFC000
003FFFC000
007F0FC000
007F0FE000
007F0FE000
007F0FE000
00FE07E000
00FE07F000
00FE07F000
00FE07F000
00FC03F000
01FC03F800
01FC03F800
01FC03F800
01F801F800
03F801FC00
03F801FC00
03F801FC00
03F000FC00
07F000FE00
07F000FE00
07F000FE00
07E0007E00
0FE0007F00
0FE0007F00
0FE0007F00
0FC0003F00
1FC0003F80
1FC0003F80
1FC0003F80
1F80001F80
3F80001FC0
3F80001FC0
3F80001FC0
3F00000FC0
7F00000FE0
7FFFFFFFE0
7FFFFFFFE0
7FFFFFFFE0
FFFFFFFFF0
FFFFFFFFF0
7FFFFFFFE0
ENDCHAR
STARTCHAR Epsilon
ENCODING 917
SWIDTH 561 0
DWIDTH 36 0
BBX 28 45 5 0
BITMAP
FFFFFFC0
FFFFFFC0
FFFFFFE0
FFFFFFE0
FFFFFFC0
FFFFFFC0
FC000000
FC000000
FC000000
FC000000
FC000000
FC000000
FC000000
FC000000
FC000000
FC000000
FC000000
FC000000
FC000000
FFFFFF00
FFFFFF80
FFFFFF80
FFFFFF80
FFFFFF80
FFFFFF00
FC000000
FC000000
FC000000
FC000000
FC000000
FC000000
FC000000
FC000000
FC000000
FC000000
FC000000
FC000000
FC000000
FC000000
FFFFFFE0
FFFFFFF0
FFFFFFF0
FFFFFFF0
FFFFFFF0
FFFFFFE0
ENDCHAR
STARTCHAR Zeta
ENCODING 918
SWIDTH 561 0
DWIDTH 36 0
BBX 30 45 3 0
BITMAP
1FFFFFF8
3FFFFFF8
3FFFFFFC
3FFFFFFC
3FFFFFF8
1FFFFFF8
000001F8
000001F8
000003F8
000003F8
000003F0
000007F0
00000FE0
00001FE0
00003FC0
00007F80
0000FF00
0001FE00
0003FC00
0007F800
000FF000
001FE000
003FC000
007F8000
00FF0000
01FE0000
03FC0000
07F80000
0FF00000
0FE00000
1FC00000
3F800000
3F800000
3F000000
7F000000
7F000000
7E000000
7E000000
7E000000
FFFFFFF8
FFFFFFF8
FFFFFFFC
FFFFFFFC
7FFFFFF8
7FFFFFF8
ENDCHAR
STARTCHAR Eta
ENCODING 919
SWIDTH 561 0
DWIDTH 36 0
BBX 28 45 4 0
BITMAP
F80003F0
FC0003F0
FC0003F0
FC0003F0
FC0003F0
FC0003F0
FC0003F0
FC0003F0
FC0003F0
FC0003F0
FC0003F0
FC0003F0
FC0003F0
FC0003F0
FC0003F0
FC0003F0
FC0003F0
FC0003F0
FFFFFFF0
FFFFFFF0
FFFFFFF0
FFFFFFF0
FFFFFFF0
FFFFFFF0
FC0003F0
FC0003F0
FC0003F0
FC0003F0
FC0003F0
FC0003F0
FC0003F0
FC0003F0
FC0003F0
FC0003F0
FC0003F0
FC0003F0
FC0003F0
FC0003F0
FC0003F0
FC0003F0
FC0003F0
FC0003F0
FC0003F0
FC0003F0
F80001F0
ENDCHAR
STARTCHAR Theta
ENCODING 920
SWIDTH 561 0
DWIDTH 36 0
BBX 32 47 2 -1
BITMAP
00008000
001FFC00
007FFE00
01FFFF80
03FFFFC0
07FFFFE0
0FFFFFF0
0FF00FF0
1FE007F8
1FC003F8
3F8001FC
3F8001FC
3F0000FC
7F0000FE
7F0000FE
7E0000FE
7E00007E
7E00007E
FE00007E
FE00007F
FE00007F
FE7FFE7F
FEFFFE7F
FEFFFE7F
FEFFFE7F
FEFFFE7F
FE7FFE7F
FE00007F
FE00007F
FE00007E
7E00007E
7E00007E
7F0000FE
7F0000FE
7F0000FE
3F8001FC
3F8001FC
3FC003F8
1FC007F8
1FF00FF8
0FF81FF0
07FFFFE0
03FFFFC0
01FFFF80
00FFFF00
003FFE00
000FF000
ENDCHAR
STARTCHAR Iota
ENCODING 921
SWIDTH 561 0
DWIDTH 36 0
BBX 26 45 5 0
BITMAP
7FFFFF80
FFFFFFC0
FFFFFFC0
FFFFFFC0
FFFFFFC0
7FFFFF80
003F0000
003F0000
003F0000
003F0000
003F0000
003F0000
003F0000
003F0000
003F0000
003F0000
003F0000
003F0000
003F0000
003F0000
003F0000
003F0000
003F0000
003F0000
003F0000
003F0000
003F0000
003F0000
003F0000
003F0000
003F0000
003F0000
003F0000
003F0000
003F0000
003F0000
003F0000
003F0000
003F0000
FFFFFFC0
FFFFFFC0
FFFFFFC0
FFFFFFC0
FFFFFFC0
FFFFFFC0
ENDCHAR
STARTCHAR Kappa
ENCODING 922
SWIDTH 561 0
DWIDTH 36 0
BBX 28 45 5 0
BITMAP
FC000FE0
FC001FE0
FC003FE0
FC003FC0
FC007F80
FC00FF80
FC00FF00
FC01FE00
FC03FC00
FC07FC00
FC07F800
FC0FF000
FC1FE000
FC3FE000
FC3FC000
FC7F8000
FCFF0000
FCFF0000
FDFE0000
FFFC0000
FFF80000
FFF00000
FFF00000
FFF80000
FFFC0000
FDFE0000
FCFF0000
FC7F0000
FC7F8000
FC3FC000
FC1FE000
FC1FE000
FC0FF000
FC07F800
FC03FC00
FC03FC00
FC01FE00
FC00FF00
FC00FF80
FC007F80
FC003FC0
FC001FE0
FC001FF0
FC000FF0
FC0007E0
ENDCHAR
STARTCHAR Lambda
ENCODING 923
SWIDTH 561 0
DWIDTH 36 0
BBX 36 47 0 -1
BITMAP
0000400000
0003FC0000
000FFF0000
001FFF8000
003FFF8000
003FFFC000
003FFFC000
007F0FC000
007F0FE000
007F0FE000
007F0FE000
00FE07E000
00FE07F000
00FE07F000
00FE07F000
01FC03F000
01FC03F800
01FC03F800
01FC03F800
01F801F800
03F801FC00
03F801FC00
03F801FC00
03F000FC00
07F000FE00
07F000FE00
07F000FE00
07E0007E00
0FE0007F00
0FE0007F00
0FE0007F00
0FC0003F00
1FC0003F80
1FC0003F80
1FC0003F80
1F80001F80
3F80001FC0
3F80001FC0
3F80001FC0
3F00000FC0
7F00000FE0
7F00000FE0
7F00000FE0
7E000007E0
FE000007F0
FE000007F0
7C000003E0
ENDCHAR
STARTCHAR Mu
ENCODING 924
SWIDTH 561 0
DWIDTH 36 0
BBX 34 45 1 0
BITMAP
3E00001F00
3F00003F00
3F80007F00
3FC000FF00
7FC000FF80
7FE001FF80
7FE001FF80
7FF003FF80
7FF003FF80
7FF807FF80
7FF807FF80
7FFC0FFF80
7FFC0FFF80
7F7E1FBF80
7F7E1FBF80
7F3F3F3F80
7F3F3F3F80
7F1FFE3F80
7F1FFE3F80
7F0FFC3F80
7F0FFC3F80
7F07F83F80
7F07F83F80
7F03F03F80
7F00C01F80
7E00001F80
7E00001F80
7E00001F80
7E00001F80
7E00001F80
7E00001F80
7E00001F80
7E00001F80
7E00001F80
7E00001F80
7E00001F80
FE00001F80
FE00001FC0
FE00001FC0
FE00001FC0
FE00001FC0
FE00001FC0
FE00001FC0
FE00001FC0
7C00000F80
ENDCHAR
STARTCHAR Nu
ENCODING 925
SWIDTH 561 0
DWIDTH 36 0
BBX 28 45 4 0
BITMAP
F80003E0
FE0003F0
FE0003F0
FF0003F0
FF0003F0
FF8003F0
FF8003F0
FFC003F0
FFC003F0
FFE003F0
FFE003F0
FFF003F0
FFF003F0
FFF003F0
FDF803F0
FDF803F0
FCFC03F0
FCFC03F0
FC7E03F0
FC7E03F0
FC3F03F0
FC3F03F0
FC1F83F0
FC1F83F0
FC0FC3F0
FC0FC3F0
FC07E3F0
FC07E3F0
FC03F3F0
FC03F3F0
FC01FBF0
FC01FBF0
FC00FFF0
FC00FFF0
FC007FF0
FC007FF0
FC003FF0
FC003FF0
FC001FF0
FC001FF0
FC000FF0
FC000FF0
FC0007F0
FC0007F0
FC0001F0
ENDCHAR
STARTCHAR Xi
ENCODING 926
SWIDTH 561 0
DWIDTH 36 0
BBX 30 46 3 -1
BITMAP
3FFFFFF0
3FFFFFF0
7FFFFFF8
7FFFFFF8
7FFFFFF0
3FFFFFF0
00000000
00000000
00000000
00000000
00000000
00000000
00000000
00000000
00000000
00000000
00000000
00000000
00000000
00000000
1FFFFFE0
1FFFFFE0
1FFFFFE0
1FFFFFE0
1FFFFFE0
1FFFFFE0
00000000
00000000
00000000
00000000
00000000
00000000
00000000
00000000
00000000
00000000
00000000
00000000
00000000
00000000
7FFFFFF8
FFFFFFFC
FFFFFFFC
FFFFFFFC
FFFFFFFC
7FFFFFF8
ENDCHAR
STARTCHAR Omicron
ENCODING 927
SWIDTH 561 0
DWIDTH 36 0
BBX 32 47 2 -1
BITMAP
00008000
001FFC00
007FFE00
01FFFF80
03FFFFC0
07FFFFE0
0FFFFFF0
0FF00FF0
1FE007F8
1FC003F8
3F8001FC
3F8001FC
3F0000FC
7F0000FE
7F0000FE
7E0000FE
7E00007E
7E00007E
FE00007E
FE00007F
FE00007F
FE00007F
FE00007F
FE00007F
FE00007F
FE00007F
FE00007F
FE00007F
FE00007F
FE00007E
7E00007E
7E00007E
7F0000FE
7F0000FE
7F0000FE
3F8001FC
3F8001FC
3FC003F8
1FC007F8
1FF00FF8
0FF81FF0
07FFFFE0
03FFFFC0
01FFFF80
00FFFF00
003FFE00
000FF000
ENDCHAR
STARTCHAR Pi
ENCODING 928
SWIDTH 561 0
DWIDTH 36 0
BBX 26 46 5 -1
BITMAP
FFFFFFC0
FFFFFFC0
FFFFFFC0
FFFFFFC0
FFFFFFC0
FFFFFFC0
FC000FC0
FC000FC0
FC000FC0
FC000FC0
FC000FC0
FC000FC0
FC000FC0
FC000FC0
FC000FC0
FC000FC0
FC000FC0
FC000FC0
FC000FC0
FC000FC0
FC000FC0
FC000FC0
FC000FC0
FC000FC0
FC000FC0
FC000FC0
FC000FC0
FC000FC0
FC000FC0
FC000FC0
FC000FC0
FC000FC0
FC000FC0
FC000FC0
FC000FC0
FC000FC0
FC000FC0
FC000FC0
FC000FC0
FC000FC0
FC000FC0
FC000FC0
FC000FC0
FC000FC0
FC000FC0
FC000FC0
ENDCHAR
STARTCHAR Rho
ENCODING 929
SWIDTH 561 0
DWIDTH 36 0
BBX 28 45 5 0
BITMAP
FFFF0000
FFFFE000
FFFFF800
FFFFFC00
FFFFFF00
FFFFFF80
FC03FF80
FC007FC0
FC001FE0
FC000FE0
FC000FE0
FC0007F0
FC0007F0
FC0007F0
FC0007F0
FC0007F0
FC0007F0
FC0007F0
FC000FE0
FC000FE0
FC001FE0
FC007FC0
FC03FFC0
FFFFFF80
FFFFFF00
FFFFFC00
FFFFF800
FFFFE000
FFFE0000
FC000000
FC000000
FC000000
FC000000
FC000000
FC000000
FC000000
FC000000
FC000000
FC000000
FC000000
FC000000
FC000000
FC000000
FC000000
FC000000
ENDCHAR
STARTCHAR Sigma
ENCODING 931
SWIDTH 561 0
DWIDTH 36 0
BBX 30 46 3 -1
BITMAP
7FFFFFF8
FFFFFFF8
FFFFFFFC
FFFFFFFC
7FFFFFF8
7FFFFFF8
3FC00000
1FC00000
1FE00000
0FF00000
07F00000
07F80000
03FC0000
01FC0000
01FE0000
00FF0000
007F0000
007F8000
003FC000
001FC000
001FE000
000FF000
0007F000
000FF000
001FE000
001FC000
003FC000
007F8000
007F0000
00FF0000
01FE0000
01FC0000
03FC0000
07F80000
07F00000
0FF00000
1FE00000
1FC00000
3FC00000
7F800000
7FFFFFFC
FFFFFFFC
FFFFFFFC
FFFFFFFC
FFFFFFFC
FFFFFFFC
ENDCHAR
STARTCHAR Tau
ENCODING 932
SWIDTH 561 0
DWIDTH 36 0
BBX 34 45 1 0
BITMAP
FFFFFFFFC0
FFFFFFFFC0
FFFFFFFFC0
FFFFFFFFC0
FFFFFFFFC0
FFFFFFFFC0
0003F00000
0003F00000
0003F00000
0003F00000
0003F00000
0003F00000
0003F00000
0003F00000
0003F00000
0003F00000
0003F00000
0003F00000
0003F00000
0003F00000
0003F00000
0003F00000
0003F00000
0003F00000
0003F00000
0003F00000
0003F00000
0003F00000
0003F00000
0003F00000
0003F00000
0003F00000
0003F00000
0003F00000
0003F00000
0003F00000
0003F00000
0003F00000
0003F00000
0003F00000
0003F00000
0003F00000
0003F00000
0003F00000
0003F00000
ENDCHAR
STARTCHAR Upsilon
ENCODING 933
SWIDTH 561 0
DWIDTH 36 0
BBX 34 45 1 0
BITMAP
FC00000FC0
FC00000FC0
FE00001FC0
FE00001FC0
7F00003F80
7F00003F80
3F80007F00
3F80007F00
1FC000FE00
1FC000FE00
0FE001FC00
0FE001FC00
07F003F800
07F003F800
03F807F000
03F807F000
01FC0FE000
01FC0FE000
00FE1FC000
00FF3FC000
007FFF8000
007FFF8000
003FFF0000
001FFE0000
000FFC0000
0003F00000
0003F00000
0003F00000
0003F00000
0003F00000
0003F00000
0003F00000
0003F00000
0003F00000
0003F00000
0003F00000
0003F00000
0003F00000
0003F00000
0003F00000
0003F00000
0003F00000
0003F00000
0003F00000
0003E00000
ENDCHAR
STARTCHAR Phi
ENCODING 934
SWIDTH 561 0
DWIDTH 36 0
BBX 32 49 2 -2
BITMAP
0007C000
0007E000
0007E000
0007E000
0007E000
0007F000
003FFE00
00FFFF00
03FFFFC0
07FFFFE0
0FFFFFF0
0FFFFFF8
1FE7E7F8
3FC7E3FC
3F87E1FC
7F07E0FE
7F07E0FE
7E07E07E
FE07E07F
FE07E07F
FC07E07F
FC07E03F
FC07E03F
FC07E03F
FC07E03F
FC07E03F
FC07E03F
FC07E03F
FC07E03F
FE07E07F
FE07E07F
FE07E07F
7E07E07E
7F07E0FE
7F07E0FE
3F87E1FC
3FC7E3FC
1FF7EFF8
0FFFFFF0
07FFFFF0
03FFFFE0
01FFFF80
00FFFF00
001FFC00
0007E000
0007E000
0007E000
0007E000
0007E000
ENDCHAR
STARTCHAR Chi
ENCODING 935
SWIDTH 561 0
DWIDTH 36 0
BBX 32 45 2 0
BITMAP
7C00003E
FC00003F
FE00007F
7E00007E
7F0000FE
3F0000FC
3F8001FC
1F8001F8
1FC003F8
0FC003F0
0FE007F0
07E007E0
07F00FE0
07F00FE0
03F81FC0
03F81FC0
01FC3F80
01FC3F80
00FE7F00
00FE7F00
007FFE00
007FFE00
003FFC00
007FFE00
007FFE00
00FE7F00
00FE7F00
01FC3F80
01FC3F80
03F81FC0
03F81FC0
07F00FE0
07F00FE0
0FE007F0
0FE007F0
1FC003F8
1FC003F8
3F8001FC
3F8001FC
7F0000FE
7F0000FE
FE00007F
FE00007F
FC00003F
F800001F
ENDCHAR
STARTCHAR Psi
ENCODING 936
SWIDTH 561 0
DWIDTH 36 0
BBX 34 46 1 -1
BITMAP
0003F00000
FC03F00FC0
FE03F01FC0
FE03F01FC0
FE03F01FC0
7F03F03F80
7F03F03F80
7F03F03F80
3F03F03F00
3F03F03F00
3F03F03F00
3F03F03F00
3F03F03F00
3F03F03F00
3F03F03F00
3F03F03F00
3F03F03F00
3F03F03F00
3F03F03F00
3F03F03F00
3F03F03F00
3F03F03F00
3F03F03F00
3F83F07F00
3F83F07F00
3F83F07F00
3FC3F0FE00
1FE3F1FE00
1FFFFFFE00
0FFFFFFC00
07FFFFF800
03FFFFF000
01FFFFE000
007FFF8000
0007F80000
0003F00000
0003F00000
0003F00000
0003F00000
0003F00000
0003F00000
0003F00000
0003F00000
0003F00000
0003F00000
0003F00000
ENDCHAR
STARTCHAR uni03A9
ENCODING 937
SWIDTH 561 0
DWIDTH 36 0
BBX 32 47 2 -1
BITMAP
00008000
003FFC00
00FFFF00
01FFFF80
03FFFFC0
07FFFFE0
0FFFFFF0
0FF00FF8
1FE007F8
3FC003FC
3F8001FC
3F8001FC
7F0000FE
7F0000FE
7F0000FE
7E00007E
7E00007E
FE00007E
FE00007F
FE00007F
FE00007F
FE00007F
FE00007F
FE00007F
FE00007F
FE00007F
FE00007F
FE00007E
7E00007E
7E00007E
7F0000FE
7F0000FE
7F0000FE
3F8001FC
3F8001FC
3FC003FC
1FC003F8
1FE007F8
0FF81FF0
07FC3FE0
03FC3FC0
7FFC3FFE
7FFC3FFE
FFFC3FFE
FFFC3FFE
7FFC3FFE
7FF81FFE
ENDCHAR
STARTCHAR Iotadieresis
ENCODING 938
SWIDTH 561 0
DWIDTH 36 0
BBX 26 58 5 0
BITMAP
0F807C00
0F807C00
0F807C00
0F807C00
0F807C00
0F807C00
00000000
00000000
00000000
00000000
00000000
00000000
00000000
7FFFFF80
FFFFFFC0
FFFFFFC0
FFFFFFC0
FFFFFFC0
7FFFFF80
003F0000
003F0000
003F0000
003F0000
003F0000
003F0000
003F0000
003F0000
003F0000
003F0000
003F0000
003F0000
003F0000
003F0000
003F0000
003F0000
003F0000
003F0000
003F0000
003F0000
003F0000
003F0000
003F0000
003F0000
003F0000
003F0000
003F0000
003F0000
003F0000
003F0000
003F0000
003F0000
003F0000
FFFFFFC0
FFFFFFC0
FFFFFFC0
FFFFFFC0
FFFFFFC0
FFFFFFC0
ENDCHAR
STARTCHAR Upsilondieresis
ENCODING 939
SWIDTH 561 0
DWIDTH 36 0
BBX 34 58 1 0
BITMAP
00F807C000
00F807C000
00F807C000
00F807C000
00F807C000
00F807C000
0000000000
0000000000
0000000000
0000000000
0000000000
0000000000
0000000000
FC00000FC0
FC00000FC0
FE00001FC0
FE00001FC0
7F00003F80
7F00003F80
3F80007F00
3F80007F00
1FC000FE00
1FC000FE00
0FE001FC00
0FE001FC00
07F003F800
07F003F800
03F807F000
03F807F000
01FC0FE000
01FC0FE000
00FE1FC000
00FF3FC000
007FFF8000
007FFF8000
003FFF0000
001FFE0000
000FFC0000
0003F00000
0003F00000
0003F00000
0003F00000
0003F00000
0003F00000
0003F00000
0003F00000
0003F00000
0003F00000
0003F00000
0003F00000
0003F00000
0003F00000
0003F00000
0003F00000
0003F00000
0003F00000
0003F00000
0003E00000
ENDCHAR
STARTCHAR alphatonos
ENCODING 940
SWIDTH 561 0
DWIDTH 36 0
BBX 34 55 2 -1
BITMAP
0003F00000
0003F00000
0003F00000
0003F00000
0003F00000
0003E00000
0003E00000
0003E00000
0003E00000
0003E00000
0003C00000
0003C00000
0007C00000
0007C00000
0003800000
0000000000
0000000000
0000000000
0000000000
0000000000
0000000000
0004000000
00FFC03E00
03FFF03F00
07FFFC3F00
0FFFFE7E00
1FFFFF7E00
1FFFFF7E00
3FC07FFE00
3F803FFE00
7F001FFC00
7F000FFC00
7E0007FC00
7E0007FC00
FE0003FC00
FE0003F800
FE0001F800
FE0001F800
FE0001F800
FE0001F800
FE0001F800
FE0003F800
FE0003F800
7E0007F800
7F0007F800
7F000FFC00
7F801FFC00
3FC03FFC00
3FE0FFFE00
1FFFFF7FC0
1FFFFE7FC0
0FFFFE3FC0
03FFF83FC0
01FFF01FC0
003FC007C0
ENDCHAR
STARTCHAR epsilontonos
ENCODING 941
SWIDTH 561 0
DWIDTH 36 0
BBX 27 55 5 -1
BITMAP
001F8000
001F8000
001F8000
001F8000
001F8000
001F0000
001F0000
001F0000
001F0000
001F0000
001E0000
001E0000
003E0000
003E0000
001C0000
00000000
00000000
00000000
00000000
00000000
00000000
00008000
00FFFF80
03FFFF80
0FFFFF80
1FFFFF80
3FFFFF80
3FFFFF00
7F800000
7F000000
7F000000
7F000000
7F000000
7F800000
3FF00000
1FFFC000
0FFFC000
07FFE000
07FFE000
1FFFC000
3FFFC000
7FF00000
FF800000
FE000000
FE000000
FC000000
FC000000
FE000000
FFC00000
7FFFFFC0
7FFFFFC0
3FFFFFE0
0FFFFFE0
03FFFFE0
003FFFC0
ENDCHAR
STARTCHAR etatonos
ENCODING 942
SWIDTH 561 0
DWIDTH 36 0
BBX 26 70 5 -16
BITMAP
001F8000
001F8000
001F8000
001F8000
001F8000
001F0000
001F0000
001F0000
001F0000
001F0000
001E0000
001E0000
003E0000
003E0000
001C0000
00000000
00000000
00000000
00000000
00000000
00000000
00080000
7FFFE000
FFFFFC00
FFFFFE00
FFFFFF00
FFFFFF00
FFFFFF80
FC007F80
FC003FC0
FC001FC0
FC001FC0
FC000FC0
FC000FC0
FC000FC0
FC000FC0
FC000FC0
FC000FC0
FC000FC0
FC000FC0
FC000FC0
FC000FC0
FC000FC0
FC000FC0
FC000FC0
FC000FC0
FC000FC0
FC000FC0
FC000FC0
FC000FC0
FC000FC0
FC000FC0
FC000FC0
FC000FC0
FC000FC0
00000FC0
00000FC0
00000FC0
00000FC0
00000FC0
00000FC0
00000FC0
00000FC0
00000FC0
00000FC0
00000FC0
00000FC0
00000FC0
00000FC0
00000FC0
ENDCHAR
STARTCHAR iotatonos
ENCODING 943
SWIDTH 561 0
DWIDTH 36 0
BBX 19 55 10 -1
BITMAP
3F0000
3F0000
3F0000
3E0000
3E0000
7E0000
7E0000
7E0000
7C0000
7C0000
7C0000
7C0000
7C0000
780000
780000
000000
000000
000000
000000
000000
000000
000000
7C0000
FE0000
FE0000
FE0000
FE0000
FE0000
FE0000
FE0000
FE0000
FE0000
FE0000
FE0000
FE0000
FE0000
FE0000
FE0000
FE0000
FE0000
FE0000
FE0000
FE0000
FE0000
FE0000
FE0000
FE0000
7E0000
7F8100
7FFFC0
3FFFC0
3FFFC0
1FFFE0
0FFFC0
01FF00
ENDCHAR
STARTCHAR upsilondieresistonos
ENCODING 944
SWIDTH 561 0
DWIDTH 36 0
BBX 30 56 2 -1
BITMAP
0003F000
0003F000
0003F000
0003E000
0003E000
0007E000
0007E000
0F87E1F0
0F87C1F0
0F87C1F0
0F87C1F0
0F87C1F0
0F87C1F0
00078000
00078000
00000000
00000000
00000000
00000000
00000000
00000000
00000000
00000000
7E0003F0
FE0003F0
7F0003F0
7F0003F8
3F8003F8
3F8003F8
3F8003F8
3F8001F8
1F8001FC
1F8001FC
1F8001FC
1F8001FC
1F8001FC
1F8001FC
1F8000FC
1F8000FC
1F8000FC
1F8000FC
1F8000FC
1F8001FC
1F8001FC
1F8001FC
1F8001FC
1FC003F8
1FC003F8
1FE007F8
0FF81FF0
0FFFFFE0
07FFFFE0
07FFFFC0
03FFFF80
00FFFE00
001FF000
ENDCHAR
STARTCHAR alpha
ENCODING 945
SWIDTH 561 0
DWIDTH 36 0
BBX 34 34 2 -1
BITMAP
0004000000
00FFC03E00
03FFF03F00
07FFFC3F00
0FFFFE7E00
1FFFFF7E00
1FFFFF7E00
3FC07FFE00
3F803FFE00
7F001FFC00
7F000FFC00
7E0007FC00
7E0007FC00
FE0003FC00
FE0003F800
FE0001F800
FE0001F800
FE0001F800
FE0001F800
FE0001F800
FE0003F800
FE0003F800
7E0007F800
7F0007F800
7F000FFC00
7F801FFC00
3FC03FFC00
3FE0FFFE00
1FFFFF7FC0
1FFFFE7FC0
0FFFFE3FC0
03FFF83FC0
01FFF01FC0
003FC007C0
ENDCHAR
STARTCHAR beta
ENCODING 946
SWIDTH 561 0
DWIDTH 36 0
BBX 27 59 6 -13
BITMAP
00080000
01FFC000
07FFF000
0FFFF800
1FFFFC00
3FFFFE00
7FFFFE00
7F80FE00
7F007F00
FE007F00
FE003F00
FE003F00
FC003F00
FC003F00
FC003F00
FC003F00
FC007F00
FC007E00
FC00FE00
FC03FC00
FC7FF800
FCFFF800
FCFFE000
FCFFF800
FCFFFC00
FC7FFF00
FC03FF00
FC007F80
FC003FC0
FC001FC0
FC001FC0
FC000FC0
FC000FE0
FC000FE0
FC000FE0
FC000FE0
FC000FC0
FC001FC0
FC003FC0
FC007FC0
FC01FF80
FFFFFF00
FFFFFF00
FFFFFE00
FFFFFC00
FFFFF000
FFFF8000
FC000000
FC000000
FC000000
FC000000
FC000000
FC000000
FC000000
FC000000
FC000000
FC000000
FC000000
FC000000
ENDCHAR
STARTCHAR gamma
ENCODING 947
SWIDTH 561 0
DWIDTH 36 0
BBX 32 49 2 -17
BITMAP
7F00007E
FF8000FF
7FC001FE
3FE001FE
1FF003FC
0FF807F8
07F80FF0
03FC1FE0
01FE1FE0
01FE3FC0
00FF7F80
007FFF00
003FFE00
003FFC00
001FFC00
000FF800
000FF800
001FFC00
003FFC00
007FFE00
007FFF00
00FF7F00
01FE3F80
01FC3F80
03FC1FC0
03F81FC0
07F00FE0
07F00FE0
0FF007F0
0FE007F0
0FE003F0
0FC003F0
1FC003F8
1FC003F8
1FC003F8
1FC003F8
1FC003F8
1FC003F8
1FC003F8
1FC003F8
0FE007F0
0FF00FF0
0FF81FF0
07FFFFE0
03FFFFC0
01FFFF80
00FFFF00
007FFE00
000FF000
ENDCHAR
STARTCHAR delta
ENCODING 948
SWIDTH 561 0
DWIDTH 36 0
BBX 30 48 3 -1
BITMAP
000FFF00
007FFFE0
01FFFFE0
03FFFFE0
07FFFFE0
07FFFFE0
07F007C0
0FE00000
07E00000
07F80000
07FC0000
03FE0000
03FF8000
01FFC000
00FFE000
003FF800
000FFC00
007FFE00
03FFFF00
07FFFF80
0FFFFF80
1FFFFFC0
1FF03FE0
3FC01FE0
3F800FF0
7F0007F0
7F0003F8
7F0003F8
7E0003F8
7E0001F8
FE0001F8
FE0001F8
FE0001FC
FE0001F8
7E0001F8
7E0001F8
7F0003F8
7F0003F8
7F8007F8
3F8007F0
3FC00FF0
1FF03FE0
1FFFFFC0
0FFFFFC0
07FFFF80
03FFFE00
00FFFC00
001FE000
ENDCHAR
STARTCHAR epsilon
ENCODING 949
SWIDTH 561 0
DWIDTH 36 0
BBX 27 34 5 -1
BITMAP
00008000
00FFFF80
03FFFF80
0FFFFF80
1FFFFF80
3FFFFF80
3FFFFF00
7F800000
7F000000
7F000000
7F000000
7F000000
7F800000
3FF00000
1FFFC000
0FFFC000
07FFE000
07FFE000
1FFFC000
3FFFC000
7FF00000
FF800000
FE000000
FE000000
FC000000
FC000000
FE000000
FFC00000
7FFFFFC0
7FFFFFC0
3FFFFFE0
0FFFFFE0
03FFFFE0
003FFFC0
ENDCHAR
STARTCHAR zeta
ENCODING 950
SWIDTH 561 0
DWIDTH 36 0
BBX 25 56 6 -11
BITMAP
3FFFFF00
3FFFFF80
7FFFFF80
7FFFFF80
7FFFFF00
3FFFFF00
0007FC00
000FF800
003FF000
007FC000
00FF8000
01FF0000
03FE0000
07FC0000
07F80000
0FF00000
1FE00000
1FC00000
3FC00000
3F800000
7F800000
7F000000
7F000000
FE000000
FE000000
FE000000
FE000000
FE000000
FE000000
FE000000
FE000000
FE000000
FF000000
7F000000
7F800000
3FE00000
3FF80000
1FFE0000
0FFFC000
07FFF000
01FFF800
00FFFC00
001FFE00
0003FF00
0000FF00
00007F00
00003F80
00003F80
00003F80
00003F80
00003F80
00003F00
00007F00
00007F00
00003E00
00000E00
ENDCHAR
STARTCHAR eta
ENCODING 951
SWIDTH 561 0
DWIDTH 36 0
BBX 26 49 5 -16
BITMAP
00080000
7FFFE000
FFFFFC00
FFFFFE00
FFFFFF00
FFFFFF00
FFFFFF80
FC007F80
FC003FC0
FC001FC0
FC001FC0
FC000FC0
FC000FC0
FC000FC0
FC000FC0
FC000FC0
FC000FC0
FC000FC0
FC000FC0
FC000FC0
FC000FC0
FC000FC0
FC000FC0
FC000FC0
FC000FC0
FC000FC0
FC000FC0
FC000FC0
FC000FC0
FC000FC0
FC000FC0
FC000FC0
FC000FC0
FC000FC0
00000FC0
00000FC0
00000FC0
00000FC0
00000FC0
00000FC0
00000FC0
00000FC0
00000FC0
00000FC0
00000FC0
00000FC0
00000FC0
00000FC0
00000FC0
ENDCHAR
STARTCHAR theta
ENCODING 952
SWIDTH 561 0
DWIDTH 36 0
BBX 26 47 5 -1
BITMAP
00080000
00FFC000
03FFF000
07FFF800
0FFFFC00
0FFFFC00
1FFFFE00
3FC0FE00
3F807F00
3F807F00
7F003F80
7F003F80
7E003F80
7E001F80
FE001FC0
FE001FC0
FE001FC0
FE001FC0
FC001FC0
FC000FC0
FC000FC0
FFFFFFC0
FFFFFFC0
FFFFFFC0
FFFFFFC0
FFFFFFC0
FFFFFFC0
FC000FC0
FC000FC0
FC001FC0
FE001FC0
FE001FC0
FE001FC0
FE001FC0
7E001F80
7F003F80
7F003F80
7F003F00
3F807F00
3FC0FF00
1FE1FE00
1FFFFE00
0FFFFC00
07FFF800
03FFF000
01FFE000
007F0000
ENDCHAR
STARTCHAR iota
ENCODING 953
SWIDTH 561 0
DWIDTH 36 0
BBX 19 33 10 -1
BITMAP
7C0000
FE0000
FE0000
FE0000
FE0000
FE0000
FE0000
FE0000
FE0000
FE0000
FE0000
FE0000
FE0000
FE0000
FE0000
FE0000
FE0000
FE0000
FE0000
FE0000
FE0000
FE0000
FE0000
FE0000
FE0000
7E0000
7F8100
7FFFC0
3FFFC0
3FFFC0
1FFFE0
0FFFC0
01FF00
ENDCHAR
STARTCHAR kappa
ENCODING 954
SWIDTH 561 0
DWIDTH 36 0
BBX 27 33 5 -1
BITMAP
FC001FC0
FC003FC0
FC007FC0
FC00FF80
FC01FF00
FC03FE00
FC07FC00
FC0FF800
FC1FF000
FC3FE000
FC7FC000
FCFF8000
FDFF0000
FFFE0000
FFFC0000
FFFE0000
FFFF0000
FFFF8000
FFFFC000
FF9FC000
FF1FE000
FE0FF000
FC07F800
FC03FC00
FC01FC00
FC01FE00
FC00FF00
FC007F80
FC003F80
FC003FC0
FC001FE0
FC000FE0
FC0007E0
ENDCHAR
STARTCHAR lambda
ENCODING 955
SWIDTH 561 0
DWIDTH 36 0
BBX 30 44 4 -1
BITMAP
3C000000
7F000000
7FC00000
7FE00000
7FF00000
7FF80000
0FF80000
03FC0000
01FE0000
00FE0000
007F0000
007F0000
003F8000
003F8000
001FC000
001FC000
003FE000
003FE000
003FF000
007FF000
007FF000
00FFF800
00FDF800
01FDFC00
01FDFC00
01F8FE00
03F8FE00
03F07E00
07F07F00
07F07F00
0FE03F80
0FE03F80
0FC01FC0
1FC01FC0
1FC00FC0
3F800FE0
3F800FE0
3F0007F0
7F0007F0
7F0003F0
FE0003F8
FE0003F8
FC0001FC
FC0001F8
ENDCHAR
STARTCHAR uni03BC
ENCODING 956
SWIDTH 561 0
DWIDTH 36 0
BBX 26 48 5 -16
BITMAP
FC000FC0
FC000FC0
FC000FC0
FC000FC0
FC000FC0
FC000FC0
FC000FC0
FC000FC0
FC000FC0
FC000FC0
FC000FC0
FC000FC0
FC000FC0
FC000FC0
FC000FC0
FC000FC0
FC000FC0
FC000FC0
FC000FC0
FC000FC0
FC000FC0
FC000FC0
FE000FC0
FE000FC0
FE000FC0
FF000FC0
FFC00FC0
FFFFFFC0
FFFFFFC0
FFFFFFC0
FFFFFFC0
FDFFFFC0
FC7FFC00
FC000000
FC000000
FC000000
FC000000
FC000000
FC000000
FC000000
FC000000
FC000000
FC000000
FC000000
FC000000
FC000000
FC000000
FC000000
ENDCHAR
STARTCHAR nu
ENCODING 957
SWIDTH 561 0
DWIDTH 36 0
BBX 29 33 3 -1
BITMAP
7C000FC0
FE001FE0
7E001FE0
7F000FF0
7F0007F0
7F0007F0
3F0003F0
3F8003F8
3F8003F8
3F8003F8
1F8003F8
1FC003F8
1FC003F8
1FC003F0
0FC003F0
0FE003F0
0FE007F0
0FE007E0
0FE00FE0
07E00FE0
07F01FC0
07F03FC0
07F07F80
03F07F00
03F8FF00
03FBFE00
03FFFC00
01FFF800
01FFF000
01FFE000
01FFC000
00FF8000
00FF0000
ENDCHAR
STARTCHAR xi
ENCODING 958
SWIDTH 561 0
DWIDTH 36 0
BBX 24 56 7 -11
BITMAP
7FFFFE
7FFFFF
FFFFFF
FFFFFF
FFFFFE
7FFFFE
03FF00
0FF000
1FC000
3F8000
7F0000
7F0000
7E0000
7E0000
7F0000
7F0000
3F8000
1FF000
0FFFF8
07FFF8
01FFF8
03FFF8
0FFFF8
1FFFF8
3FF000
3F8000
7F0000
7E0000
FE0000
FE0000
FE0000
FE0000
FE0000
7F0000
7F8000
3FE000
3FF000
1FFE00
0FFF80
07FFE0
01FFF0
00FFF8
003FFC
0007FE
0001FE
0000FF
00007F
00007F
00007F
00007F
00007F
00007E
0000FE
0000FE
00007C
00001C
ENDCHAR
STARTCHAR omicron
ENCODING 959
SWIDTH 561 0
DWIDTH 36 0
BBX 30 34 3 -1
BITMAP
00010000
003FF800
01FFFE00
03FFFF00
07FFFF80
0FFFFFC0
1FFFFFE0
3FE01FF0
3FC00FF0
7F8007F8
7F0003F8
7E0003F8
FE0001FC
FE0001FC
FE0001FC
FC0001FC
FC0000FC
FC0000FC
FC0000FC
FE0001FC
FE0001FC
FE0001FC
FE0001F8
7F0003F8
7F0003F8
3F8007F0
3FC00FF0
1FF03FE0
1FFFFFE0
0FFFFFC0
07FFFF80
01FFFE00
00FFFC00
001FE000
ENDCHAR
STARTCHAR pi
ENCODING 960
SWIDTH 561 0
DWIDTH 36 0
BBX 33 33 2 -1
BITMAP
7FFFFFFF00
FFFFFFFF80
FFFFFFFF80
FFFFFFFF80
FFFFFFFF80
FFFFFFFF00
03F81FC000
03F81FC000
03F81FC000
03F81FC000
03F81FC000
03F81FC000
03F81FC000
03F81FC000
03F81FC000
03F81FC000
03F81FC000
03F81FC000
03F81FC000
03F81FC000
03F81FC000
03F81FC000
03F81FC000
03F81FC000
03F81FC000
03F81FC000
03F80FE000
03F80FFC00
03F80FFE00
03F807FE00
03F803FE00
03F801FE00
01F0007C00
ENDCHAR
STARTCHAR rho
ENCODING 961
SWIDTH 561 0
DWIDTH 36 0
BBX 30 49 3 -16
BITMAP
00010000
003FF800
00FFFE00
03FFFF00
07FFFF80
0FFFFFC0
0FFFFFE0
1FE01FF0
3FC00FF0
3F8007F8
7F0003F8
7E0003F8
7E0001FC
FE0001FC
FE0001FC
FC0001FC
FC0000FC
FC0000FC
FC0000FC
FE0001FC
FE0001FC
FE0001FC
FE0001FC
FF0003F8
FF0003F8
FF8007F0
FFC00FF0
FFF03FE0
FFFFFFE0
FFFFFFC0
FFFFFF80
FDFFFF00
FC7FFC00
FC0FF000
FC000000
FC000000
FC000000
FC000000
FC000000
FC000000
FC000000
FC000000
FC000000
FC000000
FC000000
FC000000
FC000000
FC000000
FC000000
ENDCHAR
STARTCHAR uni03C2
ENCODING 962
SWIDTH 561 0
DWIDTH 36 0
BBX 26 45 5 -12
BITMAP
00010000
007FFE00
01FFFF80
07FFFFC0
0FFFFFC0
1FFFFFC0
3FFFFFC0
3FE00780
7F800000
7F000000
FE000000
FE000000
FE000000
FC000000
FC000000
FC000000
FC000000
FC000000
FE000000
FE000000
FE000000
7F000000
7F800000
7FC00000
3FF00000
1FFE0000
0FFF8000
07FFF000
03FFF800
00FFFE00
003FFF00
0007FF00
0000FF80
00007F80
00003FC0
00001FC0
00001FC0
00001FC0
00001FC0
00001F80
00003F80
00003F80
00003F80
00000F00
00000200
ENDCHAR
STARTCHAR sigma
ENCODING 963
SWIDTH 561 0
DWIDTH 36 0
BBX 33 33 3 -1
BITMAP
001FFFFF00
00FFFFFF80
03FFFFFF80
07FFFFFF80
0FFFFFFF80
1FFFFFFF00
3FF07FE000
3FC01FF000
7F800FF000
7F0007F800
7E0003F800
FE0003F800
FE0001F800
FE0001F800
FC0001F800
FC0001F800
FC0001FC00
FC0001F800
FE0001F800
FE0001F800
FE0003F800
FE0003F800
7F0003F800
7F0007F000
7F800FF000
3FC01FE000
1FF07FE000
1FFFFFC000
0FFFFF8000
07FFFF0000
03FFFE0000
00FFF80000
001FE00000
ENDCHAR
STARTCHAR tau
ENCODING 964
SWIDTH 561 0
DWIDTH 36 0
BBX 29 33 4 -1
BITMAP
FFFFFFF0
FFFFFFF0
FFFFFFF0
FFFFFFF0
FFFFFFF0
FFFFFFF0
001F8000
001F8000
001F8000
001F8000
001F8000
001F8000
001F8000
001F8000
001F8000
001F8000
001F8000
001F8000
001F8000
001F8000
001F8000
001F8000
001F8000
001F8000
001F8000
001FC000
001FE020
001FFFF0
000FFFF0
0007FFF8
0007FFF8
0001FFF8
00007FE0
ENDCHAR
STARTCHAR upsilon
ENCODING 965
SWIDTH 561 0
DWIDTH 36 0
BBX 30 33 2 -1
BITMAP
7E0003F0
FE0003F0
7F0003F0
7F0003F8
3F8003F8
3F8003F8
3F8003F8
3F8001F8
1F8001FC
1F8001FC
1F8001FC
1F8001FC
1F8001FC
1F8001FC
1F8000FC
1F8000FC
1F8000FC
1F8000FC
1F8000FC
1F8001FC
1F8001FC
1F8001FC
1F8001FC
1FC003F8
1FC003F8
1FE007F8
0FF81FF0
0FFFFFE0
07FFFFE0
07FFFFC0
03FFFF80
00FFFE00
001FF000
ENDCHAR
STARTCHAR phi
ENCODING 966
SWIDTH 561 0
DWIDTH 36 0
BBX 32 57 2 -16
BITMAP
0007E000
0007E000
0007E000
0007E000
0007E000
0007E000
0007E000
0007E000
0007E000
000FF000
007FFE00
01FFFF80
03FFFFC0
0FFFFFF0
0FFFFFF8
1FFFFFF8
3FE7E3FC
7F87E1FC
7F07E0FE
7F07E0FE
FE07E07F
FE07E07F
FC07E07F
FC07E03F
FC07E03F
FC07E03F
FC07E03F
FC07E03F
FC07E03F
FE07E07F
FE07E07F
FE07E07F
7F07E0FE
7F87E1FE
3FC7E3FC
3FF7E7FC
1FFFFFF8
0FFFFFF0
07FFFFE0
03FFFFC0
00FFFF00
003FFC00
0007E000
0007E000
0007E000
0007E000
0007E000
0007E000
0007E000
0007E000
0007E000
0007E000
0007E000
0007E000
0007E000
0007E000
0007E000
ENDCHAR
STARTCHAR chi
ENCODING 967
SWIDTH 561 0
DWIDTH 36 0
BBX 30 48 3 -16
BITMAP
7C0000FC
FF0001FC
FF8001FC
FFC003FC
FFE003F8
7FE007F0
0FF007F0
07F00FE0
03F80FE0
01F81FC0
01FC1FC0
01FC3F80
00FE3F80
00FE7F00
007E7F00
007FFE00
007FFE00
003FFC00
003FFC00
003FF800
003FF800
001FF000
001FF000
001FE000
001FE000
003FE000
003FF000
007FF000
007FF000
00FFF000
00FFF800
01FFF800
01FDF800
03F9FC00
03F9FC00
07F0FC00
07F0FE00
0FE0FE00
0FE07F00
1FC07F00
1FC03F80
3F803FC0
3F801FFC
7F000FFC
7F000FFC
FE0007FC
7E0001FC
1C00007C
ENDCHAR
STARTCHAR psi
ENCODING 968
SWIDTH 561 0
DWIDTH 36 0
BBX 34 50 1 -16
BITMAP
0001F00000
0003F80000
FC03F80F80
FE03F81FC0
FE03F81FC0
7F03F83F80
7F03F83F80
3F03F83F00
3F03F87F00
3F83F87F00
3F83F87F00
3F83F87F00
3F83F87F00
3F83F87F00
3F83F87F00
3F83F87F00
3F83F87F00
3F83F87F00
3F83F87F00
3F83F87F00
3F83F87F00
3F83F87F00
3F83F87F00
3F83F87F00
3F83F87F00
3FC3F8FE00
1FC3F8FE00
1FE3F9FE00
1FFBFFFC00
0FFFFFFC00
07FFFFF800
03FFFFF000
01FFFFE000
007FFF8000
000FFC0000
0003F80000
0003F80000
0003F80000
0003F80000
0003F80000
0003F80000
0003F80000
0003F80000
0003F80000
0003F80000
0003F80000
0003F80000
0003F80000
0003F80000
0001F00000
ENDCHAR
STARTCHAR omega
ENCODING 969
SWIDTH 561 0
DWIDTH 36 0
BBX 36 33 0 -1
BITMAP
0FC0003F00
1FC0003F80
1FC0003F80
1FC0003F80
3F80001FC0
3F80001FC0
3F80001FC0
3F00000FC0
7F00F00FE0
7F01F80FE0
7E01F80FE0
7E01F807E0
7E01F807E0
FE01F807E0
FE01F807F0
FE01F807F0
FE01F807F0
FC01F807F0
FC01F807F0
FC01F807F0
FE01F807F0
FE01F807F0
FE01F807E0
7E01F807E0
7E03FC0FE0
7F03FC0FE0
7F87FE1FC0
3FFFFFFFC0
3FFFFFFFC0
1FFFFFFF80
0FFF9FFF00
07FF0FFE00
01FC03F800
ENDCHAR
STARTCHAR iotadieresis
ENCODING 970
SWIDTH 561 0
DWIDTH 36 0
BBX 24 49 5 -1
BITMAP
F807C0
F807C0
F80FC0
F80FC0
F80FC0
F80780
000000
000000
000000
000000
000000
000000
000000
000000
000000
000000
03E000
07F000
07F000
07F000
07F000
07F000
07F000
07F000
07F000
07F000
07F000
07F000
07F000
07F000
07F000
07F000
07F000
07F000
07F000
07F000
07F000
07F000
07F000
07F000
07F000
03F000
03FC08
03FFFE
01FFFE
01FFFE
00FFFF
007FFE
000FF8
ENDCHAR
STARTCHAR upsilondieresis
ENCODING 971
SWIDTH 561 0
DWIDTH 36 0
BBX 30 49 2 -1
BITMAP
01F00F80
01F00F80
01F00F80
01F00F80
01F00F80
01F00F80
00000000
00000000
00000000
00000000
00000000
00000000
00000000
00000000
00000000
00000000
7E0003F0
FE0003F0
7F0003F0
7F0003F8
3F8003F8
3F8003F8
3F8003F8
3F8001F8
1F8001FC
1F8001FC
1F8001FC
1F8001FC
1F8001FC
1F8001FC
1F8000FC
1F8000FC
1F8000FC
1F8000FC
1F8000FC
1F8001FC
1F8001FC
1F8001FC
1F8001FC
1FC003F8
1FC003F8
1FE007F8
0FF81FF0
0FFFFFE0
07FFFFE0
07FFFFC0
03FFFF80
00FFFE00
001FF000
ENDCHAR
STARTCHAR omicrontonos
ENCODING 972
SWIDTH 561 0
DWIDTH 36 0
BBX 30 52 3 -1
BITMAP
0007E000
0007E000
0007E000
0007E000
0007E000
0007C000
0007C000
0007C000
0007C000
0007C000
00078000
00078000
000F8000
000F8000
00070000
00000000
00000000
00000000
00010000
003FF800
01FFFE00
03FFFF00
07FFFF80
0FFFFFC0
1FFFFFE0
3FE01FF0
3FC00FF0
7F8007F8
7F0003F8
7E0003F8
FE0001FC
FE0001FC
FE0001FC
FC0001FC
FC0000FC
FC0000FC
FC0000FC
FE0001FC
FE0001FC
FE0001FC
FE0001F8
7F0003F8
7F0003F8
3F8007F0
3FC00FF0
1FF03FE0
1FFFFFE0
0FFFFFC0
07FFFF80
01FFFE00
00FFFC00
001FE000
ENDCHAR
STARTCHAR upsilontonos
ENCODING 973
SWIDTH 561 0
DWIDTH 36 0
BBX 30 55 2 -1
BITMAP
0003F000
0003F000
0003F000
0003F000
0003F000
0003E000
0003E000
0003E000
0003E000
0003E000
0003C000
0003C000
0007C000
0007C000
00038000
00000000
00000000
00000000
00000000
00000000
00000000
00000000
7E0003F0
FE0003F0
7F0003F0
7F0003F8
3F8003F8
3F8003F8
3F8003F8
3F8001F8
1F8001FC
1F8001FC
1F8001FC
1F8001FC
1F8001FC
1F8001FC
1F8000FC
1F8000FC
1F8000FC
1F8000FC
1F8000FC
1F8001FC
1F8001FC
1F8001FC
1F8001FC
1FC003F8
1FC003F8
1FE007F8
0FF81FF0
0FFFFFE0
07FFFFE0
07FFFFC0
03FFFF80
00FFFE00
001FF000
ENDCHAR
STARTCHAR omegatonos
ENCODING 974
SWIDTH 561 0
DWIDTH 36 0
BBX 36 55 0 -1
BITMAP
0000FC0000
0000FC0000
0000FC0000
0000FC0000
0000FC0000
0000F80000
0000F80000
0000F80000
0000F80000
0000F80000
0000F00000
0000F00000
0001F00000
0001F00000
0000E00000
0000000000
0000000000
0000000000
0000000000
0000000000
0000000000
0000000000
0FC0003F00
1FC0003F80
1FC0003F80
1FC0003F80
3F80001FC0
3F80001FC0
3F80001FC0
3F00000FC0
7F00F00FE0
7F01F80FE0
7E01F80FE0
7E01F807E0
7E01F807E0
FE01F807E0
FE01F807F0
FE01F807F0
FE01F807F0
FC01F807F0
FC01F807F0
FC01F807F0
FE01F807F0
FE01F807F0
FE01F807E0
7E01F807E0
7E03FC0FE0
7F03FC0FE0
7F87FE1FC0
3FFFFFFFC0
3FFFFFFFC0
1FFFFFFF80
0FFF9FFF00
07FF0FFE00
01FC03F800
ENDCHAR
STARTCHAR uni0401
ENCODING 1025
SWIDTH 561 0
DWIDTH 36 0
BBX 28 58 5 0
BITMAP
0F807C00
0F807C00
0F807C00
0F807C00
0F807C00
0F807C00
00000000
00000000
00000000
00000000
00000000
00000000
00000000
FFFFFFC0
FFFFFFC0
FFFFFFE0
FFFFFFE0
FFFFFFC0
FFFFFFC0
FC000000
FC000000
FC000000
FC000000
FC000000
FC000000
FC000000
FC000000
FC000000
FC000000
FC000000
FC000000
FC000000
FFFFFF00
FFFFFF80
FFFFFF80
FFFFFF80
FFFFFF80
FFFFFF00
FC000000
FC000000
FC000000
FC000000
FC000000
FC000000
FC000000
FC000000
FC000000
FC000000
FC000000
FC000000
FC000000
FC000000
FFFFFFE0
FFFFFFF0
FFFFFFF0
FFFFFFF0
FFFFFFF0
FFFFFFE0
ENDCHAR
STARTCHAR uni0403
ENCODING 1027
SWIDTH 561 0
DWIDTH 36 0
BBX 30 60 5 0
BITMAP
00000800
00003C00
0000FE00
0003FE00
000FFE00
003FFF00
00FFFC00
03FFE000
03FF0000
03F80000
01C00000
00000000
00000000
00000000
00000000
FFFFFFFC
FFFFFFFC
FFFFFFFC
FFFFFFFC
FFFFFFFC
FFFFFFFC
FC000000
FC000000
FC000000
FC000000
FC000000
FC000000
FC000000
FC000000
FC000000
FC000000
FC000000
FC000000
FC000000
FC000000
FC000000
FC000000
FC000000
FC000000
FC000000
FC000000
FC000000
FC000000
FC000000
FC000000
FC000000
FC000000
FC000000
FC000000
FC000000
FC000000
FC000000
FC000000
FC000000
FC000000
FC000000
FC000000
FC000000
FC000000
FC000000
ENDCHAR
STARTCHAR uni0405
ENCODING 1029
SWIDTH 561 0
DWIDTH 36 0
BBX 29 47 4 -1
BITMAP
00010000
007FFE00
01FFFF80
07FFFFC0
0FFFFFC0
1FFFFFC0
3FFFFF80
3FE00780
7F800000
7F000000
7F000000
7E000000
FE000000
FE000000
7E000000
7F000000
7F800000
7FC00000
3FE00000
3FFC0000
1FFFC000
0FFFF000
07FFFC00
01FFFF00
00FFFF80
001FFFC0
0001FFE0
00003FE0
00001FF0
00000FF0
000007F0
000003F8
000003F8
000003F8
000003F8
000003F8
000007F0
000007F0
00001FE0
38007FE0
7FFFFFC0
7FFFFF80
7FFFFF00
7FFFFE00
3FFFF800
0FFFE000
00180000
ENDCHAR
STARTCHAR uni0406
ENCODING 1030
SWIDTH 561 0
DWIDTH 36 0
BBX 26 45 5 0
BITMAP
7FFFFF80
FFFFFFC0
FFFFFFC0
FFFFFFC0
FFFFFFC0
7FFFFF80
003F0000
003F0000
003F0000
003F0000
003F0000
003F0000
003F0000
003F0000
003F0000
003F0000
003F0000
003F0000
003F0000
003F0000
003F0000
003F0000
003F0000
003F0000
003F0000
003F0000
003F0000
003F0000
003F0000
003F0000
003F0000
003F0000
003F0000
003F0000
003F0000
003F0000
003F0000
003F0000
003F0000
FFFFFFC0
FFFFFFC0
FFFFFFC0
FFFFFFC0
FFFFFFC0
FFFFFFC0
ENDCHAR
STARTCHAR uni0407
ENCODING 1031
SWIDTH 561 0
DWIDTH 36 0
BBX 26 57 5 0
BITMAP
0F807C00
0F807C00
0F807C00
0F807C00
0F807C00
0F807C00
00000000
00000000
00000000
00000000
00000000
00000000
7FFFFF80
FFFFFFC0
FFFFFFC0
FFFFFFC0
FFFFFFC0
7FFFFF80
003F0000
003F0000
003F0000
003F0000
003F0000
003F0000
003F0000
003F0000
003F0000
003F0000
003F0000
003F0000
003F0000
003F0000
003F0000
003F0000
003F0000
003F0000
003F0000
003F0000
003F0000
003F0000
003F0000
003F0000
003F0000
003F0000
003F0000
003F0000
003F0000
003F0000
003F0000
003F0000
003F0000
FFFFFFC0
FFFFFFC0
FFFFFFC0
FFFFFFC0
FFFFFFC0
FFFFFFC0
ENDCHAR
STARTCHAR uni0408
ENCODING 1032
SWIDTH 561 0
DWIDTH 36 0
BBX 27 46 4 -1
BITMAP
03FFFFC0
07FFFFE0
07FFFFE0
07FFFFE0
07FFFFE0
03FFFFE0
000007E0
000007E0
000007E0
000007E0
000007E0
000007E0
000007E0
000007E0
000007E0
000007E0
000007E0
000007E0
000007E0
000007E0
000007E0
000007E0
000007E0
000007E0
000007E0
000007E0
000007E0
000007E0
000007E0
000007E0
00000FE0
00000FE0
00000FE0
00000FE0
00000FC0
00001FC0
00003FC0
00007F80
3800FF80
7FFFFF00
7FFFFE00
FFFFFC00
7FFFF800
3FFFF000
0FFFC000
00300000
ENDCHAR
STARTCHAR uni040C
ENCODING 1036
SWIDTH 561 0
DWIDTH 36 0
BBX 28 60 5 0
BITMAP
00000800
00003C00
0000FE00
0003FE00
000FFE00
003FFF00
00FFFC00
03FFE000
03FF0000
03F80000
01C00000
00000000
00000000
00000000
00000000
FC000FE0
FC001FE0
FC003FE0
FC003FC0
FC007F80
FC00FF80
FC00FF00
FC01FE00
FC03FC00
FC07FC00
FC07F800
FC0FF000
FC1FE000
FC3FE000
FC3FC000
FC7F8000
FCFF0000
FCFF0000
FDFE0000
FFFC0000
FFF80000
FFF00000
FFF00000
FFF80000
FFFC0000
FDFE0000
FCFF0000
FC7F0000
FC7F8000
FC3FC000
FC1FE000
FC1FE000
FC0FF000
FC07F800
FC03FC00
FC03FC00
FC01FE00
FC00FF00
FC00FF80
FC007F80
FC003FC0
FC001FE0
FC001FF0
FC000FF0
FC0007E0
ENDCHAR
STARTCHAR uni0410
ENCODING 1040
SWIDTH 561 0
DWIDTH 36 0
BBX 36 46 0 0
BITMAP
0000400000
0003FC0000
000FFF0000
001FFF8000
001FFF8000
003FFFC000
003FFFC000
007F0FC000
007F0FE000
007F0FE000
007E07E000
00FE07E000
00FE07F000
00FE07F000
00FC03F000
01FC03F800
01FC03F800
01FC03F800
01F801F800
03F801FC00
03F801FC00
03F801FC00
03F000FC00
07F000FE00
07F000FE00
07F000FE00
07FFFFFE00
0FFFFFFF00
0FFFFFFF00
0FFFFFFF00
0FFFFFFF00
1FFFFFFF80
1FC0003F80
1FC0003F80
1F80001F80
3F80001FC0
3F80001FC0
3F80001FC0
3F00000FC0
7F00000FE0
7F00000FE0
7F00000FE0
7E000007E0
FE000007F0
FE000007F0
7C000003E0
ENDCHAR
STARTCHAR uni0411
ENCODING 1041
SWIDTH 561 0
DWIDTH 36 0
BBX 28 45 5 0
BITMAP
FFFFFE00
FFFFFF00
FFFFFF00
FFFFFF00
FFFFFF00
FFFFFE00
FC000000
FC000000
FC000000
FC000000
FC000000
FC000000
FC000000
FC000000
FC000000
FC000000
FC000000
FC000000
FFFF0000
FFFFE000
FFFFFC00
FFFFFE00
FFFFFF00
FFFFFF80
FC01FFC0
FC003FE0
FC001FE0
FC000FE0
FC0007F0
FC0007F0
FC0007F0
FC0007F0
FC0007F0
FC0007F0
FC0007F0
FC000FE0
FC001FE0
FC003FE0
FC01FFC0
FFFFFF80
FFFFFF00
FFFFFE00
FFFFF800
FFFFE000
FFFF0000
ENDCHAR
ENDFONT
